<svg width="876" height="914" viewBox="0 0 876 914" fill="none" xmlns="http://www.w3.org/2000/svg">
<path d="M16.475 227.066L207.547 183.784C279.482 167.489 351.007 212.594 367.302 284.529L405.775 454.371C407.462 461.818 402.792 469.223 395.345 470.91L204.273 514.192C132.338 530.487 60.8131 485.382 44.5181 413.446L6.04507 243.605C4.3581 236.157 9.02772 228.753 16.475 227.066Z" fill="#E4CCFF" stroke="#F6EAFF" stroke-width="5"/>
<path d="M413.662 13.312L552.193 151.843C604.348 203.998 604.348 288.557 552.193 340.712L429.054 463.851C423.655 469.25 414.901 469.25 409.501 463.851L270.97 325.32C218.815 273.165 218.815 188.606 270.97 136.451L394.109 13.312C399.508 7.91262 408.262 7.91262 413.662 13.312Z" fill="#E4CCFF" stroke="#F6EAFF" stroke-width="5"/>
<path d="M864.094 373.59L758.056 538.324C718.134 600.344 635.494 618.258 573.474 578.336L427.043 484.08C420.622 479.947 418.767 471.391 422.9 464.97L528.939 300.236C568.861 238.216 651.501 220.302 713.521 260.224L859.952 354.48C866.373 358.613 868.227 367.169 864.094 373.59Z" fill="#E4CCFF" stroke="#F6EAFF" stroke-width="5"/>
<path d="M537.439 903.18L367.774 805.223C303.898 768.344 282.012 686.666 318.891 622.79L405.963 471.976C409.781 465.363 418.237 463.098 424.85 466.916L594.516 564.872C658.392 601.751 680.277 683.429 643.398 747.305L556.326 898.119C552.508 904.732 544.052 906.998 537.439 903.18Z" fill="#E4CCFF" stroke="#F6EAFF" stroke-width="5"/>
<path d="M88.5 788.578L88.5 592.828C88.5 519.131 148.197 459.391 221.833 459.391L395.7 459.391C403.32 459.391 409.5 465.573 409.5 473.203L409.5 668.953C409.5 742.65 349.803 802.391 276.167 802.391L102.3 802.391C94.6803 802.391 88.5 796.208 88.5 788.578Z" fill="#AA5DE5" stroke="#F6EAFF" stroke-width="5"/>
<path d="M396.734 101.217C396.727 101.004 396.785 100.821 396.908 100.667C397.053 100.513 397.242 100.433 397.477 100.425L418.298 99.7621C418.533 99.7546 418.727 99.8231 418.881 99.9676C419.035 100.112 419.116 100.291 419.122 100.504L419.656 117.264C419.664 117.498 419.595 117.693 419.451 117.847C419.306 118.001 419.117 118.081 418.882 118.089L398.061 118.752C397.847 118.759 397.664 118.69 397.51 118.545C397.356 118.401 397.275 118.211 397.268 117.977L397.176 115.098C397.169 114.885 397.238 114.701 397.382 114.547C397.527 114.393 397.706 114.313 397.919 114.306L415.542 113.745L415.242 104.31L397.619 104.871C397.405 104.878 397.222 104.809 397.068 104.664C396.914 104.541 396.834 104.362 396.827 104.128L396.734 101.217ZM391.388 124.36C391.381 124.146 391.45 123.963 391.594 123.809C391.739 123.655 391.918 123.574 392.131 123.568L413.304 122.893C413.517 122.886 413.701 122.955 413.855 123.1C414.009 123.244 414.089 123.423 414.096 123.636L414.177 126.163C414.184 126.398 414.115 126.581 413.97 126.714C413.826 126.868 413.647 126.948 413.433 126.955L412.154 126.996C412.853 127.486 413.439 128.14 413.913 128.957C414.388 129.774 414.645 130.801 414.684 132.038C414.72 133.168 414.57 134.155 414.234 134.998C413.898 135.841 413.398 136.551 412.733 137.127C412.09 137.702 411.314 138.154 410.407 138.481C409.499 138.809 408.492 139.012 407.385 139.09C407.023 139.123 406.65 139.145 406.266 139.158C405.882 139.17 405.498 139.171 405.114 139.162C404.047 139.175 403.05 139.046 402.124 138.777C401.219 138.507 400.416 138.095 399.715 137.541C399.037 137.008 398.492 136.332 398.082 135.512C397.672 134.693 397.449 133.718 397.413 132.588C397.376 131.437 397.547 130.449 397.927 129.626C398.327 128.802 398.861 128.124 399.527 127.59L392.266 127.821C392.053 127.828 391.869 127.759 391.715 127.615C391.562 127.492 391.482 127.313 391.474 127.078L391.388 124.36ZM400.797 131.296C400.826 132.212 401.041 132.921 401.441 133.42C401.863 133.919 402.397 134.276 403.044 134.49C403.691 134.704 404.399 134.82 405.168 134.838C405.809 134.839 406.448 134.819 407.087 134.777C407.853 134.71 408.553 134.549 409.185 134.294C409.817 134.039 410.317 133.65 410.684 133.126C411.073 132.601 411.253 131.88 411.224 130.964C411.196 130.089 410.971 129.381 410.548 128.84C410.126 128.32 409.591 127.942 408.943 127.707C408.317 127.492 407.673 127.373 407.011 127.352C406.626 127.343 406.221 127.345 405.794 127.359C405.368 127.372 404.953 127.396 404.548 127.43C403.909 127.472 403.296 127.641 402.707 127.937C402.14 128.233 401.674 128.653 401.307 129.198C400.94 129.744 400.77 130.443 400.797 131.296ZM397.979 150.379C397.925 148.673 398.178 147.225 398.737 146.033C399.298 144.862 400.112 143.951 401.179 143.298C402.248 142.666 403.506 142.285 404.953 142.153C405.336 142.12 405.805 142.094 406.359 142.076C406.914 142.059 407.383 142.054 407.767 142.063C409.241 142.102 410.521 142.413 411.607 142.998C412.715 143.603 413.586 144.471 414.219 145.604C414.854 146.758 415.197 148.166 415.25 149.829C415.303 151.492 415.05 152.909 414.489 154.08C413.93 155.271 413.116 156.194 412.048 156.847C411.002 157.52 409.745 157.923 408.277 158.055C407.894 158.089 407.425 158.114 406.87 158.132C406.316 158.15 405.847 158.154 405.462 158.145C404.01 158.106 402.73 157.794 401.622 157.211C400.516 156.648 399.646 155.79 399.011 154.637C398.378 153.504 398.034 152.085 397.979 150.379ZM401.146 150.278C401.182 151.408 401.561 152.271 402.285 152.867C403.029 153.463 404.096 153.77 405.484 153.79C405.804 153.801 406.22 153.799 406.732 153.782C407.244 153.766 407.659 153.742 407.978 153.711C409.362 153.603 410.396 153.228 411.08 152.587C411.785 151.946 412.12 151.06 412.084 149.93C412.048 148.8 411.658 147.937 410.913 147.342C410.19 146.746 409.134 146.438 407.746 146.418C407.426 146.407 407.009 146.41 406.498 146.426C405.986 146.442 405.57 146.466 405.251 146.498C403.867 146.606 402.823 146.981 402.118 147.622C401.434 148.263 401.11 149.148 401.146 150.278ZM392.87 170.898C392.862 170.663 392.931 170.469 393.075 170.315C393.22 170.182 393.4 170.112 393.613 170.106L398.922 169.937C398.861 168.018 399.098 166.42 399.634 165.144C400.192 163.888 400.993 162.923 402.039 162.25C403.085 161.597 404.322 161.206 405.748 161.075C406.556 161.006 407.367 160.981 408.178 160.997C409.61 161.037 410.869 161.36 411.955 161.966C413.042 162.593 413.894 163.526 414.509 164.766C415.147 166.005 415.495 167.552 415.554 169.407L420.863 169.238C421.076 169.231 421.26 169.289 421.413 169.413C421.567 169.557 421.648 169.747 421.655 169.981L421.739 172.604C421.746 172.838 421.677 173.022 421.532 173.155C421.388 173.309 421.209 173.389 420.995 173.396L415.686 173.565C415.746 175.441 415.497 177.007 414.939 178.263C414.404 179.539 413.613 180.514 412.567 181.188C411.522 181.883 410.286 182.285 408.86 182.395C408.051 182.484 407.241 182.51 406.429 182.472C404.998 182.454 403.74 182.141 402.653 181.536C401.567 180.951 400.706 180.04 400.069 178.801C399.454 177.582 399.116 176.014 399.055 174.094L393.745 174.264C393.532 174.27 393.348 174.201 393.194 174.057C393.041 173.934 392.961 173.755 392.953 173.52L392.87 170.898ZM402.089 169.836L412.387 169.508C412.34 168.037 411.954 166.95 411.227 166.247C410.501 165.566 409.433 165.216 408.024 165.197C407.725 165.185 407.405 165.184 407.063 165.195C406.744 165.205 406.445 165.225 406.169 165.256C404.743 165.386 403.689 165.815 403.008 166.541C402.348 167.266 402.042 168.365 402.089 169.836ZM402.221 173.994C402.268 175.486 402.655 176.573 403.381 177.254C404.107 177.936 405.175 178.286 406.584 178.305C406.862 178.317 407.161 178.319 407.481 178.308C407.822 178.298 408.142 178.277 408.439 178.246C409.867 178.158 410.91 177.73 411.568 176.962C412.249 176.214 412.566 175.116 412.52 173.666L402.221 173.994ZM399.352 193.478C399.276 191.111 399.899 189.213 401.219 187.784C402.54 186.354 404.456 185.546 406.969 185.359C407.182 185.331 407.448 185.312 407.768 185.302C408.109 185.291 408.376 185.293 408.568 185.308C410.192 185.342 411.589 185.66 412.761 186.263C413.955 186.887 414.879 187.765 415.534 188.896C416.21 190.028 416.573 191.371 416.623 192.928C416.678 194.655 416.362 196.116 415.674 197.312C415.008 198.507 414.044 199.424 412.784 200.062C411.545 200.699 410.094 201.044 408.431 201.097L407.759 201.118C407.546 201.125 407.362 201.056 407.208 200.912C407.054 200.767 406.973 200.578 406.966 200.343L406.628 189.724C406.628 189.724 406.596 189.725 406.532 189.727C406.468 189.729 406.415 189.731 406.372 189.733C405.626 189.778 404.938 189.938 404.306 190.215C403.697 190.511 403.208 190.922 402.841 191.446C402.474 191.991 402.302 192.626 402.325 193.351C402.344 193.948 402.445 194.447 402.629 194.846C402.834 195.245 403.057 195.569 403.3 195.817C403.543 196.066 403.74 196.241 403.893 196.343C404.155 196.527 404.309 196.671 404.355 196.776C404.423 196.902 404.461 197.082 404.468 197.317L404.556 200.068C404.563 200.281 404.504 200.453 404.38 200.585C404.257 200.739 404.099 200.808 403.907 200.793C403.565 200.782 403.143 200.614 402.642 200.289C402.141 199.984 401.647 199.531 401.158 198.927C400.669 198.324 400.25 197.558 399.9 196.63C399.573 195.723 399.39 194.672 399.352 193.478ZM409.314 189.639L409.54 196.707L409.636 196.704C410.467 196.678 411.188 196.516 411.797 196.219C412.428 195.922 412.906 195.501 413.23 194.957C413.575 194.412 413.736 193.767 413.712 193.021C413.689 192.274 413.487 191.64 413.108 191.119C412.749 190.597 412.246 190.207 411.598 189.95C410.971 189.714 410.242 189.609 409.41 189.636L409.314 189.639ZM399.94 211.969C399.892 210.434 400.136 209.071 400.675 207.88C401.214 206.71 402.016 205.777 403.083 205.082C404.171 204.407 405.493 204.012 407.047 203.899C407.366 203.867 407.782 203.844 408.294 203.827C408.827 203.81 409.264 203.807 409.606 203.817C411.165 203.832 412.498 204.142 413.606 204.747C414.735 205.372 415.606 206.252 416.219 207.385C416.832 208.539 417.163 209.884 417.212 211.419C417.255 212.784 417.1 213.952 416.747 214.924C416.415 215.895 415.96 216.699 415.383 217.336C414.827 217.973 414.234 218.451 413.604 218.77C412.996 219.109 412.436 219.298 411.925 219.336C411.691 219.364 411.497 219.296 411.342 219.13C411.209 218.985 411.14 218.806 411.133 218.592L411.043 215.778C411.037 215.565 411.084 215.392 411.187 215.261C411.29 215.151 411.447 215.039 411.657 214.926C412.499 214.579 413.083 214.133 413.407 213.589C413.753 213.066 413.913 212.399 413.887 211.589C413.853 210.523 413.485 209.681 412.782 209.063C412.102 208.466 411.036 208.169 409.585 208.172C408.773 208.156 408.027 208.179 407.346 208.244C405.876 208.333 404.82 208.698 404.179 209.337C403.538 209.998 403.235 210.861 403.269 211.927C403.295 212.759 403.487 213.425 403.845 213.926C404.224 214.426 404.844 214.823 405.708 215.115C405.924 215.215 406.087 215.317 406.197 215.42C406.308 215.544 406.367 215.713 406.374 215.926L406.463 218.741C406.47 218.954 406.401 219.138 406.257 219.292C406.134 219.467 405.955 219.547 405.72 219.533C405.336 219.524 404.895 219.431 404.399 219.255C403.924 219.099 403.425 218.827 402.9 218.438C402.397 218.07 401.923 217.594 401.478 217.011C401.054 216.427 400.7 215.712 400.417 214.868C400.135 214.044 399.976 213.078 399.94 211.969ZM400.522 230.241C400.473 228.706 400.718 227.343 401.257 226.152C401.796 224.982 402.598 224.049 403.665 223.354C404.753 222.679 406.075 222.284 407.629 222.171C407.948 222.139 408.364 222.116 408.875 222.099C409.408 222.082 409.846 222.079 410.188 222.089C411.746 222.104 413.08 222.414 414.187 223.019C415.317 223.644 416.188 224.524 416.801 225.657C417.414 226.811 417.745 228.156 417.794 229.691C417.837 231.056 417.682 232.224 417.329 233.196C416.997 234.167 416.542 234.971 415.965 235.608C415.409 236.245 414.816 236.723 414.186 237.042C413.578 237.381 413.018 237.57 412.507 237.608C412.273 237.636 412.079 237.568 411.924 237.402C411.791 237.257 411.722 237.078 411.715 236.864L411.625 234.05C411.618 233.837 411.666 233.664 411.769 233.533C411.872 233.423 412.029 233.311 412.238 233.198C413.081 232.851 413.665 232.405 413.989 231.861C414.335 231.338 414.495 230.671 414.469 229.861C414.435 228.795 414.067 227.953 413.364 227.335C412.684 226.738 411.618 226.441 410.166 226.444C409.355 226.428 408.608 226.451 407.928 226.516C406.458 226.605 405.402 226.97 404.761 227.609C404.12 228.27 403.817 229.133 403.851 230.199C403.877 231.031 404.069 231.697 404.427 232.198C404.805 232.698 405.426 233.095 406.289 233.387C406.506 233.487 406.669 233.589 406.779 233.692C406.89 233.816 406.949 233.985 406.956 234.198L407.045 237.013C407.052 237.226 406.983 237.41 406.839 237.564C406.716 237.739 406.537 237.819 406.302 237.805C405.918 237.796 405.477 237.703 404.98 237.527C404.506 237.371 404.006 237.099 403.482 236.71C402.979 236.342 402.505 235.866 402.06 235.283C401.635 234.699 401.282 233.984 400.999 233.14C400.716 232.316 400.558 231.35 400.522 230.241ZM401.218 242.042C401.212 241.85 401.281 241.677 401.426 241.523C401.57 241.369 401.739 241.289 401.93 241.283L417.059 240.802C417.272 240.795 417.456 240.864 417.61 241.008C417.764 241.153 417.844 241.331 417.851 241.545L417.935 244.199C417.943 244.434 417.874 244.617 417.729 244.75C417.584 244.904 417.405 244.985 417.192 244.991L404.559 245.394L405.323 244.249L417.693 252.659C417.845 252.761 417.966 252.875 418.056 253C418.166 253.124 418.225 253.293 418.232 253.507L418.309 255.937C418.315 256.129 418.246 256.302 418.102 256.456C417.978 256.61 417.821 256.689 417.629 256.695L402.469 257.178C402.255 257.185 402.072 257.116 401.918 256.972C401.764 256.827 401.683 256.648 401.677 256.435L401.592 253.78C401.585 253.546 401.653 253.352 401.798 253.198C401.943 253.065 402.122 252.995 402.335 252.988L414.393 252.604L414.271 253.793L401.835 245.32C401.704 245.239 401.583 245.126 401.472 244.98C401.361 244.855 401.302 244.686 401.296 244.473L401.218 242.042ZM401.744 268.601C401.69 266.895 401.942 265.446 402.502 264.254C403.062 263.084 403.876 262.172 404.944 261.519C406.013 260.887 407.27 260.506 408.718 260.374C409.101 260.341 409.569 260.315 410.124 260.298C410.678 260.28 411.148 260.276 411.532 260.285C413.006 260.323 414.286 260.635 415.372 261.219C416.48 261.824 417.35 262.693 417.984 263.825C418.618 264.979 418.962 266.387 419.015 268.051C419.068 269.714 418.814 271.13 418.254 272.301C417.694 273.493 416.881 274.415 415.813 275.068C414.767 275.742 413.51 276.145 412.041 276.277C411.658 276.31 411.19 276.336 410.635 276.353C410.081 276.371 409.611 276.375 409.227 276.366C407.774 276.327 406.494 276.016 405.387 275.432C404.281 274.87 403.41 274.012 402.776 272.858C402.142 271.725 401.798 270.306 401.744 268.601ZM404.91 268.5C404.946 269.63 405.326 270.493 406.049 271.089C406.794 271.684 407.86 271.992 409.248 272.011C409.569 272.023 409.985 272.02 410.497 272.004C411.008 271.987 411.424 271.963 411.743 271.932C413.127 271.824 414.161 271.449 414.845 270.809C415.55 270.167 415.885 269.281 415.849 268.151C415.813 267.021 415.422 266.159 414.678 265.563C413.954 264.967 412.899 264.659 411.511 264.64C411.19 264.629 410.774 264.631 410.262 264.647C409.751 264.664 409.335 264.688 409.016 264.719C407.632 264.827 406.587 265.202 405.882 265.843C405.198 266.484 404.874 267.37 404.91 268.5ZM402.457 280.93C402.45 280.716 402.519 280.533 402.663 280.379C402.808 280.225 402.987 280.144 403.2 280.138L418.296 279.657C418.509 279.65 418.693 279.719 418.847 279.863C419.001 280.008 419.081 280.187 419.088 280.4L419.173 283.055C419.18 283.289 419.111 283.473 418.966 283.605C418.822 283.759 418.643 283.84 418.43 283.847L412.704 284.029L412.935 291.257L418.66 291.075C418.873 291.068 419.057 291.137 419.211 291.282C419.365 291.426 419.445 291.605 419.452 291.818L419.536 294.473C419.543 294.686 419.474 294.87 419.33 295.024C419.185 295.178 419.006 295.258 418.793 295.265L403.697 295.746C403.484 295.752 403.3 295.684 403.146 295.539C402.992 295.395 402.912 295.216 402.905 295.002L402.82 292.348C402.813 292.135 402.882 291.951 403.027 291.797C403.171 291.643 403.35 291.563 403.563 291.556L409.576 291.364L409.346 284.136L403.333 284.327C403.12 284.334 402.936 284.265 402.782 284.121C402.629 283.998 402.549 283.819 402.541 283.584L402.457 280.93ZM402.901 304.929C402.865 303.82 403.047 302.811 403.445 301.902C403.864 300.992 404.428 300.259 405.136 299.703C405.866 299.168 406.689 298.885 407.606 298.856C409.098 298.809 410.301 299.379 411.214 300.566C412.148 301.753 412.796 303.323 413.157 305.275L413.936 309.636L414.608 309.615C415.503 309.586 416.189 309.34 416.665 308.877C417.141 308.414 417.362 307.638 417.328 306.551C417.303 305.783 417.123 305.159 416.788 304.679C416.474 304.219 416.058 303.88 415.539 303.662C415.256 303.5 415.11 303.26 415.1 302.94L415.019 300.413C415.012 300.179 415.07 299.995 415.194 299.863C415.318 299.753 415.487 299.694 415.7 299.687C416.042 299.698 416.462 299.823 416.961 300.063C417.46 300.325 417.942 300.715 418.407 301.234C418.894 301.773 419.311 302.475 419.659 303.339C420.006 304.203 420.2 305.253 420.239 306.49C420.282 307.833 420.147 308.969 419.835 309.897C419.545 310.845 419.132 311.605 418.595 312.177C418.059 312.749 417.421 313.175 416.683 313.455C415.945 313.734 415.16 313.887 414.328 313.914L404.286 314.234C404.072 314.241 403.889 314.172 403.735 314.027C403.581 313.883 403.5 313.704 403.494 313.491L403.411 310.9C403.404 310.665 403.472 310.471 403.617 310.317C403.762 310.184 403.941 310.115 404.154 310.108L405.402 310.068C405.009 309.803 404.624 309.442 404.246 308.984C403.869 308.527 403.552 307.961 403.296 307.286C403.062 306.632 402.93 305.846 402.901 304.929ZM405.974 305.92C405.998 306.666 406.179 307.333 406.518 307.92C406.857 308.528 407.363 308.992 408.035 309.312C408.729 309.653 409.587 309.807 410.611 309.774L411.282 309.753L410.669 306.571C410.437 305.319 410.098 304.39 409.652 303.786C409.206 303.181 408.673 302.888 408.055 302.908C407.586 302.923 407.185 303.074 406.853 303.363C406.543 303.671 406.309 304.052 406.153 304.505C406.018 304.958 405.958 305.429 405.974 305.92ZM403.632 317.85C403.625 317.615 403.693 317.421 403.838 317.267C403.982 317.113 404.172 317.032 404.406 317.025L406.389 316.961C406.859 316.946 407.122 317.184 407.18 317.673C407.243 318.311 407.558 318.813 408.125 319.179C408.692 319.545 409.553 319.795 410.71 319.929C411.889 320.084 413.406 320.132 415.261 320.073L419.579 319.935C419.792 319.928 419.975 319.987 420.129 320.11C420.283 320.254 420.363 320.444 420.371 320.678L420.732 332.033C420.739 332.246 420.67 332.429 420.526 332.583C420.381 332.737 420.202 332.818 419.989 332.825L404.893 333.305C404.68 333.312 404.496 333.243 404.342 333.099C404.188 332.954 404.108 332.775 404.101 332.562L404.016 329.908C404.009 329.673 404.077 329.479 404.222 329.325C404.367 329.192 404.546 329.122 404.759 329.115L417.233 328.718L417.083 324.017L414.94 324.085C412.894 324.15 411.152 324.088 409.716 323.899C408.302 323.731 407.149 323.394 406.258 322.889C405.389 322.404 404.738 321.742 404.306 320.902C403.896 320.082 403.671 319.065 403.632 317.85ZM404.286 338.368C404.28 338.177 404.349 338.004 404.493 337.85C404.638 337.696 404.806 337.616 404.998 337.609L420.126 337.128C420.339 337.121 420.523 337.19 420.677 337.334C420.831 337.479 420.912 337.658 420.918 337.871L421.003 340.525C421.01 340.76 420.941 340.944 420.796 341.076C420.652 341.23 420.473 341.311 420.26 341.318L407.626 341.72L408.39 340.575L420.76 348.986C420.913 349.087 421.034 349.201 421.123 349.326C421.234 349.451 421.292 349.62 421.299 349.833L421.377 352.264C421.383 352.455 421.314 352.628 421.169 352.782C421.046 352.936 420.888 353.015 420.696 353.022L405.536 353.504C405.323 353.511 405.139 353.442 404.985 353.298C404.831 353.153 404.751 352.974 404.744 352.761L404.66 350.107C404.652 349.872 404.721 349.678 404.865 349.524C405.01 349.391 405.189 349.321 405.403 349.314L417.461 348.93L417.338 350.119L404.902 341.647C404.772 341.565 404.651 341.452 404.539 341.306C404.429 341.181 404.37 341.012 404.363 340.799L404.286 338.368ZM404.781 363.967C404.737 362.603 404.861 361.446 405.15 360.498C405.441 359.571 405.823 358.822 406.296 358.252C406.769 357.703 407.268 357.293 407.793 357.02C408.34 356.768 408.837 356.624 409.284 356.588C409.475 356.561 409.626 356.609 409.737 356.734C409.848 356.858 409.905 356.995 409.91 357.144L409.994 359.767C410 359.98 409.963 360.142 409.881 360.251C409.8 360.382 409.665 360.493 409.475 360.584C408.843 360.818 408.407 361.226 408.17 361.81C407.933 362.415 407.828 363.155 407.856 364.029C407.875 364.626 407.967 365.157 408.131 365.621C408.317 366.085 408.573 366.44 408.901 366.685C409.251 366.93 409.671 367.045 410.161 367.03C410.865 367.007 411.391 366.788 411.741 366.371C412.112 365.954 412.283 365.286 412.253 364.37L412.197 362.61C412.191 362.397 412.249 362.225 412.373 362.093C412.497 361.961 412.665 361.891 412.879 361.884L414.222 361.842C414.414 361.836 414.576 361.894 414.708 362.018C414.861 362.141 414.941 362.31 414.948 362.523L415 364.154C415.024 364.922 415.181 365.493 415.471 365.868C415.781 366.242 416.246 366.42 416.864 366.4C417.227 366.388 417.565 366.281 417.879 366.079C418.214 365.898 418.482 365.601 418.683 365.189C418.883 364.777 418.972 364.209 418.949 363.484C418.917 362.482 418.734 361.773 418.401 361.356C418.067 360.94 417.578 360.646 416.932 360.475C416.737 360.395 416.595 360.293 416.506 360.168C416.417 360.064 416.369 359.895 416.362 359.66L416.281 357.134C416.276 356.963 416.324 356.812 416.427 356.681C416.53 356.571 416.677 356.513 416.869 356.507C417.446 356.531 418.027 356.662 418.611 356.899C419.217 357.158 419.774 357.556 420.282 358.095C420.79 358.655 421.197 359.368 421.502 360.233C421.829 361.098 422.012 362.159 422.052 363.417C422.106 365.123 421.915 366.484 421.478 367.502C421.04 368.519 420.466 369.252 419.755 369.701C419.065 370.172 418.337 370.419 417.569 370.443C416.78 370.469 416.093 370.341 415.508 370.061C414.924 369.802 414.438 369.295 414.051 368.538C413.719 369.51 413.186 370.188 412.451 370.574C411.716 370.961 410.901 371.179 410.006 371.229C408.94 371.262 408.024 370.982 407.258 370.388C406.514 369.792 405.921 368.947 405.481 367.851C405.062 366.754 404.828 365.46 404.781 363.967ZM405.464 375.38C405.458 375.167 405.516 374.994 405.64 374.862C405.764 374.73 405.922 374.661 406.114 374.655L421.466 374.166C421.636 374.161 421.777 374.22 421.888 374.345C422.02 374.49 422.089 374.637 422.094 374.787L422.179 377.473C422.191 377.836 422.019 378.119 421.662 378.322L412.864 383.533L421.976 388.173C422.344 388.354 422.535 388.625 422.546 388.987L422.631 391.642C422.637 391.834 422.578 391.996 422.454 392.128C422.351 392.259 422.215 392.328 422.044 392.333L406.692 392.822C406.5 392.828 406.338 392.769 406.206 392.645C406.074 392.521 406.005 392.353 405.998 392.14L405.91 389.389C405.904 389.176 405.962 389.003 406.086 388.871C406.211 388.761 406.369 388.702 406.561 388.696L418.171 388.326L417.989 389.645L409.106 385.189C408.911 385.089 408.726 384.967 408.55 384.823C408.396 384.678 408.315 384.467 408.306 384.19L408.273 383.135C408.264 382.879 408.333 382.674 408.477 382.52C408.622 382.366 408.799 382.232 409.009 382.119L417.241 377.214L417.471 378.424L406.245 378.781C406.053 378.787 405.891 378.728 405.759 378.604C405.627 378.481 405.558 378.323 405.552 378.131L405.464 375.38Z" fill="#AA5DE6"/>
<path d="M491.08 467.014C490.873 467.063 490.682 467.042 490.507 466.952C490.327 466.841 490.21 466.672 490.156 466.443L485.362 446.17C485.308 445.942 485.337 445.738 485.448 445.558C485.559 445.379 485.718 445.264 485.925 445.215L488.759 444.545C488.988 444.491 489.181 444.522 489.34 444.638C489.52 444.749 489.637 444.918 489.691 445.147L491.591 453.181L494.3 452.54L497.424 443.088C497.489 442.897 497.592 442.73 497.734 442.587C497.896 442.439 498.122 442.331 498.413 442.262L501.496 441.533C501.704 441.484 501.874 441.509 502.007 441.609C502.161 441.704 502.26 441.845 502.305 442.032C502.329 442.136 502.317 442.271 502.268 442.435L498.629 453.325L507.491 462.015C507.568 462.063 507.626 462.17 507.665 462.336C507.709 462.523 507.676 462.706 507.565 462.885C507.475 463.06 507.326 463.172 507.118 463.221L503.911 463.98C503.641 464.044 503.418 464.03 503.244 463.94C503.09 463.845 502.959 463.756 502.851 463.671L495.376 456.396L492.511 457.074L494.485 465.42C494.534 465.627 494.503 465.821 494.392 466.001C494.302 466.175 494.143 466.29 493.914 466.344L491.08 467.014ZM517.145 461.179C515.484 461.572 514.014 461.612 512.735 461.301C511.476 460.985 510.421 460.369 509.568 459.452C508.737 458.531 508.112 457.374 507.696 455.982C507.586 455.613 507.468 455.159 507.34 454.619C507.213 454.079 507.115 453.62 507.048 453.242C506.792 451.79 506.842 450.473 507.199 449.293C507.571 448.087 508.249 447.061 509.233 446.214C510.237 445.363 511.549 444.746 513.168 444.363C514.788 443.98 516.227 443.946 517.485 444.263C518.765 444.574 519.83 445.188 520.683 446.104C521.551 446.995 522.196 448.147 522.618 449.56C522.727 449.928 522.846 450.383 522.973 450.922C523.101 451.462 523.199 451.921 523.266 452.3C523.517 453.731 523.467 455.048 523.115 456.249C522.784 457.445 522.116 458.469 521.112 459.32C520.128 460.167 518.806 460.786 517.145 461.179ZM516.416 458.096C517.516 457.836 518.287 457.292 518.727 456.464C519.162 455.616 519.251 454.51 518.994 453.146C518.941 452.829 518.856 452.422 518.738 451.924C518.62 451.426 518.514 451.023 518.42 450.717C518.038 449.382 517.466 448.443 516.701 447.901C515.933 447.337 514.998 447.185 513.898 447.446C512.797 447.706 512.029 448.26 511.594 449.108C511.154 449.936 511.063 451.032 511.32 452.396C511.372 452.712 511.458 453.119 511.576 453.618C511.693 454.116 511.8 454.518 511.894 454.825C512.275 456.16 512.851 457.109 513.62 457.672C514.384 458.215 515.316 458.356 516.416 458.096ZM529.023 458.041C528.816 458.09 528.635 458.067 528.481 457.972C528.327 457.877 528.228 457.736 528.184 457.549L524.649 442.601C524.61 442.435 524.64 442.286 524.74 442.152C524.856 441.993 524.986 441.897 525.132 441.862L527.748 441.244C528.1 441.16 528.412 441.273 528.682 441.582L535.54 449.167L538.274 439.314C538.377 438.916 538.605 438.676 538.958 438.593L541.543 437.981C541.73 437.937 541.9 437.963 542.054 438.058C542.203 438.132 542.298 438.252 542.337 438.418L545.872 453.366C545.916 453.553 545.891 453.723 545.795 453.878C545.7 454.032 545.549 454.133 545.341 454.182L542.663 454.816C542.456 454.865 542.275 454.842 542.121 454.747C541.987 454.646 541.899 454.503 541.855 454.316L539.181 443.012L540.51 442.928L537.911 452.519C537.852 452.731 537.769 452.937 537.663 453.137C537.552 453.317 537.361 453.439 537.091 453.503L536.064 453.746C535.815 453.804 535.6 453.778 535.421 453.667C535.241 453.557 535.075 453.41 534.922 453.226L528.477 446.135L529.616 445.669L532.201 456.599C532.245 456.786 532.22 456.956 532.124 457.11C532.029 457.264 531.888 457.364 531.702 457.408L529.023 458.041ZM550.919 452.863C550.712 452.912 550.531 452.889 550.377 452.794C550.223 452.699 550.124 452.558 550.08 452.371L546.545 437.423C546.506 437.257 546.536 437.108 546.636 436.974C546.752 436.815 546.882 436.719 547.028 436.684L549.644 436.066C549.997 435.982 550.308 436.095 550.578 436.404L557.436 443.989L560.17 434.136C560.273 433.738 560.501 433.498 560.854 433.415L563.439 432.803C563.626 432.759 563.796 432.785 563.95 432.88C564.1 432.954 564.194 433.074 564.233 433.24L567.768 448.188C567.812 448.375 567.787 448.545 567.691 448.699C567.596 448.854 567.445 448.955 567.237 449.004L564.559 449.637C564.352 449.687 564.171 449.664 564.017 449.568C563.884 449.468 563.795 449.325 563.751 449.138L561.077 437.834L562.406 437.75L559.807 447.341C559.748 447.553 559.665 447.759 559.559 447.959C559.448 448.139 559.257 448.261 558.988 448.324L557.96 448.568C557.711 448.626 557.496 448.6 557.317 448.489C557.137 448.378 556.971 448.231 556.818 448.048L550.373 440.957L551.512 440.491L554.097 451.421C554.141 451.608 554.116 451.778 554.021 451.932C553.925 452.086 553.784 452.186 553.598 452.23L550.919 452.863ZM574.682 453.491C574.474 453.54 574.281 453.51 574.101 453.399C573.926 453.308 573.812 453.149 573.758 452.921L573.338 451.146C573.284 450.917 573.312 450.713 573.423 450.534C573.539 450.375 573.701 450.271 573.909 450.222L574.874 449.993C575.289 449.895 575.612 449.731 575.843 449.501C576.073 449.271 576.256 448.932 576.391 448.484C576.531 448.056 576.658 447.478 576.77 446.75L579.558 429.616C579.602 429.431 579.674 429.271 579.774 429.138C579.869 428.984 580.041 428.877 580.29 428.818L582.657 428.259C582.823 428.219 582.983 428.247 583.137 428.342C583.312 428.433 583.419 428.561 583.458 428.727C583.478 428.81 583.485 428.885 583.479 428.952C583.493 429.015 583.484 429.115 583.452 429.255L580.878 444.792C580.736 445.768 580.554 446.71 580.33 447.618C580.132 448.542 579.86 449.384 579.514 450.146C579.193 450.923 578.753 451.564 578.193 452.069C577.638 452.595 576.924 452.961 576.052 453.167L574.682 453.491ZM577.204 446.22L567.414 433.047C567.282 432.859 567.206 432.724 567.186 432.641C567.163 432.449 567.199 432.276 567.294 432.122C567.384 431.947 567.522 431.838 567.709 431.794L570.201 431.204C570.45 431.146 570.641 431.166 570.774 431.266C570.928 431.361 571.054 431.474 571.15 431.605L578.79 442.359L577.204 446.22ZM590.638 443.47C590.43 443.519 590.237 443.489 590.057 443.378C589.877 443.267 589.763 443.107 589.714 442.9L586.238 428.201C586.189 427.994 586.22 427.8 586.331 427.62C586.442 427.44 586.601 427.326 586.809 427.277L589.393 426.666C589.622 426.612 589.815 426.643 589.974 426.759C590.154 426.87 590.268 427.029 590.317 427.236L591.636 432.811L598.673 431.146L597.355 425.572C597.306 425.364 597.337 425.171 597.448 424.991C597.559 424.811 597.718 424.697 597.926 424.648L600.511 424.037C600.718 423.988 600.912 424.019 601.092 424.129C601.271 424.24 601.386 424.4 601.435 424.607L604.911 439.306C604.96 439.514 604.929 439.707 604.818 439.887C604.707 440.067 604.548 440.181 604.34 440.23L601.755 440.841C601.548 440.89 601.354 440.859 601.174 440.748C600.995 440.638 600.88 440.478 600.831 440.271L599.447 434.416L592.409 436.08L593.793 441.935C593.842 442.143 593.811 442.336 593.701 442.516C593.61 442.691 593.451 442.805 593.223 442.859L590.638 443.47ZM610.009 438.889C609.822 438.934 609.639 438.9 609.459 438.789C609.28 438.678 609.168 438.529 609.124 438.343L605.64 423.613C605.591 423.405 605.622 423.212 605.733 423.032C605.844 422.852 606.003 422.738 606.211 422.689L608.796 422.077C609.024 422.023 609.218 422.054 609.377 422.17C609.556 422.281 609.671 422.44 609.72 422.648L612.629 434.949L611.355 434.428L617.135 420.632C617.204 420.462 617.291 420.32 617.396 420.208C617.496 420.075 617.65 419.984 617.858 419.934L620.224 419.375C620.411 419.331 620.595 419.364 620.774 419.475C620.949 419.565 621.058 419.704 621.103 419.89L624.593 434.651C624.642 434.859 624.611 435.053 624.501 435.232C624.39 435.412 624.23 435.526 624.023 435.575L621.438 436.187C621.21 436.241 621.006 436.212 620.826 436.101C620.667 435.985 620.563 435.824 620.514 435.616L617.738 423.876L618.927 423.759L613.099 437.633C613.045 437.777 612.958 437.918 612.837 438.056C612.737 438.189 612.584 438.281 612.376 438.33L610.009 438.889ZM629.443 434.294C629.235 434.343 629.041 434.312 628.862 434.201C628.682 434.09 628.568 433.931 628.519 433.723L625.043 419.024C624.994 418.817 625.024 418.623 625.135 418.444C625.246 418.264 625.406 418.149 625.613 418.1L628.167 417.496C628.374 417.447 628.568 417.478 628.748 417.589C628.927 417.7 629.042 417.86 629.091 418.067L630.409 423.641L632.651 423.111L635.073 416.389C635.122 416.224 635.199 416.086 635.304 415.973C635.425 415.835 635.599 415.739 635.828 415.685L638.599 415.029C638.807 414.98 638.985 414.993 639.134 415.067C639.283 415.142 639.377 415.262 639.417 415.428C639.431 415.49 639.428 415.568 639.406 415.661C639.4 415.728 639.384 415.798 639.357 415.87L636.485 423.75L643.384 429.978C643.517 430.078 643.601 430.2 643.635 430.346C643.674 430.512 643.644 430.661 643.544 430.795C643.444 430.928 643.3 431.017 643.114 431.061L639.968 431.805C639.761 431.854 639.574 431.854 639.41 431.805C639.265 431.752 639.124 431.664 638.986 431.544L633.432 426.412L631.19 426.942L632.567 432.766C632.616 432.973 632.585 433.167 632.474 433.347C632.363 433.526 632.204 433.641 631.996 433.69L629.443 434.294ZM651.262 429.463C650.182 429.718 649.157 429.741 648.187 429.532C647.212 429.302 646.382 428.896 645.696 428.313C645.026 427.704 644.585 426.953 644.374 426.061C644.03 424.607 644.35 423.315 645.332 422.184C646.309 421.032 647.718 420.085 649.559 419.343L653.678 417.711L653.524 417.057C653.317 416.185 652.94 415.562 652.391 415.188C651.842 414.813 651.038 414.751 649.979 415.002C649.232 415.178 648.656 415.479 648.253 415.903C647.865 416.302 647.615 416.777 647.505 417.33C647.402 417.639 647.196 417.83 646.884 417.904L644.424 418.486C644.196 418.54 644.005 418.519 643.85 418.424C643.717 418.324 643.626 418.17 643.577 417.963C643.519 417.626 643.558 417.189 643.695 416.652C643.852 416.111 644.138 415.561 644.554 415.002C644.986 414.418 645.59 413.869 646.368 413.357C647.145 412.844 648.136 412.445 649.34 412.161C650.648 411.851 651.788 411.757 652.759 411.878C653.746 411.974 654.574 412.227 655.241 412.639C655.908 413.052 656.453 413.591 656.874 414.259C657.295 414.927 657.601 415.666 657.792 416.475L660.105 426.254C660.154 426.461 660.123 426.655 660.012 426.835C659.901 427.014 659.742 427.129 659.534 427.178L657.012 427.774C656.783 427.828 656.579 427.8 656.399 427.689C656.241 427.573 656.137 427.411 656.087 427.204L655.8 425.989C655.619 426.427 655.341 426.876 654.968 427.337C654.595 427.798 654.103 428.221 653.493 428.606C652.898 428.966 652.155 429.252 651.262 429.463ZM651.621 426.254C652.348 426.082 652.965 425.772 653.472 425.323C654.001 424.869 654.355 424.281 654.535 423.559C654.731 422.811 654.711 421.939 654.475 420.943L654.321 420.289L651.324 421.523C650.144 422 649.301 422.517 648.797 423.074C648.294 423.632 648.113 424.212 648.255 424.814C648.363 425.271 648.591 425.633 648.94 425.901C649.304 426.144 649.724 426.297 650.199 426.36C650.67 426.402 651.144 426.367 651.621 426.254ZM671.668 424.637C669.945 425.044 668.441 425.082 667.157 424.75C665.889 424.392 664.834 423.688 663.994 422.637C663.154 421.587 662.491 420.22 662.005 418.537C661.863 417.935 661.715 417.312 661.563 416.669C661.411 416.025 661.264 415.402 661.121 414.8C660.731 412.963 660.549 411.406 660.576 410.128C660.618 408.825 660.868 407.703 661.325 406.762C661.777 405.8 662.45 404.939 663.345 404.179C664.234 403.399 665.328 402.647 666.626 401.924C667.923 401.2 669.434 400.405 671.158 399.537C671.356 399.446 671.55 399.433 671.741 399.498C671.952 399.557 672.095 399.699 672.17 399.922L673.061 401.882C673.151 402.08 673.164 402.274 673.1 402.464C673.031 402.634 672.907 402.762 672.73 402.848C671.236 403.574 669.952 404.217 668.879 404.778C667.801 405.318 666.93 405.853 666.266 406.382C665.602 406.912 665.121 407.519 664.823 408.203C664.54 408.862 664.424 409.668 664.473 410.621C664.523 411.573 664.749 412.759 665.15 414.176L664.294 413.754C664.266 413.081 664.448 412.413 664.839 411.751C665.231 411.088 665.763 410.513 666.437 410.025C667.127 409.511 667.897 409.153 668.748 408.952C670.243 408.598 671.565 408.582 672.715 408.902C673.865 409.222 674.83 409.826 675.61 410.716C676.407 411.58 676.995 412.679 677.377 414.014C677.595 414.752 677.757 415.437 677.863 416.069C678.115 417.413 678.06 418.664 677.698 419.824C677.337 420.984 676.662 421.976 675.673 422.802C674.685 423.628 673.35 424.239 671.668 424.637ZM670.991 421.772C672.112 421.507 672.892 420.961 673.332 420.133C673.772 419.306 673.859 418.233 673.591 416.915C673.558 416.682 673.504 416.41 673.43 416.098C673.352 415.766 673.268 415.457 673.178 415.171C672.828 413.873 672.27 412.953 671.506 412.41C670.763 411.862 669.903 411.704 668.927 411.935C667.806 412.2 666.984 412.756 666.461 413.603C665.959 414.445 665.842 415.525 666.109 416.843C666.157 417.139 666.221 417.452 666.299 417.785C666.373 418.096 666.447 418.364 666.522 418.587C666.873 419.885 667.43 420.805 668.194 421.348C668.958 421.891 669.89 422.032 670.991 421.772ZM689.907 420.324C687.602 420.869 685.618 420.637 683.955 419.627C682.291 418.617 681.118 416.9 680.435 414.475C680.365 414.272 680.293 414.015 680.219 413.704C680.141 413.371 680.09 413.109 680.066 412.918C679.776 411.32 679.81 409.887 680.168 408.619C680.541 407.325 681.218 406.244 682.196 405.377C683.17 404.489 684.415 403.866 685.93 403.508C687.612 403.11 689.107 403.129 690.416 403.565C691.72 403.98 692.809 404.742 693.685 405.85C694.556 406.937 695.183 408.291 695.566 409.91L695.721 410.564C695.77 410.772 695.739 410.965 695.628 411.145C695.517 411.325 695.347 411.441 695.119 411.495L684.78 413.94C684.78 413.94 684.788 413.971 684.802 414.034C684.817 414.096 684.829 414.148 684.839 414.189C685.032 414.911 685.326 415.554 685.723 416.118C686.135 416.656 686.634 417.053 687.221 417.309C687.828 417.56 688.485 417.602 689.191 417.435C689.772 417.298 690.24 417.099 690.596 416.84C690.946 416.56 691.219 416.276 691.414 415.989C691.609 415.701 691.741 415.473 691.811 415.303C691.938 415.01 692.049 414.83 692.143 414.764C692.253 414.672 692.422 414.599 692.651 414.545L695.329 413.912C695.536 413.863 695.717 413.886 695.871 413.981C696.046 414.071 696.145 414.212 696.169 414.404C696.226 414.741 696.146 415.188 695.926 415.744C695.728 416.295 695.382 416.87 694.888 417.469C694.394 418.068 693.727 418.631 692.887 419.159C692.063 419.661 691.07 420.049 689.907 420.324ZM684.162 411.324L691.044 409.697L691.022 409.604C690.83 408.794 690.528 408.12 690.116 407.582C689.699 407.023 689.192 406.638 688.594 406.429C687.992 406.199 687.327 406.17 686.6 406.342C685.874 406.513 685.293 406.837 684.857 407.313C684.417 407.768 684.135 408.338 684.012 409.025C683.906 409.686 683.948 410.421 684.14 411.231L684.162 411.324ZM700.18 417.566C699.952 417.62 699.748 417.591 699.568 417.48C699.389 417.369 699.272 417.199 699.218 416.971L698.761 415.04C698.653 414.584 698.833 414.278 699.301 414.124C699.914 413.935 700.343 413.526 700.589 412.898C700.835 412.27 700.909 411.376 700.81 410.215C700.727 409.029 700.471 407.533 700.044 405.727L699.05 401.523C699.001 401.315 699.022 401.124 699.112 400.949C699.223 400.77 699.392 400.653 699.621 400.599L710.676 397.985C710.883 397.936 711.077 397.966 711.257 398.077C711.436 398.188 711.551 398.348 711.6 398.555L715.076 413.254C715.125 413.461 715.094 413.655 714.983 413.835C714.872 414.014 714.713 414.129 714.505 414.178L711.921 414.789C711.692 414.843 711.488 414.815 711.308 414.704C711.15 414.588 711.046 414.426 710.996 414.219L708.124 402.074L703.547 403.156L704.04 405.243C704.511 407.236 704.797 408.955 704.898 410.4C705.014 411.819 704.914 413.015 704.596 413.989C704.294 414.938 703.775 415.707 703.037 416.298C702.316 416.863 701.364 417.286 700.18 417.566ZM720.19 412.834C719.982 412.883 719.788 412.852 719.609 412.741C719.429 412.63 719.315 412.471 719.266 412.263L715.79 397.564C715.741 397.357 715.772 397.163 715.882 396.984C715.993 396.804 716.153 396.689 716.36 396.64L718.976 396.022C719.184 395.973 719.377 396.004 719.557 396.115C719.737 396.225 719.851 396.385 719.9 396.592L720.939 400.983L724.146 400.225C726.264 399.724 727.97 399.847 729.264 400.593C730.559 401.339 731.412 402.584 731.825 404.328C732.252 406.134 732.002 407.629 731.077 408.812C730.151 409.996 728.629 410.838 726.511 411.339L720.19 412.834ZM722.791 409.095L725.718 408.402C726.736 408.162 727.439 407.798 727.828 407.312C728.238 406.82 728.335 406.118 728.119 405.204C727.908 404.311 727.512 403.704 726.931 403.381C726.371 403.053 725.562 403.014 724.503 403.264L721.576 403.956L722.791 409.095ZM736.703 408.929C736.495 408.978 736.302 408.947 736.122 408.836C735.942 408.725 735.828 408.566 735.779 408.358L732.303 393.659C732.254 393.452 732.285 393.258 732.396 393.078C732.507 392.899 732.666 392.784 732.874 392.735L735.458 392.124C735.687 392.07 735.88 392.101 736.039 392.217C736.219 392.328 736.333 392.487 736.382 392.695L737.701 398.269L744.739 396.605L743.42 391.03C743.371 390.823 743.402 390.629 743.513 390.449C743.624 390.27 743.783 390.155 743.991 390.106L746.576 389.495C746.783 389.446 746.977 389.477 747.157 389.588C747.336 389.699 747.451 389.858 747.5 390.066L750.976 404.764C751.025 404.972 750.994 405.165 750.883 405.345C750.772 405.525 750.613 405.639 750.405 405.688L747.82 406.3C747.613 406.349 747.419 406.318 747.239 406.207C747.06 406.096 746.945 405.936 746.896 405.729L745.512 399.874L738.474 401.539L739.858 407.393C739.907 407.601 739.877 407.794 739.766 407.974C739.675 408.149 739.516 408.263 739.288 408.317L736.703 408.929ZM762.594 403.135C760.933 403.527 759.463 403.568 758.184 403.257C756.925 402.941 755.87 402.324 755.017 401.408C754.186 400.487 753.561 399.33 753.144 397.938C753.035 397.569 752.917 397.115 752.789 396.575C752.662 396.035 752.564 395.576 752.496 395.197C752.241 393.745 752.291 392.429 752.648 391.249C753.02 390.043 753.698 389.016 754.682 388.17C755.686 387.319 756.998 386.701 758.617 386.318C760.237 385.936 761.676 385.902 762.934 386.218C764.214 386.53 765.279 387.143 766.132 388.06C767 388.951 767.645 390.102 768.067 391.515C768.176 391.884 768.295 392.338 768.422 392.878C768.55 393.418 768.647 393.877 768.715 394.256C768.966 395.687 768.915 397.003 768.564 398.204C768.233 399.401 767.565 400.425 766.561 401.276C765.577 402.122 764.255 402.742 762.594 403.135ZM761.865 400.052C762.965 399.791 763.736 399.248 764.176 398.42C764.611 397.572 764.7 396.466 764.443 395.102C764.39 394.785 764.305 394.378 764.187 393.88C764.069 393.381 763.963 392.979 763.869 392.673C763.487 391.338 762.914 390.399 762.15 389.856C761.381 389.293 760.447 389.141 759.346 389.401C758.246 389.662 757.478 390.216 757.043 391.064C756.603 391.892 756.512 392.987 756.768 394.352C756.821 394.668 756.907 395.075 757.025 395.573C757.142 396.072 757.248 396.474 757.343 396.781C757.724 398.115 758.299 399.064 759.068 399.628C759.833 400.171 760.765 400.312 761.865 400.052ZM780.868 398.813C779.373 399.167 777.988 399.198 776.714 398.908C775.46 398.612 774.386 398.011 773.492 397.105C772.614 396.172 771.965 394.956 771.544 393.455C771.45 393.149 771.344 392.746 771.226 392.248C771.103 391.729 771.013 391.301 770.955 390.964C770.659 389.434 770.697 388.065 771.07 386.859C771.458 385.628 772.146 384.599 773.135 383.773C774.144 382.943 775.396 382.351 776.891 381.997C778.22 381.683 779.395 381.602 780.418 381.755C781.435 381.887 782.314 382.172 783.054 382.611C783.788 383.029 784.375 383.516 784.812 384.07C785.266 384.598 785.562 385.109 785.701 385.602C785.776 385.826 785.747 386.03 785.616 386.214C785.5 386.373 785.338 386.477 785.13 386.526L782.39 387.175C782.182 387.224 782.004 387.211 781.855 387.137C781.727 387.057 781.586 386.926 781.433 386.743C780.925 385.986 780.373 385.503 779.775 385.294C779.193 385.059 778.508 385.034 777.719 385.221C776.681 385.467 775.929 385.995 775.463 386.807C775.014 387.593 774.935 388.696 775.227 390.118C775.372 390.917 775.544 391.643 775.743 392.298C776.123 393.721 776.69 394.682 777.444 395.184C778.219 395.68 779.126 395.805 780.164 395.56C780.974 395.368 781.588 395.048 782.008 394.598C782.423 394.127 782.688 393.44 782.803 392.535C782.857 392.303 782.924 392.123 783.004 391.995C783.104 391.861 783.258 391.77 783.465 391.721L786.206 391.073C786.413 391.024 786.607 391.055 786.787 391.166C786.982 391.251 787.096 391.41 787.13 391.644C787.197 392.022 787.194 392.472 787.12 392.994C787.062 393.49 786.895 394.034 786.618 394.625C786.357 395.191 785.985 395.751 785.502 396.303C785.014 396.835 784.385 397.324 783.613 397.769C782.862 398.21 781.947 398.558 780.868 398.813ZM796.529 394.781C796.301 394.835 796.097 394.806 795.917 394.695C795.758 394.579 795.654 394.418 795.605 394.21L792.733 382.065L787.657 383.265C787.429 383.32 787.225 383.291 787.045 383.18C786.886 383.064 786.78 382.892 786.725 382.664L786.306 380.889C786.257 380.681 786.277 380.49 786.367 380.315C786.478 380.135 786.648 380.019 786.876 379.965L801.014 376.621C801.243 376.567 801.447 376.596 801.627 376.707C801.806 376.818 801.921 376.977 801.97 377.184L802.389 378.959C802.443 379.188 802.415 379.392 802.304 379.572C802.193 379.751 802.023 379.868 801.795 379.922L796.75 381.115L799.622 393.26C799.671 393.468 799.64 393.661 799.529 393.841C799.419 394.021 799.259 394.135 799.052 394.184L796.529 394.781ZM808.838 391.87C808.631 391.919 808.437 391.888 808.257 391.777C808.078 391.666 807.963 391.507 807.914 391.299L804.438 376.601C804.389 376.393 804.42 376.199 804.531 376.02C804.642 375.84 804.801 375.726 805.009 375.677L807.625 375.058C807.832 375.009 808.026 375.04 808.206 375.151C808.385 375.262 808.5 375.421 808.549 375.629L809.587 380.019L812.795 379.261C814.912 378.76 816.618 378.883 817.913 379.629C819.207 380.375 820.061 381.62 820.473 383.364C820.9 385.17 820.651 386.665 819.725 387.849C818.799 389.032 817.278 389.874 815.16 390.375L808.838 391.87ZM811.44 388.131L814.367 387.439C815.384 387.198 816.088 386.834 816.477 386.348C816.887 385.856 816.983 385.154 816.767 384.24C816.556 383.348 816.16 382.74 815.58 382.417C815.02 382.089 814.211 382.05 813.152 382.3L810.225 382.993L811.44 388.131Z" fill="#AA5DE6"/>
<path d="M148.115 771.108C147.973 771.266 147.803 771.344 147.607 771.34C147.424 771.319 147.268 771.222 147.138 771.048L142.579 764.818C142.561 765.318 142.426 765.869 142.172 766.472C141.918 767.075 141.596 767.675 141.206 768.27C140.83 768.85 140.435 769.37 140.023 769.831C138.315 771.738 136.627 772.647 134.961 772.557C133.292 772.438 131.724 771.391 130.255 769.417L125.917 763.47C125.786 763.296 125.722 763.095 125.725 762.869C125.727 762.642 125.807 762.441 125.964 762.266L127.885 760.121C128.041 759.946 128.211 759.869 128.393 759.889C128.59 759.893 128.754 759.982 128.884 760.156L133.099 765.907C133.865 766.937 134.635 767.469 135.407 767.502C136.194 767.519 137.1 766.956 138.124 765.811C138.395 765.509 138.677 765.146 138.971 764.722C139.249 764.284 139.473 763.826 139.643 763.348C139.811 762.84 139.889 762.337 139.877 761.84C139.865 761.342 139.703 760.882 139.393 760.461L134.563 753.816C134.432 753.641 134.368 753.441 134.371 753.214C134.373 752.987 134.446 752.795 134.588 752.636L136.531 750.466C136.688 750.292 136.857 750.214 137.039 750.234C137.236 750.239 137.4 750.328 137.53 750.502L150.105 767.735C150.235 767.909 150.299 768.109 150.297 768.336C150.294 768.563 150.215 768.764 150.058 768.938L148.115 771.108ZM158.911 759.532C157.872 760.692 156.774 761.455 155.616 761.821C154.472 762.171 153.327 762.106 152.183 761.625C151.053 761.128 149.96 760.222 148.906 758.905C148.775 758.731 148.612 758.513 148.416 758.252C148.205 757.977 148.049 757.751 147.949 757.575C147.041 756.19 146.45 754.772 146.173 753.322C145.897 751.872 145.955 750.464 146.348 749.097C146.74 747.701 147.455 746.423 148.494 745.263C149.647 743.975 150.828 743.2 152.037 742.937C153.23 742.66 154.411 742.829 155.578 743.445C156.743 744.03 157.839 744.997 158.865 746.346L159.259 746.913C159.389 747.087 159.446 747.296 159.429 747.538C159.426 747.765 159.347 747.966 159.19 748.141L152.103 756.055C152.103 756.055 152.119 756.084 152.153 756.143C152.2 756.185 152.233 756.229 152.251 756.273C152.736 756.851 153.259 757.305 153.821 757.637C154.368 757.954 154.926 758.082 155.497 758.021C156.082 757.943 156.616 757.634 157.1 757.094C157.499 756.649 157.784 756.203 157.955 755.755C158.111 755.293 158.194 754.881 158.205 754.517C158.229 754.138 158.235 753.843 158.224 753.633C158.204 753.271 158.221 753.028 158.274 752.905C158.312 752.767 158.409 752.61 158.566 752.435L160.423 750.361C160.551 750.218 160.698 750.15 160.865 750.156C161.031 750.162 161.172 750.245 161.287 750.405C161.47 750.712 161.602 751.188 161.683 751.833C161.763 752.478 161.737 753.228 161.602 754.081C161.468 754.934 161.186 755.841 160.755 756.802C160.323 757.732 159.708 758.642 158.911 759.532ZM150.484 753.832L155.202 748.564L155.152 748.476C154.675 747.762 154.149 747.263 153.574 746.977C153.014 746.675 152.442 746.579 151.858 746.686C151.275 746.794 150.742 747.118 150.258 747.658C149.76 748.214 149.446 748.836 149.318 749.523C149.19 750.21 149.221 750.911 149.411 751.625C149.602 752.34 149.943 753.046 150.434 753.745L150.484 753.832ZM165.745 751.423C165.588 751.597 165.418 751.675 165.236 751.654C165.039 751.65 164.868 751.554 164.722 751.366L163.521 749.732C163.257 749.324 163.266 748.93 163.547 748.552C163.942 748.047 164.104 747.419 164.032 746.667C163.961 745.916 163.638 744.997 163.064 743.91C162.475 742.81 161.617 741.497 160.491 739.973L157.892 736.4C157.761 736.226 157.697 736.025 157.7 735.799C157.703 735.572 157.782 735.371 157.939 735.196L165.517 726.734C165.66 726.575 165.822 726.505 166.004 726.526C166.201 726.53 166.365 726.619 166.495 726.793L175.59 739.277C175.735 739.435 175.799 739.636 175.782 739.879C175.78 740.105 175.707 740.298 175.565 740.457L173.793 742.436C173.636 742.61 173.467 742.688 173.284 742.668C173.102 742.647 172.938 742.558 172.794 742.4L165.29 732.072L162.152 735.576L163.45 737.34C164.677 739.04 165.645 740.565 166.354 741.916C167.047 743.253 167.484 744.475 167.666 745.583C167.847 746.661 167.775 747.685 167.45 748.654C167.124 749.594 166.556 750.517 165.745 751.423ZM184.032 731.482C182.951 732.69 181.824 733.499 180.654 733.911C179.497 734.308 178.357 734.317 177.233 733.941C176.124 733.549 175.107 732.782 174.183 731.639C173.94 731.335 173.647 730.959 173.305 730.509C172.977 730.044 172.706 729.643 172.491 729.308C171.651 728.04 171.096 726.756 170.828 725.456C170.559 724.126 170.614 722.801 170.995 721.481C171.389 720.145 172.156 718.841 173.295 717.57C174.376 716.362 175.495 715.56 176.652 715.164C177.823 714.752 178.97 714.734 180.094 715.11C181.201 715.472 182.225 716.232 183.165 717.389C183.394 717.708 183.68 718.093 184.022 718.543C184.364 718.992 184.642 719.385 184.857 719.72C185.682 720.974 186.236 722.258 186.52 723.572C186.818 724.87 186.77 726.187 186.375 727.523C185.994 728.843 185.214 730.163 184.032 731.482ZM181.886 729.13C182.654 728.272 183.04 727.314 183.042 726.256C183.042 725.168 182.647 724.027 181.856 722.832C181.675 722.555 181.429 722.205 181.119 721.784C180.808 721.363 180.555 721.022 180.36 720.761C179.499 719.675 178.656 719.05 177.831 718.884C177.006 718.718 176.21 719.064 175.441 719.922C174.687 720.764 174.309 721.729 174.309 722.817C174.308 723.905 174.703 725.031 175.492 726.196C175.674 726.473 175.912 726.83 176.208 727.267C176.519 727.688 176.779 728.021 176.989 728.267C177.865 729.367 178.709 730.007 179.519 730.189C180.328 730.341 181.117 729.988 181.886 729.13ZM192.095 722C191.952 722.159 191.783 722.236 191.586 722.232C191.404 722.211 191.247 722.114 191.117 721.94L182.022 709.456C181.891 709.282 181.827 709.082 181.83 708.855C181.832 708.628 181.905 708.435 182.047 708.276L186.787 702.984C188.238 701.363 189.573 700.497 190.79 700.384C192.008 700.272 193.034 700.804 193.87 701.982C194.392 702.679 194.703 703.387 194.803 704.106C194.901 704.796 194.865 705.508 194.694 706.243C195.21 706.018 195.711 705.922 196.196 705.956C196.682 705.989 197.135 706.138 197.558 706.402C197.979 706.636 198.345 706.978 198.657 707.429C199.588 708.692 199.93 710.101 199.683 711.656C199.42 713.196 198.549 714.793 197.069 716.445L192.095 722ZM192.575 717.146L195.308 714.095C195.863 713.475 196.213 712.844 196.359 712.201C196.519 711.543 196.395 710.93 195.986 710.364C195.561 709.783 195.094 709.537 194.586 709.625C194.077 709.714 193.516 710.099 192.904 710.783L190.15 713.858L192.575 717.146ZM188.36 711.396L190.837 708.631C191.378 708.027 191.699 707.412 191.8 706.787C191.886 706.148 191.717 705.553 191.294 705.002C190.885 704.435 190.45 704.218 189.989 704.349C189.512 704.466 189.01 704.818 188.484 705.406L186.007 708.171L188.36 711.396ZM209.134 703.453C208.095 704.613 206.997 705.376 205.839 705.742C204.695 706.092 203.55 706.026 202.406 705.546C201.276 705.049 200.183 704.142 199.129 702.825C198.998 702.651 198.835 702.434 198.639 702.172C198.428 701.897 198.272 701.671 198.172 701.496C197.264 700.11 196.673 698.693 196.396 697.242C196.12 695.792 196.178 694.384 196.571 693.018C196.963 691.621 197.678 690.343 198.717 689.183C199.87 687.896 201.051 687.121 202.26 686.858C203.453 686.58 204.634 686.749 205.801 687.365C206.966 687.95 208.062 688.917 209.088 690.266L209.482 690.833C209.612 691.008 209.669 691.216 209.652 691.459C209.649 691.685 209.57 691.886 209.413 692.061L202.326 699.975C202.326 699.975 202.342 700.004 202.376 700.063C202.423 700.106 202.456 700.149 202.474 700.194C202.959 700.771 203.482 701.226 204.044 701.557C204.591 701.875 205.149 702.003 205.72 701.941C206.305 701.863 206.839 701.555 207.323 701.014C207.722 700.569 208.007 700.123 208.178 699.675C208.334 699.214 208.417 698.801 208.428 698.438C208.452 698.059 208.458 697.764 208.447 697.553C208.427 697.192 208.444 696.949 208.497 696.825C208.535 696.687 208.632 696.531 208.789 696.356L210.646 694.282C210.774 694.139 210.921 694.07 211.088 694.076C211.254 694.082 211.395 694.165 211.51 694.325C211.693 694.632 211.825 695.108 211.905 695.753C211.986 696.399 211.96 697.148 211.825 698.001C211.691 698.855 211.409 699.762 210.978 700.722C210.546 701.652 209.931 702.563 209.134 703.453ZM200.707 697.753L205.425 692.485L205.375 692.397C204.898 691.683 204.372 691.183 203.797 690.897C203.237 690.596 202.665 690.499 202.081 690.607C201.498 690.714 200.964 691.038 200.481 691.579C199.982 692.135 199.669 692.756 199.541 693.443C199.413 694.13 199.444 694.831 199.634 695.546C199.825 696.26 200.166 696.967 200.657 697.665L200.707 697.753ZM223.46 686.977C223.317 687.136 223.148 687.213 222.951 687.209C222.769 687.189 222.612 687.092 222.482 686.917L219.198 682.43C219.135 683.204 218.913 683.979 218.533 684.756C218.137 685.518 217.612 686.264 216.957 686.995C215.719 688.378 214.435 689.076 213.106 689.088C211.778 689.101 210.524 688.294 209.347 686.667L206.235 682.419C206.105 682.245 206.041 682.045 206.043 681.818C206.046 681.591 206.125 681.39 206.282 681.215L208.118 679.165C208.26 679.006 208.423 678.937 208.605 678.957C208.802 678.962 208.965 679.051 209.096 679.225L211.986 683.145C212.543 683.93 213.078 684.323 213.592 684.325C214.12 684.311 214.697 683.955 215.323 683.255C216.049 682.445 216.558 681.669 216.849 680.928C217.141 680.187 217.074 679.526 216.649 678.945L213.387 674.433C213.256 674.259 213.192 674.059 213.195 673.832C213.198 673.605 213.27 673.412 213.412 673.254L215.312 671.132C215.469 670.957 215.638 670.88 215.821 670.9C216.017 670.904 216.181 670.994 216.311 671.168L225.407 683.652C225.537 683.826 225.601 684.026 225.599 684.253C225.596 684.48 225.516 684.681 225.36 684.855L223.46 686.977ZM233.881 675.82C232.842 676.98 231.743 677.743 230.585 678.109C229.441 678.459 228.297 678.394 227.152 677.913C226.022 677.416 224.93 676.51 223.875 675.193C223.745 675.019 223.582 674.801 223.386 674.54C223.175 674.265 223.019 674.039 222.918 673.863C222.011 672.478 221.419 671.06 221.143 669.61C220.867 668.16 220.925 666.752 221.318 665.385C221.709 663.989 222.425 662.711 223.464 661.551C224.616 660.263 225.797 659.488 227.007 659.225C228.2 658.948 229.38 659.117 230.547 659.733C231.713 660.318 232.808 661.285 233.834 662.634L234.228 663.201C234.359 663.375 234.415 663.584 234.399 663.826C234.396 664.053 234.316 664.254 234.16 664.429L227.072 672.343C227.072 672.343 227.089 672.372 227.122 672.431C227.17 672.473 227.203 672.517 227.22 672.561C227.705 673.139 228.229 673.593 228.791 673.925C229.337 674.242 229.896 674.37 230.466 674.309C231.051 674.231 231.586 673.922 232.07 673.382C232.468 672.937 232.753 672.491 232.925 672.043C233.081 671.581 233.164 671.169 233.174 670.805C233.199 670.426 233.205 670.131 233.193 669.921C233.173 669.559 233.19 669.316 233.244 669.193C233.282 669.055 233.379 668.898 233.535 668.723L235.393 666.649C235.521 666.506 235.668 666.438 235.835 666.444C236.001 666.45 236.142 666.533 236.256 666.693C236.439 667 236.571 667.476 236.652 668.121C236.733 668.766 236.706 669.516 236.572 670.369C236.438 671.222 236.155 672.129 235.725 673.09C235.293 674.02 234.678 674.93 233.881 675.82ZM225.454 670.12L230.172 664.852L230.122 664.764C229.644 664.05 229.118 663.551 228.544 663.265C227.983 662.963 227.411 662.867 226.828 662.974C226.245 663.082 225.711 663.406 225.227 663.946C224.729 664.502 224.416 665.124 224.288 665.811C224.159 666.498 224.19 667.199 224.381 667.913C224.571 668.628 224.912 669.334 225.404 670.032L225.454 670.12ZM246.011 662.276C245.057 663.34 244.003 664.086 242.848 664.512C241.708 664.922 240.561 664.955 239.409 664.611C238.241 664.252 237.17 663.45 236.195 662.204C235.999 661.943 235.746 661.602 235.436 661.181C235.11 660.746 234.848 660.383 234.651 660.091C233.303 658.111 232.671 656.114 232.757 654.1C232.826 652.071 233.665 650.159 235.273 648.364C236.17 647.362 237.06 646.656 237.944 646.245C238.842 645.818 239.684 645.613 240.471 645.63C241.272 645.631 241.975 645.774 242.579 646.057C243.199 646.326 243.677 646.654 244.016 647.043C244.177 647.216 244.256 647.415 244.253 647.642C244.249 647.839 244.175 648.017 244.033 648.176L242.09 650.345C241.948 650.504 241.795 650.595 241.63 650.619C241.479 650.628 241.317 650.569 241.144 650.442C240.508 649.873 239.891 649.635 239.292 649.729C238.707 649.806 238.13 650.163 237.56 650.798C236.863 651.577 236.491 652.504 236.445 653.579C236.396 654.624 236.792 655.766 237.63 657.004C237.86 657.324 238.097 657.65 238.342 657.984C238.587 658.318 238.799 658.609 238.979 658.856C239.919 660.013 240.785 660.645 241.576 660.752C242.368 660.86 243.112 660.524 243.809 659.745C244.365 659.126 244.735 658.456 244.922 657.735C245.093 657.001 245.011 656.182 244.674 655.279C244.584 655.027 244.551 654.825 244.572 654.672C244.593 654.49 244.674 654.319 244.816 654.16L246.737 652.015C246.88 651.856 247.042 651.787 247.225 651.807C247.405 651.797 247.562 651.894 247.694 652.098C247.944 652.523 248.172 653.099 248.378 653.828C248.583 654.527 248.68 655.33 248.67 656.237C248.659 657.144 248.448 658.115 248.037 659.15C247.64 660.169 246.965 661.211 246.011 662.276ZM253.742 653.163C253.6 653.322 253.431 653.399 253.234 653.395C253.051 653.375 252.895 653.278 252.765 653.104L243.669 640.62C243.539 640.445 243.475 640.245 243.478 640.018C243.48 639.791 243.553 639.599 243.695 639.44L245.445 637.485C245.588 637.326 245.75 637.257 245.933 637.277C246.129 637.281 246.293 637.37 246.423 637.544L249.879 642.272L251.245 640.746L250.182 632.964C250.142 632.785 250.14 632.611 250.176 632.443C250.21 632.244 250.299 632.066 250.441 631.907L252.469 629.642C252.611 629.483 252.751 629.408 252.887 629.415C253.038 629.407 253.17 629.468 253.282 629.598C253.362 629.669 253.415 629.817 253.443 630.042L254.646 639.539L262.567 641.822C262.629 641.849 262.691 641.875 262.753 641.902C262.815 641.929 262.871 641.979 262.92 642.052C263.033 642.181 263.072 642.345 263.038 642.544C263.018 642.726 262.943 642.889 262.815 643.032L260.937 645.13C260.794 645.289 260.649 645.387 260.5 645.426C260.365 645.448 260.214 645.441 260.045 645.405L253.452 643.367L251.915 645.083L255.519 650.029C255.649 650.203 255.713 650.403 255.71 650.63C255.708 650.857 255.635 651.049 255.493 651.208L253.742 653.163ZM269.66 635.869C268.734 636.902 267.766 637.552 266.753 637.82C265.725 638.073 264.713 637.955 263.72 637.466C262.724 636.946 261.778 636.084 260.88 634.88L255.463 627.451C255.332 627.277 255.268 627.076 255.271 626.849C255.288 626.607 255.367 626.406 255.51 626.247L257.388 624.149C257.531 623.99 257.693 623.921 257.876 623.941C258.058 623.961 258.214 624.059 258.345 624.233L263.662 631.486C264.185 632.213 264.691 632.751 265.179 633.102C265.665 633.423 266.154 633.532 266.647 633.429C267.14 633.326 267.671 632.957 268.24 632.322C269.009 631.463 269.416 630.482 269.46 629.376C269.505 628.271 269.152 627.21 268.401 626.194L263.105 618.917C262.975 618.743 262.911 618.542 262.914 618.315C262.931 618.073 263.01 617.872 263.152 617.713L265.01 615.639C265.166 615.464 265.336 615.387 265.518 615.407C265.701 615.427 265.857 615.525 265.988 615.699L275.104 628.159C275.235 628.333 275.299 628.533 275.296 628.76C275.293 628.987 275.214 629.188 275.057 629.363L273.328 631.293C273.186 631.452 273.016 631.53 272.82 631.525C272.637 631.505 272.481 631.408 272.35 631.234L271.544 630.168C271.596 630.845 271.587 631.495 271.515 632.118C271.458 632.726 271.287 633.332 271.003 633.937C270.734 634.526 270.286 635.17 269.66 635.869ZM282.919 621.064C281.994 622.097 281.025 622.747 280.012 623.014C278.984 623.267 277.973 623.149 276.979 622.66C275.983 622.141 275.037 621.279 274.14 620.074L268.722 612.645C268.592 612.471 268.528 612.271 268.53 612.044C268.547 611.801 268.627 611.6 268.769 611.442L270.648 609.344C270.79 609.185 270.952 609.115 271.135 609.136C271.317 609.156 271.474 609.253 271.604 609.427L276.921 616.68C277.445 617.407 277.95 617.946 278.438 618.297C278.924 618.617 279.414 618.726 279.906 618.624C280.399 618.521 280.93 618.152 281.5 617.516C282.268 616.658 282.675 615.676 282.72 614.571C282.765 613.465 282.412 612.405 281.661 611.388L276.365 604.111C276.234 603.937 276.17 603.737 276.173 603.51C276.19 603.267 276.27 603.066 276.412 602.908L278.269 600.834C278.426 600.659 278.595 600.582 278.778 600.602C278.96 600.622 279.116 600.719 279.247 600.893L288.364 613.353C288.494 613.527 288.558 613.728 288.555 613.955C288.553 614.181 288.473 614.382 288.317 614.557L286.587 616.488C286.445 616.647 286.276 616.724 286.079 616.72C285.896 616.7 285.74 616.603 285.61 616.428L284.803 615.362C284.855 616.039 284.846 616.69 284.775 617.313C284.717 617.92 284.547 618.527 284.263 619.131C283.993 619.72 283.545 620.364 282.919 621.064ZM271.952 604.626C271.14 605.532 270.356 606.104 269.599 606.342C268.841 606.58 268.146 606.573 267.513 606.321C266.878 606.039 266.332 605.593 265.875 604.984C265.777 604.838 265.73 604.682 265.736 604.516C265.726 604.335 265.785 604.173 265.913 604.03L267.152 602.647C267.28 602.504 267.42 602.444 267.572 602.465C267.708 602.473 267.826 602.55 267.925 602.695C268.104 602.942 268.305 603.15 268.526 603.319C268.761 603.473 269.028 603.526 269.328 603.479C269.611 603.418 269.945 603.173 270.329 602.744C270.913 602.093 271.212 601.487 271.227 600.927C271.239 600.337 271.099 599.854 270.807 599.477C270.708 599.332 270.662 599.175 270.668 599.009C270.658 598.828 270.717 598.666 270.845 598.523L272.083 597.141C272.211 596.998 272.351 596.937 272.504 596.959C272.64 596.966 272.757 597.043 272.856 597.189C273.299 597.814 273.609 598.522 273.789 599.313C273.953 600.089 273.901 600.931 273.633 601.837C273.38 602.727 272.82 603.657 271.952 604.626ZM297.315 604.51C297.172 604.668 297.003 604.746 296.806 604.741C296.624 604.721 296.467 604.624 296.337 604.45L287.242 591.966C287.111 591.792 287.047 591.591 287.05 591.365C287.053 591.138 287.125 590.945 287.267 590.786L296.404 580.584C296.561 580.409 296.73 580.331 296.913 580.352C297.11 580.356 297.273 580.445 297.404 580.619L306.499 593.103C306.629 593.277 306.693 593.478 306.691 593.705C306.688 593.931 306.608 594.132 306.452 594.307L304.68 596.285C304.538 596.444 304.368 596.522 304.171 596.517C303.989 596.497 303.833 596.4 303.702 596.226L296.177 585.922L291.609 591.023L299.134 601.327C299.264 601.501 299.328 601.702 299.325 601.929C299.323 602.155 299.243 602.356 299.087 602.531L297.315 604.51ZM314.916 585.335C313.835 586.543 312.708 587.353 311.538 587.765C310.381 588.161 309.241 588.171 308.117 587.794C307.008 587.402 305.991 586.635 305.067 585.492C304.824 585.188 304.531 584.812 304.189 584.362C303.861 583.897 303.59 583.496 303.375 583.161C302.535 581.893 301.981 580.609 301.713 579.309C301.443 577.979 301.498 576.654 301.879 575.334C302.273 573.998 303.04 572.694 304.179 571.423C305.26 570.215 306.38 569.413 307.536 569.017C308.707 568.605 309.854 568.587 310.978 568.964C312.085 569.326 313.109 570.085 314.049 571.242C314.278 571.562 314.564 571.946 314.906 572.396C315.248 572.845 315.526 573.238 315.741 573.573C316.566 574.827 317.12 576.111 317.404 577.425C317.702 578.723 317.654 580.04 317.259 581.376C316.879 582.696 316.098 584.016 314.916 585.335ZM312.77 582.983C313.538 582.125 313.924 581.167 313.926 580.109C313.926 579.022 313.531 577.88 312.74 576.685C312.559 576.408 312.313 576.059 312.003 575.638C311.692 575.217 311.439 574.876 311.244 574.614C310.383 573.529 309.54 572.903 308.715 572.737C307.891 572.571 307.094 572.917 306.325 573.775C305.571 574.617 305.193 575.582 305.193 576.67C305.192 577.758 305.587 578.884 306.376 580.049C306.558 580.326 306.796 580.683 307.092 581.12C307.403 581.541 307.663 581.875 307.873 582.12C308.749 583.22 309.593 583.861 310.403 584.043C311.213 584.194 312.001 583.841 312.77 582.983ZM327.529 571.251C326.434 572.475 325.3 573.293 324.129 573.705C322.973 574.101 321.84 574.103 320.73 573.711C319.621 573.318 318.604 572.551 317.68 571.408C317.534 571.22 317.396 571.054 317.268 570.91C317.153 570.75 317.038 570.59 316.924 570.43C316.808 570.24 316.668 570.029 316.504 569.796C315.681 568.573 315.136 567.326 314.87 566.056C314.618 564.771 314.676 563.491 315.044 562.217C315.41 560.913 316.134 559.657 317.216 558.449C317.856 557.734 318.56 557.219 319.329 556.905C320.095 556.56 320.887 556.396 321.704 556.411C320.76 555.194 319.824 554.37 318.893 553.937C317.961 553.475 316.999 553.415 316.005 553.757C314.996 554.084 313.905 554.854 312.733 556.067C312.577 556.242 312.393 556.335 312.182 556.347C311.971 556.358 311.786 556.293 311.627 556.151L310.436 555.083C310.261 554.927 310.168 554.743 310.156 554.532C310.144 554.321 310.217 554.128 310.373 553.954C312.255 551.916 314.07 550.706 315.816 550.322C317.563 549.939 319.289 550.282 320.994 551.352C322.714 552.405 324.44 554.108 326.171 556.46C326.541 556.878 326.915 557.355 327.292 557.894C327.653 558.418 328 558.958 328.333 559.513C329.158 560.767 329.712 562.051 329.996 563.365C330.294 564.663 330.245 565.98 329.851 567.316C329.47 568.636 328.696 569.948 327.529 571.251ZM325.362 568.923C326.13 568.065 326.523 567.099 326.539 566.025C326.54 564.938 326.137 563.804 325.332 562.625C325.182 562.376 325.033 562.143 324.885 561.924C324.736 561.676 324.572 561.443 324.394 561.226C323.904 560.558 323.379 560.088 322.82 559.817C322.276 559.53 321.735 559.446 321.198 559.567C320.644 559.673 320.133 559.988 319.663 560.512C318.838 561.434 318.423 562.409 318.419 563.436C318.43 564.448 318.792 565.531 319.505 566.685C319.67 566.948 319.827 567.188 319.975 567.407C320.137 567.609 320.308 567.819 320.486 568.036C321.362 569.136 322.206 569.777 323.017 569.959C323.811 570.126 324.593 569.781 325.362 568.923ZM334.711 562.752C334.512 562.975 334.288 563.033 334.041 562.925C333.763 562.82 333.616 562.616 333.599 562.315L332.758 551.982L325.173 550.043C324.943 549.981 324.783 549.823 324.693 549.571C324.602 549.289 324.649 549.045 324.834 548.838L326.606 546.86C326.777 546.669 326.946 546.577 327.112 546.583C327.293 546.573 327.437 546.587 327.545 546.627L332.895 547.896L332.455 541.144C332.447 540.993 332.445 540.82 332.449 540.623C332.454 540.427 332.562 540.209 332.776 539.971L334.655 537.873C334.824 537.652 335.047 537.594 335.325 537.7C335.603 537.806 335.751 538.024 335.769 538.355L336.569 548.35L344.385 550.367C344.645 550.429 344.82 550.585 344.909 550.837C345.013 551.073 344.958 551.31 344.745 551.549L342.93 553.575C342.759 553.766 342.591 553.873 342.427 553.897C342.26 553.891 342.116 553.876 341.994 553.853L336.482 552.525L336.977 559.455C336.983 559.575 336.985 559.734 336.98 559.931C336.976 560.127 336.867 560.345 336.654 560.583L334.711 562.752ZM352.401 543.479C351.32 544.687 350.193 545.497 349.022 545.909C347.866 546.305 346.726 546.315 345.602 545.938C344.493 545.546 343.476 544.779 342.552 543.636C342.309 543.332 342.016 542.956 341.674 542.506C341.346 542.041 341.075 541.64 340.86 541.305C340.019 540.037 339.465 538.753 339.197 537.453C338.928 536.123 338.983 534.798 339.364 533.478C339.758 532.142 340.525 530.838 341.664 529.567C342.745 528.359 343.864 527.557 345.021 527.161C346.192 526.749 347.339 526.731 348.463 527.108C349.57 527.47 350.594 528.229 351.534 529.386C351.763 529.706 352.049 530.09 352.391 530.54C352.733 530.989 353.011 531.382 353.226 531.717C354.051 532.971 354.605 534.255 354.889 535.569C355.187 536.867 355.139 538.184 354.744 539.52C354.363 540.84 353.582 542.16 352.401 543.479ZM350.255 541.127C351.023 540.269 351.409 539.311 351.411 538.253C351.411 537.166 351.016 536.024 350.225 534.829C350.043 534.552 349.798 534.203 349.487 533.782C349.177 533.361 348.924 533.019 348.729 532.758C347.868 531.673 347.025 531.047 346.2 530.881C345.375 530.715 344.579 531.061 343.81 531.919C343.056 532.761 342.678 533.726 342.678 534.814C342.677 535.902 343.072 537.028 343.861 538.193C344.043 538.47 344.281 538.827 344.577 539.264C344.888 539.685 345.148 540.019 345.358 540.264C346.234 541.364 347.078 542.005 347.888 542.187C348.697 542.338 349.486 541.985 350.255 541.127ZM365.014 529.395C363.918 530.619 362.785 531.437 361.614 531.849C360.458 532.245 359.325 532.247 358.215 531.855C357.106 531.462 356.089 530.695 355.165 529.552C355.019 529.364 354.881 529.198 354.752 529.054C354.638 528.894 354.523 528.734 354.409 528.574C354.292 528.384 354.152 528.173 353.988 527.94C353.166 526.717 352.621 525.47 352.355 524.2C352.103 522.915 352.161 521.635 352.528 520.361C352.895 519.057 353.619 517.801 354.7 516.593C355.341 515.878 356.045 515.363 356.813 515.049C357.58 514.704 358.372 514.54 359.188 514.555C358.245 513.338 357.308 512.514 356.378 512.081C355.446 511.619 354.483 511.559 353.49 511.901C352.481 512.228 351.39 512.998 350.218 514.211C350.061 514.386 349.878 514.479 349.667 514.491C349.456 514.502 349.271 514.437 349.112 514.295L347.92 513.227C347.746 513.071 347.652 512.887 347.641 512.676C347.629 512.465 347.702 512.272 347.858 512.098C349.74 510.06 351.554 508.85 353.301 508.466C355.047 508.083 356.773 508.426 358.479 509.495C360.199 510.549 361.924 512.252 363.655 514.604C364.026 515.022 364.4 515.499 364.777 516.038C365.138 516.562 365.485 517.102 365.818 517.657C366.642 518.911 367.197 520.195 367.48 521.509C367.779 522.807 367.73 524.124 367.336 525.46C366.955 526.78 366.181 528.092 365.014 529.395ZM362.846 527.067C363.615 526.209 364.007 525.243 364.024 524.169C364.024 523.082 363.622 521.948 362.817 520.769C362.667 520.52 362.518 520.287 362.37 520.068C362.22 519.82 362.057 519.587 361.878 519.37C361.388 518.702 360.864 518.232 360.305 517.961C359.761 517.674 359.22 517.59 358.682 517.711C358.129 517.817 357.618 518.132 357.148 518.656C356.323 519.578 355.908 520.553 355.904 521.58C355.915 522.592 356.276 523.675 356.99 524.829C357.155 525.092 357.312 525.332 357.46 525.551C357.622 525.753 357.792 525.963 357.971 526.18C358.847 527.28 359.691 527.921 360.501 528.103C361.296 528.27 362.078 527.925 362.846 527.067Z" fill="#FFDD56"/>
<path d="M452.151 596.917C452.096 596.711 452.111 596.52 452.196 596.342C452.301 596.159 452.468 596.037 452.694 595.977L472.816 590.585C473.043 590.524 473.248 590.547 473.431 590.652C473.614 590.758 473.733 590.914 473.788 591.12L474.542 593.933C474.602 594.159 474.577 594.354 474.466 594.516C474.36 594.699 474.194 594.821 473.968 594.881L465.993 597.018L468.436 606.137L476.411 604C476.638 603.939 476.842 603.962 477.025 604.067C477.208 604.173 477.327 604.329 477.382 604.535L478.128 607.316C478.189 607.543 478.166 607.748 478.061 607.931C477.955 608.114 477.789 608.236 477.562 608.296L457.44 613.688C457.234 613.743 457.039 613.718 456.857 613.612C456.674 613.507 456.552 613.341 456.491 613.114L455.746 610.332C455.69 610.126 455.716 609.932 455.821 609.749C455.927 609.566 456.083 609.447 456.289 609.392L464.573 607.172L462.129 598.054L453.845 600.273C453.639 600.328 453.445 600.303 453.262 600.198C453.085 600.113 452.966 599.957 452.905 599.73L452.151 596.917ZM458.828 623.073C458.541 622.001 458.488 620.978 458.668 620.002C458.869 619.02 459.25 618.178 459.813 617.475C460.402 616.788 461.139 616.325 462.025 616.087C463.468 615.701 464.769 615.982 465.928 616.93C467.108 617.873 468.097 619.253 468.893 621.072L470.646 625.141L471.295 624.967C472.161 624.735 472.772 624.339 473.13 623.779C473.488 623.22 473.527 622.414 473.245 621.363C473.046 620.622 472.729 620.055 472.293 619.664C471.883 619.288 471.4 619.053 470.845 618.959C470.533 618.866 470.335 618.664 470.253 618.355L469.598 615.913C469.538 615.687 469.552 615.495 469.643 615.338C469.739 615.202 469.89 615.106 470.096 615.051C470.431 614.984 470.869 615.01 471.409 615.13C471.955 615.271 472.513 615.541 473.084 615.94C473.681 616.355 474.247 616.943 474.783 617.705C475.318 618.467 475.746 619.445 476.066 620.641C476.414 621.939 476.542 623.075 476.449 624.05C476.383 625.039 476.154 625.873 475.762 626.553C475.37 627.232 474.846 627.792 474.191 628.233C473.536 628.673 472.807 629.001 472.003 629.216L462.298 631.817C462.092 631.872 461.897 631.847 461.714 631.741C461.531 631.636 461.412 631.48 461.357 631.274L460.686 628.77C460.625 628.544 460.648 628.339 460.753 628.156C460.865 627.994 461.023 627.885 461.229 627.83L462.435 627.507C461.992 627.338 461.535 627.074 461.063 626.715C460.591 626.355 460.154 625.876 459.75 625.277C459.373 624.694 459.066 623.959 458.828 623.073ZM462.046 623.337C462.24 624.058 462.568 624.666 463.032 625.16C463.501 625.675 464.099 626.012 464.826 626.17C465.58 626.344 466.451 626.298 467.44 626.033L468.089 625.859L466.766 622.901C466.255 621.734 465.713 620.908 465.141 620.421C464.569 619.934 463.984 619.77 463.386 619.93C462.933 620.052 462.577 620.29 462.319 620.647C462.087 621.018 461.947 621.442 461.898 621.919C461.87 622.39 461.919 622.863 462.046 623.337ZM459.053 636.274C458.997 636.068 459.023 635.873 459.128 635.69C459.234 635.508 459.39 635.389 459.596 635.333L464.788 633.942C464.995 633.887 465.189 633.912 465.372 634.017C465.555 634.123 465.674 634.279 465.729 634.485L465.795 634.732C465.939 635.268 466.333 635.626 466.978 635.807C467.649 636.003 468.583 636.028 469.781 635.884C471 635.734 472.506 635.419 474.298 634.939L478.471 633.82C478.677 633.765 478.872 633.79 479.055 633.896C479.238 634.002 479.357 634.157 479.412 634.363L482.36 645.367C482.421 645.594 482.396 645.788 482.285 645.951C482.179 646.134 482.023 646.253 481.817 646.308L469.793 649.53L470.166 650.921C470.227 651.147 470.202 651.342 470.091 651.504C469.985 651.687 469.829 651.806 469.623 651.861L464.399 653.261C464.193 653.316 463.999 653.291 463.816 653.185C463.639 653.1 463.519 652.945 463.459 652.718L462.78 650.183C462.719 649.957 462.741 649.752 462.847 649.569C462.952 649.386 463.108 649.267 463.314 649.212L465.973 648.499L463.339 638.67L460.681 639.382C460.475 639.438 460.28 639.413 460.097 639.307C459.914 639.201 459.795 639.045 459.74 638.839L459.053 636.274ZM467.071 639.492L468.717 645.511L478.206 642.969L476.98 638.394L474.909 638.949C473.055 639.446 471.486 639.734 470.204 639.812C468.922 639.891 467.878 639.784 467.071 639.492ZM469.365 662.397C468.752 660.109 468.926 658.119 469.886 656.427C470.846 654.734 472.527 653.51 474.931 652.756C475.132 652.68 475.387 652.6 475.696 652.518C476.026 652.429 476.286 652.371 476.477 652.341C478.065 652.004 479.498 651.996 480.777 652.316C482.081 652.651 483.181 653.295 484.077 654.247C484.993 655.194 485.653 656.42 486.056 657.924C486.503 659.593 486.529 661.089 486.132 662.41C485.755 663.725 485.026 664.837 483.945 665.745C482.883 666.648 481.549 667.315 479.942 667.746L479.293 667.919C479.087 667.975 478.892 667.949 478.709 667.844C478.526 667.738 478.405 667.572 478.344 667.345L475.594 657.083C475.594 657.083 475.563 657.092 475.501 657.108C475.44 657.125 475.388 657.139 475.347 657.15C474.631 657.364 473.997 657.677 473.445 658.09C472.92 658.518 472.537 659.029 472.299 659.623C472.066 660.237 472.044 660.895 472.231 661.596C472.386 662.173 472.598 662.635 472.868 662.982C473.158 663.324 473.45 663.588 473.743 663.775C474.036 663.961 474.268 664.087 474.44 664.151C474.737 664.27 474.92 664.376 474.989 664.468C475.084 664.575 475.161 664.742 475.222 664.968L475.934 667.627C475.99 667.833 475.972 668.014 475.882 668.171C475.797 668.348 475.659 668.451 475.468 668.481C475.132 668.548 474.684 668.481 474.121 668.278C473.565 668.096 472.979 667.767 472.366 667.291C471.753 666.815 471.17 666.165 470.618 665.341C470.092 664.532 469.674 663.551 469.365 662.397ZM478.191 656.388L480.021 663.219L480.114 663.194C480.917 662.979 481.582 662.657 482.108 662.229C482.654 661.795 483.023 661.277 483.215 660.673C483.427 660.064 483.437 659.399 483.243 658.678C483.05 657.957 482.709 657.386 482.221 656.964C481.753 656.537 481.174 656.273 480.485 656.171C479.821 656.083 479.087 656.148 478.283 656.363L478.191 656.388ZM472.4 672.488C472.351 672.302 472.361 672.134 472.431 671.983C472.5 671.831 472.618 671.734 472.783 671.69C472.906 671.656 473.054 671.672 473.226 671.736L481.98 674.857L487.556 668.592C487.607 668.535 487.661 668.487 487.717 668.45C487.794 668.407 487.863 668.378 487.925 668.361C488.09 668.317 488.238 668.332 488.368 668.408C488.505 668.504 488.6 668.655 488.655 668.861L489.393 671.612C489.459 671.859 489.457 672.059 489.387 672.21C489.338 672.355 489.252 672.489 489.13 672.61L484.36 677.93L484.865 679.815L490.398 678.333C490.604 678.277 490.799 678.303 490.982 678.408C491.165 678.514 491.284 678.67 491.339 678.876L492.01 681.379C492.07 681.606 492.045 681.801 491.934 681.963C491.829 682.146 491.673 682.265 491.467 682.32L485.934 683.803L486.423 685.626L493.23 687.91C493.39 687.933 493.529 687.996 493.644 688.097C493.786 688.214 493.887 688.386 493.948 688.612L494.693 691.394C494.743 691.58 494.733 691.748 494.663 691.899C494.593 692.05 494.476 692.148 494.311 692.192C494.249 692.209 494.171 692.208 494.078 692.188C494.01 692.184 493.94 692.17 493.867 692.145L485.906 689.508L479.893 696.619C479.792 696.734 479.669 696.811 479.524 696.85C479.36 696.894 479.209 696.868 479.073 696.772C478.942 696.697 478.849 696.556 478.794 696.35L477.966 693.259C477.9 693.012 477.899 692.802 477.963 692.63C478.033 692.479 478.111 692.359 478.198 692.269L483.185 686.527L482.688 684.672L476.877 686.229C476.671 686.284 476.477 686.259 476.294 686.154C476.117 686.069 475.997 685.913 475.937 685.686L475.266 683.182C475.211 682.976 475.236 682.782 475.341 682.599C475.447 682.416 475.603 682.297 475.809 682.242L481.62 680.685L481.123 678.83L473.932 676.351C473.813 676.317 473.682 676.241 473.54 676.125C473.399 676.008 473.297 675.836 473.237 675.61L472.4 672.488ZM479.891 700.444C479.836 700.238 479.861 700.043 479.967 699.86C480.072 699.677 480.228 699.558 480.434 699.503L495.023 695.594C495.229 695.539 495.424 695.564 495.607 695.67C495.79 695.775 495.909 695.931 495.964 696.137L496.651 698.703C496.712 698.929 496.687 699.124 496.576 699.286C496.47 699.469 496.314 699.588 496.108 699.643L490.576 701.126L492.447 708.111L497.98 706.629C498.186 706.574 498.381 706.599 498.564 706.704C498.747 706.81 498.866 706.966 498.921 707.172L499.608 709.737C499.663 709.943 499.638 710.138 499.533 710.321C499.427 710.504 499.271 710.623 499.065 710.678L484.476 714.587C484.27 714.642 484.075 714.617 483.892 714.512C483.709 714.406 483.59 714.25 483.535 714.044L482.848 711.479C482.793 711.272 482.818 711.078 482.923 710.895C483.029 710.712 483.185 710.593 483.391 710.538L489.202 708.981L487.33 701.995L481.519 703.552C481.313 703.608 481.119 703.582 480.936 703.477C480.758 703.392 480.639 703.236 480.578 703.009L479.891 700.444ZM486.448 726.152C486.007 724.504 485.922 723.035 486.196 721.747C486.474 720.48 487.059 719.407 487.95 718.528C488.846 717.669 489.984 717.011 491.363 716.553C491.729 716.433 492.179 716.301 492.715 716.158C493.251 716.014 493.707 715.903 494.083 715.824C495.527 715.526 496.844 715.537 498.035 715.859C499.251 716.195 500.297 716.843 501.172 717.801C502.053 718.779 502.709 720.072 503.139 721.68C503.57 723.287 503.646 724.724 503.367 725.992C503.094 727.28 502.512 728.363 501.621 729.242C500.756 730.137 499.624 730.816 498.224 731.279C497.859 731.399 497.408 731.531 496.873 731.674C496.337 731.818 495.881 731.929 495.504 732.008C494.081 732.301 492.764 732.289 491.553 731.973C490.347 731.678 489.304 731.041 488.424 730.062C487.548 729.104 486.89 727.801 486.448 726.152ZM489.508 725.332C489.801 726.424 490.367 727.178 491.207 727.594C492.068 728.003 493.177 728.06 494.533 727.763C494.847 727.7 495.252 727.603 495.746 727.471C496.241 727.338 496.64 727.22 496.944 727.117C498.266 726.696 499.188 726.096 499.708 725.316C500.248 724.531 500.372 723.592 500.079 722.5C499.787 721.408 499.21 720.657 498.349 720.247C497.509 719.831 496.411 719.772 495.055 720.069C494.741 720.131 494.336 720.229 493.841 720.361C493.347 720.494 492.948 720.612 492.644 720.715C491.321 721.136 490.39 721.739 489.849 722.524C489.329 723.304 489.216 724.24 489.508 725.332ZM491.308 744.29C490.911 742.806 490.838 741.423 491.091 740.141C491.349 738.879 491.918 737.788 492.798 736.867C493.704 735.962 494.901 735.277 496.388 734.812C496.692 734.709 497.091 734.591 497.586 734.458C498.101 734.32 498.526 734.217 498.861 734.15C500.382 733.808 501.751 733.806 502.967 734.143C504.21 734.494 505.259 735.152 506.113 736.116C506.973 737.1 507.602 738.334 507.999 739.817C508.353 741.136 508.468 742.309 508.346 743.336C508.244 744.357 507.985 745.244 507.568 745.996C507.172 746.742 506.703 747.343 506.162 747.797C505.647 748.266 505.145 748.577 504.656 748.73C504.435 748.812 504.23 748.789 504.042 748.663C503.88 748.552 503.771 748.393 503.716 748.187L502.987 745.467C502.932 745.261 502.939 745.083 503.009 744.931C503.084 744.801 503.211 744.656 503.39 744.498C504.131 743.968 504.598 743.401 504.789 742.798C505.007 742.209 505.011 741.524 504.801 740.741C504.525 739.71 503.975 738.974 503.15 738.533C502.351 738.106 501.245 738.06 499.833 738.395C499.039 738.563 498.318 738.756 497.669 738.974C496.258 739.397 495.314 739.992 494.835 740.761C494.362 741.55 494.263 742.46 494.539 743.49C494.755 744.294 495.094 744.899 495.556 745.305C496.039 745.706 496.734 745.95 497.641 746.038C497.874 746.086 498.056 746.148 498.187 746.223C498.323 746.319 498.419 746.47 498.474 746.677L499.203 749.397C499.258 749.603 499.233 749.797 499.127 749.98C499.048 750.178 498.892 750.297 498.66 750.337C498.283 750.416 497.833 750.426 497.31 750.368C496.812 750.324 496.264 750.173 495.664 749.914C495.091 749.67 494.521 749.315 493.954 748.848C493.408 748.376 492.901 747.761 492.433 747.003C491.97 746.266 491.595 745.361 491.308 744.29ZM495.802 759.825C495.742 759.599 495.764 759.394 495.87 759.211C495.981 759.049 496.139 758.94 496.345 758.885L508.4 755.655L507.05 750.616C506.989 750.39 507.012 750.185 507.117 750.002C507.228 749.84 507.397 749.728 507.624 749.667L509.386 749.195C509.592 749.14 509.784 749.155 509.961 749.24C510.144 749.346 510.266 749.512 510.326 749.738L514.087 763.771C514.147 763.998 514.125 764.203 514.019 764.386C513.914 764.569 513.758 764.688 513.552 764.743L511.79 765.215C511.563 765.276 511.359 765.253 511.176 765.148C510.993 765.042 510.871 764.876 510.81 764.649L509.468 759.642L497.414 762.872C497.208 762.927 497.013 762.902 496.83 762.796C496.647 762.691 496.528 762.535 496.473 762.329L495.802 759.825ZM499.076 772.043C499.021 771.837 499.046 771.643 499.152 771.46C499.257 771.277 499.413 771.158 499.619 771.102L514.208 767.193C514.414 767.138 514.609 767.163 514.792 767.269C514.975 767.374 515.094 767.53 515.149 767.736L515.845 770.333C515.9 770.539 515.875 770.733 515.769 770.916C515.664 771.099 515.508 771.218 515.302 771.273L510.943 772.441L511.796 775.625C512.36 777.727 512.287 779.436 511.58 780.752C510.872 782.067 509.653 782.957 507.922 783.421C506.13 783.902 504.628 783.697 503.418 782.806C502.207 781.916 501.32 780.42 500.757 778.318L499.076 772.043ZM502.89 774.533L503.669 777.438C503.939 778.448 504.324 779.14 504.822 779.515C505.325 779.91 506.03 779.986 506.937 779.743C507.823 779.506 508.419 779.092 508.724 778.502C509.036 777.933 509.051 777.123 508.769 776.072L507.99 773.166L502.89 774.533Z" fill="#AA5DE6"/>
<path d="M73.6441 298.613C73.4593 298.506 73.3343 298.36 73.269 298.174C73.2143 297.97 73.2456 297.767 73.363 297.564L83.779 279.523C83.8963 279.319 84.057 279.19 84.261 279.136C84.465 279.081 84.6593 279.107 84.8441 279.214L99.3656 287.598C99.5688 287.715 99.6978 287.876 99.7524 288.08C99.8071 288.284 99.7758 288.487 99.6584 288.691L89.2424 306.732C89.1358 306.916 88.9804 307.036 88.7764 307.091C88.5724 307.145 88.3688 307.114 88.1656 306.997L85.6715 305.557C85.4867 305.45 85.367 305.295 85.3123 305.091C85.2577 304.887 85.2837 304.692 85.3903 304.508L94.2063 289.238L86.0311 284.518L77.2151 299.788C77.1084 299.972 76.9531 300.092 76.7491 300.147C76.5636 300.212 76.3692 300.186 76.166 300.069L73.6441 298.613ZM90.821 315.55C90.6363 315.444 90.5166 315.288 90.4619 315.084C90.3966 314.899 90.4226 314.705 90.5399 314.501L91.4519 312.922C91.5692 312.718 91.7299 312.59 91.9339 312.535C92.1272 312.499 92.3163 312.534 92.501 312.641L93.3601 313.137C93.7296 313.35 94.0771 313.452 94.4026 313.443C94.7282 313.434 95.0939 313.312 95.4997 313.079C95.895 312.863 96.3833 312.53 96.9649 312.077L110.745 301.521C110.904 301.416 111.066 301.349 111.23 301.321C111.405 301.274 111.603 301.314 111.825 301.442L113.931 302.658C114.079 302.744 114.176 302.874 114.223 303.049C114.289 303.234 114.279 303.401 114.193 303.549C114.151 303.623 114.104 303.682 114.054 303.727C114.022 303.782 113.946 303.849 113.826 303.928L101.297 313.47C100.524 314.083 99.7451 314.643 98.9596 315.15C98.1819 315.686 97.406 316.113 96.6319 316.43C95.8656 316.776 95.1055 316.94 94.3514 316.924C93.5867 316.926 92.8163 316.702 92.0404 316.254L90.821 315.55ZM97.644 311.989L99.5543 295.688C99.587 295.461 99.6248 295.31 99.6674 295.236C99.7819 295.08 99.9266 294.979 100.101 294.932C100.287 294.867 100.463 294.882 100.629 294.978L102.846 296.258C103.068 296.386 103.193 296.532 103.221 296.697C103.268 296.871 103.282 297.04 103.263 297.201L101.446 310.267L97.644 311.989ZM109.306 319.202C109.121 319.095 109.001 318.94 108.947 318.736C108.892 318.532 108.918 318.338 109.025 318.153L116.577 305.072C116.683 304.888 116.839 304.768 117.043 304.713C117.247 304.659 117.441 304.685 117.626 304.791L119.926 306.119C120.129 306.237 120.249 306.392 120.285 306.585C120.34 306.789 120.314 306.984 120.207 307.168L117.343 312.129L123.606 315.745L126.47 310.784C126.577 310.6 126.732 310.48 126.936 310.425C127.14 310.371 127.334 310.397 127.519 310.503L129.819 311.831C130.004 311.938 130.124 312.093 130.178 312.297C130.233 312.501 130.207 312.696 130.1 312.88L122.548 325.961C122.442 326.146 122.286 326.265 122.082 326.32C121.878 326.375 121.684 326.349 121.499 326.242L119.199 324.914C119.014 324.807 118.895 324.652 118.84 324.448C118.785 324.244 118.811 324.05 118.918 323.865L121.926 318.655L115.663 315.039L112.655 320.249C112.548 320.434 112.393 320.553 112.189 320.608C112.003 320.673 111.809 320.647 111.606 320.53L109.306 319.202ZM126.572 329.171C126.387 329.064 126.268 328.909 126.213 328.705C126.158 328.501 126.184 328.306 126.291 328.122L133.843 315.041C133.95 314.856 134.105 314.737 134.309 314.682C134.513 314.627 134.707 314.653 134.892 314.76L137.165 316.072C137.349 316.179 137.469 316.334 137.524 316.538C137.578 316.742 137.552 316.936 137.446 317.121L134.582 322.082L136.577 323.234L142.95 320.004C143.099 319.917 143.25 319.869 143.403 319.859C143.586 319.841 143.779 319.891 143.982 320.008L146.448 321.432C146.633 321.539 146.754 321.67 146.812 321.827C146.869 321.983 146.855 322.135 146.77 322.283C146.738 322.338 146.682 322.392 146.603 322.445C146.552 322.49 146.492 322.529 146.423 322.563L138.929 326.328L139.677 335.592C139.706 335.756 139.683 335.903 139.608 336.032C139.523 336.18 139.398 336.268 139.234 336.296C139.07 336.325 138.904 336.291 138.738 336.195L135.939 334.579C135.754 334.472 135.619 334.344 135.532 334.196C135.464 334.058 135.421 333.898 135.403 333.715L134.881 326.171L132.886 325.019L129.894 330.202C129.787 330.386 129.632 330.506 129.428 330.561C129.224 330.615 129.029 330.589 128.845 330.483L126.572 329.171ZM146.145 340.471C145.942 340.354 145.813 340.193 145.759 339.989C145.722 339.796 145.758 339.607 145.864 339.422L152.104 328.614L147.587 326.006C147.384 325.889 147.255 325.728 147.2 325.524C147.164 325.331 147.205 325.133 147.322 324.929L148.234 323.35C148.341 323.165 148.487 323.04 148.672 322.975C148.876 322.92 149.08 322.951 149.283 323.069L161.865 330.333C162.068 330.45 162.197 330.611 162.252 330.815C162.306 331.019 162.28 331.213 162.173 331.398L161.261 332.977C161.144 333.181 160.983 333.31 160.78 333.364C160.576 333.419 160.372 333.388 160.169 333.27L155.679 330.678L149.439 341.486C149.333 341.671 149.177 341.791 148.973 341.845C148.769 341.9 148.575 341.874 148.39 341.767L146.145 340.471ZM154.42 352.269C154.235 352.163 154.115 352.007 154.061 351.803C153.995 351.618 154.021 351.423 154.139 351.22L155.051 349.64C155.168 349.437 155.329 349.308 155.533 349.254C155.726 349.217 155.915 349.253 156.1 349.359L156.959 349.855C157.328 350.069 157.676 350.171 158.001 350.162C158.327 350.153 158.693 350.031 159.098 349.797C159.494 349.582 159.982 349.248 160.564 348.796L174.344 338.24C174.503 338.135 174.665 338.068 174.829 338.039C175.004 337.993 175.202 338.033 175.424 338.161L177.53 339.377C177.678 339.462 177.775 339.593 177.822 339.767C177.887 339.953 177.877 340.12 177.792 340.267C177.749 340.341 177.703 340.401 177.652 340.445C177.62 340.501 177.545 340.568 177.425 340.647L164.896 350.188C164.123 350.801 163.344 351.362 162.558 351.869C161.781 352.405 161.005 352.832 160.231 353.148C159.464 353.494 158.704 353.659 157.95 353.642C157.185 353.644 156.415 353.421 155.639 352.973L154.42 352.269ZM161.243 348.707L163.153 332.407C163.186 332.179 163.223 332.029 163.266 331.955C163.381 331.799 163.525 331.698 163.7 331.651C163.886 331.586 164.062 331.601 164.228 331.697L166.445 332.977C166.667 333.105 166.792 333.251 166.82 333.415C166.867 333.59 166.881 333.758 166.861 333.92L165.045 346.986L161.243 348.707ZM176.264 358.23C175.303 357.675 174.542 356.989 173.979 356.172C173.427 355.336 173.101 354.47 173.002 353.575C172.932 352.673 173.126 351.824 173.585 351.03C174.332 349.737 175.45 349.015 176.941 348.866C178.442 348.698 180.117 348.975 181.966 349.698L186.083 351.336L186.419 350.754C186.867 349.978 187.019 349.265 186.877 348.616C186.734 347.967 186.192 347.371 185.249 346.827C184.584 346.443 183.959 346.267 183.374 346.299C182.818 346.323 182.311 346.498 181.852 346.824C181.565 346.978 181.283 346.976 181.006 346.816L178.817 345.552C178.614 345.435 178.489 345.288 178.442 345.114C178.414 344.949 178.453 344.775 178.559 344.59C178.748 344.305 179.077 344.014 179.544 343.717C180.029 343.431 180.615 343.227 181.301 343.106C182.016 342.977 182.832 342.992 183.749 343.153C184.667 343.313 185.661 343.702 186.733 344.321C187.897 344.993 188.791 345.706 189.415 346.46C190.067 347.207 190.495 347.959 190.698 348.717C190.902 349.474 190.927 350.24 190.776 351.015C190.624 351.79 190.34 352.537 189.924 353.258L184.9 361.96C184.793 362.144 184.638 362.264 184.434 362.319C184.23 362.373 184.036 362.347 183.851 362.241L181.606 360.945C181.403 360.827 181.274 360.667 181.219 360.463C181.183 360.269 181.219 360.08 181.325 359.896L181.949 358.815C181.517 359.009 181.007 359.145 180.419 359.225C179.831 359.304 179.183 359.275 178.475 359.137C177.795 358.991 177.058 358.689 176.264 358.23ZM178.726 356.141C179.373 356.515 180.035 356.712 180.712 356.733C181.408 356.766 182.069 356.581 182.695 356.179C183.351 355.769 183.934 355.12 184.446 354.234L184.782 353.652L181.755 352.495C180.569 352.032 179.601 351.831 178.852 351.891C178.103 351.951 177.574 352.249 177.265 352.785C177.03 353.191 176.947 353.612 177.017 354.046C177.116 354.472 177.316 354.871 177.619 355.243C177.932 355.597 178.301 355.896 178.726 356.141ZM187.628 364.421C187.425 364.304 187.296 364.143 187.241 363.939C187.186 363.735 187.218 363.532 187.335 363.329L188.327 361.61C188.562 361.204 188.902 361.105 189.349 361.313C189.924 361.596 190.517 361.594 191.127 361.305C191.737 361.017 192.403 360.417 193.127 359.504C193.88 358.584 194.721 357.32 195.649 355.713L197.809 351.972C197.915 351.787 198.061 351.662 198.247 351.597C198.451 351.542 198.655 351.573 198.858 351.691L208.696 357.371C208.881 357.477 209 357.633 209.055 357.837C209.11 358.041 209.084 358.235 208.977 358.42L201.425 371.5C201.318 371.685 201.163 371.805 200.959 371.859C200.755 371.914 200.561 371.888 200.376 371.781L198.076 370.453C197.872 370.336 197.744 370.175 197.689 369.971C197.653 369.778 197.688 369.589 197.795 369.404L204.035 358.596L199.961 356.244L198.889 358.101C197.865 359.875 196.894 361.322 195.976 362.442C195.087 363.555 194.193 364.357 193.294 364.848C192.424 365.331 191.518 365.534 190.576 365.459C189.664 365.375 188.681 365.029 187.628 364.421ZM205.435 374.702C205.25 374.595 205.13 374.44 205.075 374.236C205.021 374.032 205.047 373.838 205.153 373.653L212.705 360.572C212.812 360.388 212.967 360.268 213.171 360.213C213.375 360.159 213.57 360.185 213.755 360.291L216.082 361.635C216.267 361.742 216.387 361.897 216.442 362.101C216.496 362.305 216.47 362.5 216.364 362.684L214.108 366.592L216.962 368.24C218.846 369.328 220.004 370.587 220.434 372.018C220.864 373.449 220.631 374.94 219.735 376.492C218.807 378.1 217.601 379.016 216.115 379.243C214.63 379.469 212.945 379.038 211.06 377.95L205.435 374.702ZM209.892 373.765L212.497 375.269C213.402 375.792 214.163 376.01 214.78 375.922C215.416 375.846 215.968 375.401 216.438 374.588C216.896 373.794 217.025 373.08 216.824 372.447C216.642 371.824 216.079 371.241 215.137 370.697L212.532 369.193L209.892 373.765ZM220.13 383.186C219.945 383.08 219.825 382.924 219.771 382.72C219.716 382.516 219.742 382.322 219.849 382.137L227.401 369.057C227.507 368.872 227.663 368.752 227.867 368.698C228.071 368.643 228.265 368.669 228.45 368.776L230.75 370.104C230.953 370.221 231.073 370.376 231.109 370.57C231.164 370.774 231.138 370.968 231.031 371.153L228.167 376.113L234.43 379.729L237.294 374.769C237.401 374.584 237.556 374.464 237.76 374.41C237.964 374.355 238.159 374.381 238.343 374.488L240.644 375.816C240.828 375.922 240.948 376.078 241.003 376.282C241.057 376.486 241.031 376.68 240.925 376.865L233.373 389.945C233.266 390.13 233.111 390.25 232.907 390.304C232.703 390.359 232.508 390.333 232.324 390.226L230.023 388.898C229.839 388.792 229.719 388.636 229.664 388.432C229.61 388.228 229.636 388.034 229.742 387.849L232.75 382.639L226.487 379.023L223.479 384.233C223.373 384.418 223.217 384.538 223.013 384.592C222.828 384.658 222.633 384.632 222.43 384.514L220.13 383.186ZM242.945 396.728C241.467 395.875 240.369 394.896 239.652 393.792C238.953 392.699 238.608 391.527 238.616 390.275C238.642 389.034 238.981 387.764 239.633 386.465C239.806 386.122 240.032 385.71 240.309 385.23C240.587 384.749 240.83 384.348 241.041 384.026C241.851 382.794 242.79 381.871 243.859 381.257C244.958 380.634 246.155 380.353 247.451 380.411C248.766 380.481 250.144 380.931 251.585 381.763C253.026 382.595 254.096 383.558 254.795 384.651C255.513 385.755 255.867 386.933 255.859 388.185C255.88 389.428 255.559 390.709 254.897 392.026C254.724 392.37 254.498 392.781 254.221 393.262C253.944 393.742 253.7 394.143 253.489 394.465C252.69 395.679 251.751 396.602 250.671 397.235C249.609 397.879 248.421 398.166 247.107 398.096C245.81 398.038 244.423 397.582 242.945 396.728ZM244.529 393.985C245.508 394.55 246.442 394.683 247.33 394.382C248.228 394.063 249.052 393.319 249.8 392.151C249.979 391.884 250.196 391.529 250.452 391.086C250.708 390.642 250.907 390.277 251.048 389.989C251.686 388.756 251.913 387.68 251.73 386.761C251.556 385.824 250.98 385.072 250.001 384.507C249.022 383.942 248.083 383.818 247.185 384.137C246.297 384.437 245.479 385.172 244.73 386.341C244.551 386.607 244.334 386.962 244.078 387.406C243.822 387.849 243.623 388.215 243.482 388.503C242.844 389.735 242.612 390.821 242.785 391.758C242.968 392.677 243.55 393.419 244.529 393.985ZM259.207 406.117C257.877 405.349 256.848 404.422 256.119 403.337C255.41 402.262 255.041 401.088 255.012 399.815C255.012 398.534 255.374 397.204 256.097 395.823C256.239 395.535 256.438 395.17 256.694 394.726C256.96 394.264 257.188 393.891 257.377 393.606C258.211 392.289 259.178 391.32 260.276 390.698C261.403 390.068 262.61 389.791 263.895 389.868C265.2 389.956 266.517 390.384 267.847 391.152C269.029 391.835 269.94 392.582 270.58 393.395C271.23 394.189 271.673 394.999 271.91 395.826C272.158 396.634 272.251 397.39 272.19 398.094C272.158 398.789 272.023 399.364 271.785 399.818C271.687 400.032 271.526 400.161 271.303 400.205C271.11 400.241 270.921 400.206 270.736 400.1L268.298 398.692C268.113 398.585 267.992 398.453 267.934 398.297C267.895 398.151 267.883 397.959 267.897 397.721C268.047 396.822 267.976 396.092 267.685 395.529C267.422 394.959 266.94 394.472 266.238 394.066C265.315 393.533 264.405 393.402 263.509 393.673C262.643 393.936 261.829 394.686 261.066 395.921C260.624 396.601 260.251 397.248 259.946 397.861C259.247 399.157 259 400.246 259.205 401.128C259.429 402.021 260.003 402.734 260.926 403.267C261.647 403.683 262.314 403.871 262.928 403.831C263.553 403.773 264.217 403.455 264.921 402.876C265.12 402.744 265.292 402.659 265.438 402.62C265.602 402.592 265.777 402.631 265.962 402.738L268.4 404.146C268.585 404.252 268.705 404.408 268.759 404.612C268.843 404.808 268.817 405.002 268.681 405.195C268.471 405.517 268.16 405.842 267.748 406.171C267.366 406.492 266.871 406.773 266.264 407.014C265.686 407.247 265.032 407.399 264.301 407.469C263.581 407.522 262.788 407.445 261.921 407.24C261.072 407.046 260.168 406.672 259.207 406.117ZM273.37 413.925C273.167 413.807 273.038 413.647 272.983 413.443C272.947 413.249 272.982 413.06 273.089 412.875L279.329 402.067L274.812 399.459C274.608 399.342 274.479 399.181 274.425 398.977C274.389 398.784 274.429 398.586 274.546 398.383L275.458 396.803C275.565 396.618 275.711 396.493 275.897 396.428C276.101 396.373 276.304 396.405 276.508 396.522L289.089 403.786C289.292 403.903 289.421 404.064 289.476 404.268C289.531 404.472 289.505 404.666 289.398 404.851L288.486 406.431C288.369 406.634 288.208 406.763 288.004 406.817C287.8 406.872 287.596 406.841 287.393 406.723L282.904 404.131L276.664 414.939C276.557 415.124 276.402 415.244 276.198 415.299C275.994 415.353 275.799 415.327 275.615 415.221L273.37 413.925ZM284.324 420.249C284.139 420.142 284.02 419.987 283.965 419.783C283.91 419.579 283.936 419.385 284.043 419.2L291.595 406.119C291.702 405.935 291.857 405.815 292.061 405.76C292.265 405.706 292.459 405.732 292.644 405.838L294.972 407.182C295.157 407.289 295.276 407.444 295.331 407.648C295.386 407.852 295.36 408.047 295.253 408.231L292.997 412.139L295.851 413.787C297.736 414.875 298.893 416.134 299.323 417.565C299.754 418.996 299.521 420.487 298.625 422.039C297.697 423.646 296.49 424.563 295.005 424.79C293.519 425.016 291.834 424.585 289.95 423.497L284.324 420.249ZM288.782 419.312L291.387 420.816C292.292 421.339 293.053 421.557 293.67 421.469C294.305 421.393 294.858 420.948 295.327 420.135C295.786 419.341 295.915 418.627 295.714 417.994C295.531 417.371 294.969 416.788 294.027 416.244L291.422 414.74L288.782 419.312Z" fill="#AA5DE6"/>
</svg>
