<svg width="460" height="345" viewBox="0 0 460 345" fill="none" xmlns="http://www.w3.org/2000/svg">
<path d="M315.199 0.246094H73.8069C57.5381 0.246094 44.3496 16.4858 44.3496 36.5186V111.852C44.3496 131.885 57.5381 148.125 73.8069 148.125H315.199C331.467 148.125 344.656 131.885 344.656 111.852V36.5186C344.656 16.4858 331.467 0.246094 315.199 0.246094Z" fill="#AA5DE5"/>
<path d="M53.0104 114.93L0 175.288L88.6981 140.804L53.0104 114.93Z" fill="#AA5DE5"/>
<path d="M130.154 319.211L389.231 319.211C406.093 319.211 419.763 302.92 419.763 282.825V224.572C419.763 204.476 406.093 188.186 389.231 188.186L130.154 188.186C113.292 188.186 99.6225 204.476 99.6225 224.572V282.825C99.6225 302.92 113.292 319.211 130.154 319.211Z" fill="#AA5DE5"/>
<path d="M411.903 290.945L460 344.825L379.527 314.056L411.903 290.945Z" fill="#AA5DE5"/>
<path d="M298.644 71.9855L310.435 101.556L284.002 88.4802L260.419 115.032L269.808 81.4427L249.727 65.0813L274.26 59.5312L280.798 27.3633L292.031 55.513L318.538 49.519L298.644 71.9855Z" fill="white"/>
<path d="M80.2496 48.4565L79.1133 104.112H86.5085C86.3222 88.5055 86.136 72.8988 85.9311 57.2699C91.8175 57.4919 97.704 57.7139 103.59 57.9581C103.777 54.1175 103.963 50.2769 104.168 46.4141C96.1951 47.1023 88.2223 47.7683 80.2496 48.4565Z" fill="white"/>
<path d="M113.855 47.1016C107.745 47.5678 103.404 62.1088 103.032 72.8981C102.641 84.6641 106.72 99.96 112.718 100.737C118.996 101.536 127.323 86.3957 126.95 72.2321C126.633 60.133 119.909 46.6576 113.855 47.1238V47.1016Z" fill="white"/>
<path d="M130.379 46.4069L129.242 53.7774C132.651 53.9994 136.079 54.2214 139.488 54.4434C138.351 70.5385 137.215 86.6335 136.079 102.729C138.351 102.507 140.643 102.285 142.915 102.063C143.679 85.7455 144.443 69.4285 145.188 53.0892H158.283V45.7188C148.988 45.9408 139.674 46.1628 130.379 46.3848V46.4069Z" fill="white"/>
<path d="M312.055 227.231C311.683 229.695 311.292 232.16 310.919 234.602C314.328 234.824 317.755 235.046 321.164 235.268C320.028 251.363 318.892 267.458 317.755 283.553C320.028 283.331 322.319 283.109 324.592 282.887C325.356 266.57 326.119 250.253 326.865 233.913H339.96V226.543C330.665 226.765 321.351 226.987 312.055 227.209V227.231Z" fill="white"/>
<path d="M166.813 47.1004C161.374 47.5666 157.63 61.9967 157.127 72.2087C156.494 84.996 160.461 101.424 166.236 102.068C171.88 102.712 179.145 88.3038 179.331 74.9172C179.518 61.3307 172.476 46.5898 166.795 47.0782L166.813 47.1004Z" fill="white"/>
<path d="M187.9 45.7458C187.323 64.6159 186.764 83.4638 186.187 102.334C198.649 104.709 207.46 96.6063 207.832 89.6798C208.13 84.0854 203.063 77.4698 195.873 74.051C203.399 71.2538 208.987 65.3041 208.969 59.9095C208.95 53.3383 200.623 44.9688 187.9 45.768V45.7458Z" fill="white"/>
<path d="M228.902 45.0586C225.866 57.2687 222.829 69.5009 219.793 81.711C221.879 82.3992 223.966 83.0652 226.052 83.7534C229.666 71.5433 233.261 59.3111 236.875 47.101L228.902 45.0586Z" fill="white"/>
<path d="M218.078 88.4956C219.531 87.7186 221.412 87.8962 222.641 89.1838C224.709 91.3372 224.579 96.199 222.064 97.9972C220.108 99.4181 217.034 98.7298 215.805 95.9548C214.52 93.1132 215.917 89.65 218.078 88.4956Z" fill="white"/>
<path d="M396.329 227.191C393.292 239.401 390.256 251.634 387.22 263.844C389.306 264.532 391.392 265.198 393.479 265.886C397.093 253.676 400.688 241.444 404.302 229.234L396.329 227.191Z" fill="white"/>
<path d="M385.505 270.609C386.958 269.832 388.84 270.009 390.069 271.297C392.137 273.45 392.006 278.312 389.492 280.111C387.536 281.531 384.462 280.843 383.233 278.068C381.947 275.227 383.344 271.763 385.505 270.609Z" fill="white"/>
<path d="M143.92 227.883C140.306 241.225 136.711 254.59 133.097 267.932C128.924 268.376 124.752 268.842 120.561 269.286C121.697 274.725 122.833 280.142 123.969 285.581C126.056 285.359 128.142 285.137 130.228 284.893C129.856 281.962 129.465 279.01 129.092 276.079C138.387 276.301 147.701 276.523 156.997 276.767C156.233 279.698 155.469 282.65 154.724 285.581C157.183 285.359 159.661 285.137 162.12 284.893C163.833 279.454 165.528 274.037 167.242 268.598C163.628 268.154 160.033 267.688 156.419 267.244C152.247 254.123 148.074 241.003 143.883 227.883H143.92Z" fill="white"/>
<path d="M184.921 223.125C179.798 242.816 174.675 262.486 169.553 282.177C171.825 282.399 174.117 282.621 176.389 282.865C177.917 278.115 179.426 273.364 180.953 268.613H192.335C193.657 273.364 194.999 278.115 196.321 282.865H203.158C197.085 262.952 191.012 243.038 184.939 223.147L184.921 223.125Z" fill="white"/>
<path d="M248.403 223.125C243.187 242.816 237.972 262.486 232.774 282.177C235.084 282.399 237.413 282.621 239.723 282.865C241.269 278.115 242.815 273.364 244.361 268.613H255.948C257.307 273.364 258.649 278.115 260.008 282.865H266.957C260.772 262.952 254.606 243.038 248.422 223.147L248.403 223.125Z" fill="white"/>
<path d="M208.28 230.58C208.467 247.097 208.653 263.614 208.858 280.131C220.742 282.995 229.758 276.889 230.503 271.317C231.211 266.034 224.952 257.82 214.558 255.022C222.475 253.313 226.908 244.833 225.735 238.727C224.468 232.178 216.439 226.628 208.28 230.58Z" fill="white"/>
<path d="M271.484 229.92C271.857 246.658 272.248 263.397 272.621 280.136C280.407 269.058 288.194 257.958 295.98 246.88C295.403 257.958 294.844 269.058 294.266 280.136H301.103L302.817 224.48C300.358 224.924 297.88 225.391 295.421 225.835C289.907 236.247 284.412 246.658 278.898 257.048C278.712 247.102 278.526 237.135 278.321 227.189C276.048 228.099 273.757 229.009 271.484 229.897V229.92Z" fill="white"/>
<path d="M277.762 213.627C282.326 214.759 286.871 215.892 291.435 217.024C292.012 214.759 292.571 212.495 293.148 210.231L279.476 206.168C278.898 208.654 278.339 211.141 277.762 213.627Z" fill="white"/>
<path d="M346.667 226.52V281.487C354.826 281.265 362.985 281.043 371.163 280.799C370.585 278.312 370.026 275.826 369.449 273.34H352.367V259.775C356.931 259.997 361.476 260.219 366.04 260.464C365.854 257.067 365.668 253.67 365.463 250.274H354.081C353.895 245.523 353.708 240.772 353.503 236.021C359.39 236.465 365.276 236.931 371.163 237.375V228.562C363.004 227.874 354.845 227.208 346.667 226.52Z" fill="white"/>
</svg>
