<svg width="365" height="272" viewBox="0 0 365 272" fill="none" xmlns="http://www.w3.org/2000/svg">
<path d="M158.731 269.663C155.558 263.856 142.401 238.286 153.932 213.187C156.508 207.592 159.568 200.934 166.863 196.449C181.116 187.693 196.689 196.343 231.49 202.378C239.317 203.731 259.753 207.197 282.573 207.136C324.589 207.03 338.487 195.111 351.129 203.062C360.405 208.9 368.006 224.786 358.891 269.998C292.171 269.876 227.415 269.785 160.694 269.663H158.731Z" fill="#AA5DE5" stroke="black" stroke-width="4" stroke-miterlimit="10"/>
<path d="M228.583 199.165C223.936 198.982 219.289 198.784 214.643 198.602C215.792 205.163 219.241 219.046 231.189 231.635C236.225 236.948 247.396 248.73 262 249.43C280.263 250.313 299.887 233.69 308.014 208.009" fill="#F3CDB0"/>
<path d="M228.583 199.165C223.936 198.982 219.289 198.784 214.643 198.602C215.792 205.163 219.241 219.046 231.189 231.635C236.225 236.948 247.396 248.73 262 249.43C280.263 250.313 299.887 233.69 308.014 208.009" stroke="black" stroke-width="4" stroke-miterlimit="10"/>
<path d="M224.445 146.736C224.171 146.041 221.191 139.046 213.636 137.332C204.825 135.325 198.365 142.443 197.882 142.999C191.745 149.993 194.387 159.659 194.886 161.435C198.22 173.586 212.686 182.604 231.242 184.904" fill="#F3CDB0"/>
<path d="M224.445 146.736C224.171 146.041 221.191 139.046 213.636 137.332C204.825 135.325 198.365 142.443 197.882 142.999C191.745 149.993 194.387 159.659 194.886 161.435C198.22 173.586 212.686 182.604 231.242 184.904" stroke="black" stroke-width="4" stroke-miterlimit="10"/>
<path d="M307.763 142.159C308.517 140.88 311.372 136.433 317.084 134.712C323.918 132.657 331.057 135.611 334.747 139.829C342.48 148.707 334.522 162.746 333.768 164.041C325.314 178.492 305.966 179.893 303.864 180.014" fill="#F3CDB0"/>
<path d="M307.763 142.159C308.517 140.88 311.372 136.433 317.084 134.712C323.918 132.657 331.057 135.611 334.747 139.829C342.48 148.707 334.522 162.746 333.768 164.041C325.314 178.492 305.966 179.893 303.864 180.014" stroke="black" stroke-width="4" stroke-miterlimit="10"/>
<path d="M213.256 117.557C248.019 115.228 282.783 112.899 317.546 110.57C319.371 118.074 321.502 129.55 321.502 143.614C321.502 158.454 321.454 199.352 294.344 218.074C290.985 220.387 280.506 227.632 266.701 226.917C258.563 226.491 252.589 223.447 249.424 221.803C235.99 214.816 229.532 203.736 226.206 198.028C209.203 168.82 212.659 124.421 213.256 117.557Z" fill="#F3CDB0" stroke="black" stroke-width="4" stroke-miterlimit="10"/>
<path d="M231.243 153.285C232.08 152.2 235.649 147.827 241.87 146.92C248.517 145.953 255.465 149.374 259.255 155.561" stroke="black" stroke-width="4" stroke-miterlimit="10"/>
<path d="M286.227 153.608C286.881 152.382 289.778 147.372 295.98 145.503C302.609 143.496 310.317 145.901 315.276 151.616" stroke="black" stroke-width="4" stroke-miterlimit="10"/>
<path d="M233.836 168.282C236.987 168.282 239.542 164.341 239.542 159.479C239.542 154.617 236.987 150.676 233.836 150.676C230.685 150.676 228.13 154.617 228.13 159.479C228.13 164.341 230.685 168.282 233.836 168.282Z" fill="black"/>
<path d="M289.86 167.301C293.012 167.301 295.566 163.36 295.566 158.498C295.566 153.637 293.012 149.695 289.86 149.695C286.709 149.695 284.154 153.637 284.154 158.498C284.154 163.36 286.709 167.301 289.86 167.301Z" fill="black"/>
<path d="M210.591 141.874C209.526 131.701 208.445 121.513 207.381 111.339C213.398 106.465 222.576 98.5394 232.528 87.5918C249.982 68.3994 252.772 58.6666 268.532 47.3698C276.71 41.5088 286.808 34.2661 301.083 34.2813C302.132 34.2813 326.828 34.6761 336.587 52.6993C341.813 62.3562 340.087 72.1195 339.055 77.9045C335.538 97.6436 321.392 109.745 315.956 113.921C301.083 117.838 283.13 121.346 262.612 122.97C247.756 124.139 234.158 124.109 222.173 123.456C218.317 129.59 214.446 135.74 210.591 141.874Z" fill="black"/>
<path d="M257.178 133.931C253.894 132.86 247.423 131.227 239.39 132.639C231.373 134.05 225.731 137.773 222.941 139.915" stroke="black" stroke-width="4" stroke-miterlimit="10"/>
<path d="M283.115 133.612C286.559 132.675 293.206 131.325 301.316 132.632C307.094 133.57 311.471 135.503 314.239 136.98" stroke="black" stroke-width="4" stroke-miterlimit="10"/>
<path d="M264.44 218.159C265.398 216.454 266.967 214.18 269.493 212.06C274.71 207.666 280.638 206.698 283.115 206.422" stroke="black" stroke-width="4" stroke-miterlimit="10"/>
<path d="M39.9082 233.835C41.2189 223.546 41.8014 220.956 41.0732 208.585C38.3063 161.245 17.7892 125.014 3 104.057C15.1194 91.4123 29.4069 85.3941 39.9082 89.2087C42.7884 90.2573 48.128 93.0536 54.5518 106.807C59.1633 116.701 65.5061 134.74 63.3055 160.363C75.0204 159.33 84.8421 158.798 92.0425 158.509C118.077 157.445 125.375 158.844 128.951 163.464C129.501 164.163 132.688 168.296 131.297 172.81C130.358 175.865 127.77 177.628 126.604 178.312C127.236 181.67 128.692 191.868 122.511 201.974C111.88 219.314 88.9843 219.588 87.9488 219.573C88.5313 228.919 89.1138 238.281 89.7125 247.627C87.3339 249.253 77.8682 255.317 64.5191 254.223C50.2639 253.068 41.7528 244.588 39.9244 242.673L39.9082 233.835Z" fill="white" stroke="black" stroke-width="4" stroke-miterlimit="10"/>
<path d="M54.8734 172.498C54.6799 169.656 76.2971 165.675 95.722 165.365C105.523 165.21 122.046 165.872 122.304 168.263C122.562 170.74 105.539 174.749 89.7414 175.79C73.7179 176.846 55.0507 175.101 54.8734 172.484V172.498Z" fill="black"/>
<path d="M45.5952 175.132C42.8951 175.071 42.3551 158.495 39.2738 135.011C35.7001 107.793 32.3806 99.4747 38.7973 91.2016C39.5914 90.1845 45.1346 83.2473 54.2196 82.2606C54.2196 82.2606 62.7805 81.3346 71.1825 87.4825C83.6665 96.6361 82.2371 125.736 68.8795 159.466C61.8116 160.362 53.9178 162.669 49.4547 168.741C46.9135 172.187 46.7388 175.147 45.5952 175.117V175.132Z" fill="white" stroke="black" stroke-width="4" stroke-miterlimit="10"/>
<path d="M92.5163 172.192C92.4678 155.135 93.2108 141.478 93.9375 131.89C95.1003 116.418 96.5054 101.159 88.9633 86.2822C88.3011 84.9865 87.6067 83.8585 86.8476 82.7763C84.2798 79.0722 74.8158 65.3991 58.4396 62.2133C44.5021 59.5 35.0381 66.2375 27.6737 60.5366C22.9255 56.863 21.4074 49.8206 23.8945 45.0038C28.465 36.0866 45.3903 37.2298 48.0389 37.4432C58.1327 38.2968 65.0773 43.1289 67.9682 45.4154C69.0179 46.9092 70.1323 48.4335 70.2938 48.3573C70.7137 48.1439 60.523 37.2451 60.8298 25.264C61.0559 16.1791 67.4029 3.78641 78.3365 2.17064C91.8218 0.189034 101.948 16.0876 102.949 17.7034C104.435 20.1118 109.345 28.0382 106.68 36.1628C105.905 38.5407 104.419 41.1168 104.661 41.2235C105.178 41.4522 109.732 28.0535 118.098 26.9407C123.25 26.2548 129.613 30.2637 130.873 34.9129C132.988 42.6716 120.795 51.4821 121.183 51.787C121.49 52.0157 127.481 45.4306 135.136 39.9583C142.533 34.669 150.77 28.7851 162.123 28.6175C171.41 28.4803 182.424 32.1843 188.626 40.3699C189.659 41.7418 196.975 51.6803 192.405 58.8446C186.833 67.5941 167.824 65.4601 164.949 65.14C153.111 63.8138 152.062 59.5153 142.695 59.2561C126.496 58.8141 113.156 71.1915 113.818 72.2738C114.206 72.914 119.406 69.4995 128.499 69.3318C132.036 69.2709 139.077 69.2404 144.6 73.5237C146.038 74.6517 150.188 77.8832 149.801 81.9227C149.284 87.3492 140.757 92.1203 134.184 91.16C126.593 90.0472 124.833 81.755 119.035 81.9227C114.125 82.0598 110.685 88.1266 109.377 90.3978C98.7502 108.933 98.6372 159.937 98.6856 170.836C96.6346 171.278 94.5835 171.72 92.5324 172.177L92.5163 172.192Z" fill="#8ADEFF" stroke="black" stroke-width="4" stroke-miterlimit="10"/>
<path d="M302.308 194.681C308.325 194.681 313.202 190.083 313.202 184.411C313.202 178.739 308.325 174.141 302.308 174.141C296.292 174.141 291.415 178.739 291.415 184.411C291.415 190.083 296.292 194.681 302.308 194.681Z" fill="#FF8F71"/>
<path d="M237.468 197.628C243.77 197.628 248.88 192.811 248.88 186.869C248.88 180.926 243.77 176.109 237.468 176.109C231.165 176.109 226.056 180.926 226.056 186.869C226.056 192.811 231.165 197.628 237.468 197.628Z" fill="#FF8F71"/>
<path d="M328.721 236.035C329.854 229.801 330.679 218.885 324.692 208.257C323.722 206.524 315.6 192.445 307.283 193.799C304.031 194.331 300.796 197.219 300.618 200.108C300.407 203.727 305.083 205.247 308.966 210.295C311.183 213.168 313.658 217.866 313.917 225.514C310.875 226.548 306.361 228.433 301.831 231.945C298.547 234.484 289.551 241.447 288.418 252.926C287.642 260.802 290.926 267.035 292.771 269.939C305.439 269.955 318.124 269.985 330.792 270C333.008 266.26 335.905 260.695 338.153 253.61C343.687 236.156 343.768 214.217 337.458 212.378C335.856 211.906 333.154 212.545 328.414 217.821" fill="#F3CDB0"/>
<path d="M328.721 236.035C329.854 229.801 330.679 218.885 324.692 208.257C323.722 206.524 315.6 192.445 307.283 193.799C304.031 194.331 300.796 197.219 300.618 200.108C300.407 203.727 305.083 205.247 308.966 210.295C311.183 213.168 313.658 217.866 313.917 225.514C310.875 226.548 306.361 228.433 301.831 231.945C298.547 234.484 289.551 241.447 288.418 252.926C287.642 260.802 290.926 267.035 292.771 269.939C305.439 269.955 318.124 269.985 330.792 270C333.008 266.26 335.905 260.695 338.153 253.61C343.687 236.156 343.768 214.217 337.458 212.378C335.856 211.906 333.154 212.545 328.414 217.821" stroke="black" stroke-width="4" stroke-miterlimit="10"/>
</svg>
