<svg width="360" height="268" viewBox="0 0 360 268" fill="none" xmlns="http://www.w3.org/2000/svg">
<path d="M246.677 0H57.7616C45.0295 0 34.708 12.6306 34.708 28.2111V86.8022C34.708 102.383 45.0295 115.013 57.7616 115.013H246.677C259.409 115.013 269.73 102.383 269.73 86.8022V28.2111C269.73 12.6306 259.409 0 246.677 0Z" fill="#AA5DE5"/>
<path d="M41.4864 89.1953L0 136.14L69.4159 109.319L41.4864 89.1953Z" fill="#AA5DE5"/>
<path d="M101.859 248.074L304.616 248.074C317.812 248.074 328.51 235.404 328.51 219.775V174.468C328.51 158.839 317.812 146.169 304.616 146.169L101.859 146.169C88.6628 146.169 77.9651 158.839 77.9651 174.468V219.775C77.9651 235.404 88.6628 248.074 101.859 248.074Z" fill="#AA5DE5"/>
<path d="M322.359 226.094L360 267.999L297.021 244.068L322.359 226.094Z" fill="#AA5DE5"/>
<path d="M233.721 55.795L242.95 78.7937L222.263 68.6239L203.806 89.2743L211.154 63.1505L195.438 50.4252L214.638 46.1087L219.755 21.0898L228.546 42.9835L249.291 38.3216L233.721 55.795Z" fill="white"/>
<path d="M62.8043 37.4947L61.915 80.7813H67.7026C67.5568 68.6431 67.4111 56.5049 67.2507 44.3495C71.8575 44.5221 76.4643 44.6948 81.0711 44.8847C81.2168 41.8976 81.3626 38.9106 81.523 35.9062C75.2834 36.4415 69.0439 36.9595 62.8043 37.4947Z" fill="white"/>
<path d="M89.1036 36.4414C84.3219 36.804 80.9251 48.1134 80.6335 56.5048C80.3274 65.6559 83.52 77.5524 88.2143 78.1567C93.1272 78.7783 99.6438 67.0027 99.3522 55.9868C99.1044 46.5767 93.8416 36.0961 89.1036 36.4587V36.4414Z" fill="white"/>
<path d="M102.035 35.9024L101.146 41.6348C103.813 41.8075 106.496 41.9802 109.164 42.1528C108.274 54.6709 107.385 67.1889 106.496 79.7069C108.274 79.5343 110.068 79.3616 111.846 79.189C112.444 66.4983 113.041 53.8076 113.625 41.0996H123.873V35.3672C116.599 35.5399 109.309 35.7125 102.035 35.8852V35.9024Z" fill="white"/>
<path d="M244.217 176.539C243.926 178.456 243.62 180.372 243.328 182.272C245.996 182.444 248.678 182.617 251.346 182.79C250.457 195.308 249.568 207.826 248.678 220.344C250.457 220.171 252.25 219.998 254.029 219.826C254.626 207.135 255.224 194.444 255.807 181.736H266.056V176.004C258.781 176.177 251.492 176.349 244.217 176.522V176.539Z" fill="white"/>
<path d="M130.55 36.4405C126.293 36.8031 123.363 48.0262 122.969 55.9687C122.473 65.914 125.578 78.6911 130.098 79.1918C134.515 79.6925 140.201 68.4867 140.346 58.0751C140.492 47.5082 134.982 36.0434 130.535 36.4233L130.55 36.4405Z" fill="white"/>
<path d="M147.053 35.3874C146.601 50.0637 146.164 64.7228 145.712 79.3991C155.465 81.2466 162.36 74.9444 162.652 69.5573C162.885 65.2062 158.92 60.0609 153.293 57.4019C159.182 55.2263 163.556 50.599 163.541 46.4033C163.527 41.2925 157.01 34.7831 147.053 35.4047V35.3874Z" fill="white"/>
<path d="M179.141 34.8516C176.764 44.348 174.388 53.8617 172.012 63.3582C173.645 63.8934 175.277 64.4114 176.91 64.9467C179.738 55.4502 182.552 45.9365 185.38 36.4401L179.141 34.8516Z" fill="white"/>
<path d="M170.67 68.6385C171.807 68.0342 173.279 68.1723 174.242 69.1737C175.86 70.8486 175.758 74.6299 173.79 76.0285C172.259 77.1335 169.853 76.5982 168.891 74.44C167.885 72.2299 168.979 69.5363 170.67 68.6385Z" fill="white"/>
<path d="M310.171 176.508C307.795 186.004 305.418 195.518 303.042 205.014C304.675 205.55 306.308 206.068 307.94 206.603C310.769 197.106 313.582 187.593 316.41 178.096L310.171 176.508Z" fill="white"/>
<path d="M301.7 210.275C302.837 209.671 304.31 209.809 305.272 210.81C306.89 212.485 306.788 216.267 304.82 217.665C303.289 218.77 300.884 218.235 299.922 216.077C298.916 213.867 300.009 211.173 301.7 210.275Z" fill="white"/>
<path d="M112.633 177.043C109.805 187.42 106.991 197.814 104.163 208.191C100.897 208.537 97.6317 208.899 94.3516 209.245C95.2408 213.475 96.1301 217.688 97.0194 221.918C98.6522 221.745 100.285 221.573 101.918 221.383C101.626 219.104 101.32 216.807 101.028 214.528C108.303 214.701 115.592 214.873 122.867 215.063C122.269 217.342 121.672 219.639 121.088 221.918C123.013 221.745 124.952 221.573 126.876 221.383C128.217 217.153 129.544 212.94 130.885 208.709C128.057 208.364 125.243 208.001 122.415 207.656C119.149 197.452 115.884 187.247 112.604 177.043H112.633Z" fill="white"/>
<path d="M144.721 173.348C140.711 188.663 136.702 203.961 132.693 219.276C134.472 219.449 136.265 219.621 138.044 219.811C139.239 216.116 140.42 212.421 141.615 208.726H150.523C151.558 212.421 152.607 216.116 153.643 219.811H158.993C154.24 204.323 149.488 188.835 144.735 173.365L144.721 173.348Z" fill="white"/>
<path d="M194.403 173.348C190.321 188.663 186.239 203.961 182.172 219.276C183.98 219.449 185.802 219.621 187.61 219.811C188.82 216.116 190.03 212.421 191.24 208.726H200.307C201.372 212.421 202.421 216.116 203.486 219.811H208.923C204.083 204.323 199.258 188.835 194.418 173.365L194.403 173.348Z" fill="white"/>
<path d="M163.002 179.146C163.148 191.992 163.294 204.838 163.454 217.684C172.755 219.911 179.811 215.163 180.394 210.829C180.948 206.72 176.05 200.331 167.915 198.156C174.111 196.826 177.58 190.231 176.662 185.482C175.671 180.389 169.387 176.072 163.002 179.146Z" fill="white"/>
<path d="M212.466 178.629C212.757 191.647 213.064 204.666 213.355 217.685C219.449 209.069 225.543 200.436 231.636 191.82C231.184 200.436 230.747 209.069 230.295 217.685H235.645L236.987 174.398C235.062 174.744 233.123 175.106 231.199 175.452C226.884 183.55 222.583 191.647 218.268 199.728C218.122 191.993 217.976 184.24 217.816 176.505C216.038 177.213 214.244 177.921 212.466 178.611V178.629Z" fill="white"/>
<path d="M217.379 165.958C220.951 166.838 224.508 167.719 228.079 168.599C228.531 166.838 228.969 165.077 229.421 163.316L218.72 160.156C218.268 162.09 217.831 164.024 217.379 165.958Z" fill="white"/>
<path d="M271.305 175.984V218.736C277.69 218.563 284.075 218.39 290.475 218.2C290.023 216.267 289.586 214.333 289.134 212.399H275.766V201.849C279.337 202.022 282.895 202.195 286.466 202.385C286.32 199.743 286.175 197.101 286.014 194.459H277.107C276.961 190.764 276.815 187.069 276.655 183.374C281.262 183.72 285.869 184.082 290.475 184.428V177.573C284.09 177.038 277.705 176.52 271.305 175.984Z" fill="white"/>
</svg>
