<svg width="367" height="276" viewBox="0 0 367 276" fill="none" xmlns="http://www.w3.org/2000/svg">
<path d="M218.416 69.3281C209.921 84.8342 205.408 98.9155 202.856 109.647C197.959 130.292 192.989 151.224 204.213 165.26C211.159 173.96 221.764 176.795 229.241 177.765C230.819 185.404 232.398 193.059 233.976 200.698C249.3 197.682 264.638 194.68 279.962 191.664L276.585 172.202L293.487 149.269C268.458 122.622 243.43 95.975 218.416 69.3281Z" fill="#F3CDB0" stroke="black" stroke-width="4" stroke-miterlimit="10"/>
<path d="M235.317 100.617C236.35 99.7835 243.931 93.8873 251.556 96.4489C260.965 99.6016 264.534 113.653 261.024 123.566C258.193 131.554 250.538 137.541 242.765 138.162C240.612 138.329 238.798 138.071 237.53 137.783" fill="#F3CDB0"/>
<path d="M235.317 100.617C236.35 99.7835 243.931 93.8873 251.556 96.4489C260.965 99.6016 264.534 113.653 261.024 123.566C258.193 131.554 250.538 137.541 242.765 138.162C240.612 138.329 238.798 138.071 237.53 137.783" stroke="black" stroke-width="4" stroke-miterlimit="10"/>
<path d="M149.584 273.985C153.079 267.528 158.625 258.267 166.899 248.157C178.182 234.333 210.511 194.742 261.113 191.149C268.945 190.589 290.109 189.346 312.483 200.365C355.121 221.358 363.041 267.619 364 273.834C292.528 273.894 221.056 273.94 149.584 274V273.985Z" fill="#AA5DE5" stroke="black" stroke-width="4" stroke-miterlimit="10"/>
<path d="M218.416 69.327C214.758 66.6138 206.277 59.5201 202.177 47.0758C200.511 42.0132 197.03 31.4333 201.838 22.0508C207.516 10.9404 222.59 5.81716 234.3 8.15141C248.901 11.0465 246.733 23.2331 271.835 47.773C292.985 68.4478 300.226 70.191 309.031 88.0919C313.323 96.8075 318.825 107.979 316.14 120.756C314.223 129.866 309.4 133.913 292.631 155.164C285.493 164.213 279.918 171.655 276.57 176.187C274.048 173.777 271.467 170.958 268.959 167.669C259.476 155.209 255.804 142.098 254.255 133.261C255.332 131.821 256.88 129.608 258.311 126.653C260.597 121.923 263.119 116.876 262.027 111.01C261.821 109.919 260.405 102.749 254.594 99.8844C248.798 97.0348 240.657 99.4449 235.318 106.311C232.56 111.874 229.787 117.437 227.029 123C224.389 115.557 221.749 106.266 220.097 95.3675C218.593 85.5152 218.253 76.6784 218.401 69.2967L218.416 69.327Z" fill="black"/>
<path d="M203.549 95.3672C205.289 96.4737 209.655 99.6113 211.661 105.477C212.428 107.736 212.649 109.797 212.678 111.389" stroke="black" stroke-width="4" stroke-miterlimit="10"/>
<path d="M214.953 116.566C216.171 112.335 215.626 108.44 213.736 107.865C211.845 107.291 209.326 110.254 208.108 114.485C206.891 118.715 207.436 122.61 209.326 123.185C211.216 123.76 213.736 120.796 214.953 116.566Z" fill="black"/>
<path d="M4 48.3955L181.884 6V145.706L4 206.185V48.3955Z" fill="#AA5DE5" stroke="black" stroke-width="8" stroke-miterlimit="10"/>
<path d="M100.633 170.508V211.221" stroke="black" stroke-width="4" stroke-miterlimit="10"/>
<path d="M54.3667 230.908L140.941 196.531" stroke="black" stroke-width="8" stroke-miterlimit="10"/>
<path d="M24.2939 91.8969V147.207L161.604 106.084V50.5625L24.2939 91.8969Z" fill="white"/>
<path d="M38.541 125.637C38.5705 117.665 38.6 109.692 38.6147 101.719C43.5998 99.233 48.9683 101.31 50.0892 104.159C51.0478 106.615 49.1748 110.374 44.9714 112.056C49.2928 113.602 52.0655 116.907 51.7853 119.711C51.4313 123.44 45.6351 127.305 38.541 125.637Z" fill="black"/>
<path d="M56.2542 97.5341C56.1067 105.568 55.9444 113.586 55.7969 121.619C60.6344 123.12 65.1328 121.104 66.1209 118.467C67.2271 115.526 64.4691 110.433 58.5992 109.281C58.7909 105.264 58.9974 101.263 59.1891 97.2461C58.2157 97.337 57.2276 97.4431 56.2542 97.5341Z" fill="black"/>
<path d="M68.5107 95.1413C68.6287 102.963 68.7467 110.784 68.8499 118.605L71.6227 118.453C71.6964 110.647 71.7554 102.841 71.8292 95.0352C70.723 95.0655 69.6169 95.1109 68.5107 95.1413Z" fill="black"/>
<path d="M76.3711 90.4453C76.6513 98.6 76.9316 106.77 77.2118 114.925C83.7012 116.38 88.8632 113.015 89.2909 110.029C89.7039 107.119 85.8545 102.647 79.4684 102.071C79.0702 99.1002 78.6866 96.1445 78.2884 93.1737C81.5184 93.3404 84.7483 93.5223 87.993 93.689L88.0815 91.0365L76.3711 90.4453Z" fill="black"/>
<path d="M92.3447 85.7422C92.3595 93.6847 92.3889 101.627 92.4037 109.57C93.3771 109.6 94.3653 109.615 95.3387 109.646C95.0438 105.826 94.7487 102.006 94.439 98.1865C99.6895 97.7469 103.642 95.3369 103.878 92.9723C104.144 90.2591 99.6896 86.2121 92.3447 85.7422Z" fill="black"/>
<path d="M110.824 82.6836C108.361 90.3987 105.913 98.1139 103.45 105.829L106.016 105.799C106.916 102.949 107.801 100.115 108.7 97.2651C110.16 97.4167 111.62 97.5531 113.081 97.7046C113.656 100.585 114.216 103.449 114.791 106.329L117.712 106.511C115.411 98.5686 113.11 90.6261 110.809 82.6836H110.824Z" fill="black"/>
<path d="M121.015 77.8944C121.015 85.6853 120.986 93.4914 120.971 101.282C121.753 101.434 122.549 101.586 123.331 101.737C123.213 98.7814 123.08 95.8257 122.962 92.8548L130.838 93.2035C130.838 96.2198 130.838 99.2361 130.838 102.237L132.859 102.328C133.242 94.3099 133.64 86.2916 134.024 78.2733L131.649 78.1672C131.369 82.0021 131.089 85.8218 130.809 89.6566C128.242 89.6111 125.676 89.5505 123.11 89.505C123.213 85.5489 123.316 81.5928 123.42 77.6367C122.623 77.7277 121.827 77.8035 121.03 77.8944H121.015Z" fill="black"/>
<path d="M143.581 72.9985C140.13 72.847 136.561 79.7436 136.472 85.7157C136.398 90.4448 138.493 96.7958 141.782 97.1899C145.115 97.5991 148.979 91.7483 149.628 86.4887C150.38 80.3651 147.047 73.1501 143.581 72.9985Z" fill="black"/>
<path d="M215.51 148.023C220.788 148.023 225.067 143.626 225.067 138.201C225.067 132.776 220.788 128.379 215.51 128.379C210.232 128.379 205.953 132.776 205.953 138.201C205.953 143.626 210.232 148.023 215.51 148.023Z" fill="#FF8F71"/>
</svg>
