<svg width="367" height="277" viewBox="0 0 367 277" fill="none" xmlns="http://www.w3.org/2000/svg">
<path d="M4 52.718L202.971 6V159.937L4 226.579V52.718Z" fill="#AA5DE5" stroke="black" stroke-width="8" stroke-miterlimit="10"/>
<path d="M112.072 187.266V232.119" stroke="black" stroke-width="4" stroke-miterlimit="10"/>
<path d="M60.3281 253.804L157.168 215.934" stroke="black" stroke-width="8" stroke-miterlimit="10"/>
<path d="M26.6994 76.0923C26.6994 104.597 26.6994 133.088 26.6994 161.592C53.0977 153.53 79.4821 145.454 105.88 137.392C105.742 110.107 105.603 82.8083 105.451 55.5234L26.6855 76.1063L26.6994 76.0923Z" fill="black"/>
<path d="M235.089 86.1602C230.491 104.766 229.674 120.75 230.006 132.64C230.643 155.536 231.28 178.769 247.069 190.084C256.861 197.094 268.842 196.94 277.013 195.776C280.836 203.264 284.645 210.751 288.467 218.252C303.813 210.639 319.145 203.011 334.491 195.398C331.472 188.976 328.466 182.569 325.447 176.147C329.242 166.543 333.051 156.938 336.846 147.348C302.927 126.961 269.008 106.575 235.103 86.1741L235.089 86.1602Z" fill="#F3CDB0" stroke="black" stroke-width="4" stroke-miterlimit="10"/>
<path d="M261.736 113.749C262.595 112.586 268.938 104.243 277.705 104.664C288.522 105.183 296.237 118.755 295.323 130.084C294.589 139.212 288.176 147.694 280.143 150.611C277.927 151.424 275.933 151.676 274.506 151.746" fill="#F3CDB0"/>
<path d="M261.736 113.749C262.595 112.586 268.938 104.243 277.705 104.664C288.522 105.183 296.237 118.755 295.323 130.084C294.589 139.212 288.176 147.694 280.143 150.611C277.927 151.424 275.933 151.676 274.506 151.746" stroke="black" stroke-width="4" stroke-miterlimit="10"/>
<path d="M226.451 273.999C229.749 267.999 234.937 259.25 242.289 249.553C271.866 210.524 306.397 199.961 313.188 197.952C321.831 195.385 326.263 194.129 331.125 195.399C358.681 202.557 363.583 265.502 364 271.544C318.155 272.367 272.296 273.19 226.451 273.999Z" fill="#AA5DE5" stroke="black" stroke-width="4" stroke-miterlimit="10"/>
<path d="M235.088 86.1597C230.476 84.407 219.506 79.5137 211.695 67.7781C208.509 62.9969 201.875 53.014 204.299 41.8532C207.18 28.6314 221.653 18.9008 234.672 17.8913C250.904 16.6294 252.04 29.9494 285.447 48.1206C313.59 63.4316 321.72 63.1371 336.069 79.1631C343.063 86.9728 351.996 96.9698 352.758 111.061C353.298 121.1 349.337 126.722 337.62 153.727C332.62 165.238 328.839 174.604 326.568 180.297C323.23 178.53 319.712 176.357 316.138 173.665C302.621 163.486 295.045 150.909 290.931 142.188C291.665 140.379 292.676 137.617 293.355 134.126C294.449 128.545 295.668 122.558 292.884 116.768C292.358 115.688 288.854 108.649 281.901 107.373C274.976 106.098 267.054 111.005 263.356 119.698C261.998 126.288 260.655 132.878 259.298 139.468C254.422 132.499 249.021 123.596 244.201 112.758C239.838 102.943 236.985 93.8572 235.088 86.1456V86.1597Z" fill="black"/>
<path d="M226.709 117.609C228.856 118.254 234.34 120.245 238.108 125.742C239.562 127.859 240.365 129.934 240.836 131.588" stroke="black" stroke-width="4" stroke-miterlimit="10"/>
<path d="M243.873 134.176C243.969 129.415 242.1 125.514 239.699 125.465C237.297 125.415 235.273 129.235 235.177 133.996C235.081 138.757 236.95 142.657 239.351 142.707C241.752 142.757 243.777 138.937 243.873 134.176Z" fill="black"/>
<path d="M29.8916 158.207C31.9691 151.827 35.7502 142.644 42.6752 133.18C48.9632 124.585 55.6528 118.766 60.6388 115.078C52.9105 110.227 48.6446 101.31 49.8911 92.6448C51.0823 84.3864 57.4533 75.1746 66.2204 75.0904C73.4225 75.0203 79.1149 81.1335 81.3863 86.8821C84.6411 95.0984 82.0234 105.362 74.5997 112.134C79.198 113.326 86.9679 116.046 94.5577 122.65C99.2529 126.744 100.118 131.684 102.209 135.063C77.3204 142.985 54.7802 150.285 29.8916 158.207Z" fill="#8ADEFF" stroke="black" stroke-width="4" stroke-miterlimit="10"/>
<path d="M114.773 55.5097L186.337 37.9414V52.5093L114.773 69.6569V55.5097Z" fill="white"/>
<path d="M123.693 84.0554L125.826 88.2897L121.491 86.6493L117.959 90.7995L119.178 85.7519L115.826 83.5506L119.69 82.485L120.452 77.6758L122.488 81.6998L126.671 80.5361L123.693 84.0554Z" fill="white"/>
<path d="M136.753 80.2155L138.886 84.4499L134.564 82.8094L131.033 86.9596L132.237 81.9121L128.886 79.7248L132.75 78.6451L133.512 73.8359L135.548 77.86L139.73 76.6962L136.753 80.2155Z" fill="white"/>
<path d="M149.828 76.8194L151.961 81.0537L147.639 79.3992L144.108 83.5635L145.313 78.5159L141.961 76.3146L145.825 75.235L146.601 70.4258L148.623 74.4638L152.806 73.3001L149.828 76.8194Z" fill="white"/>
<path d="M162.887 72.9812L165.034 77.2155L160.699 75.561L157.167 79.7253L158.372 74.6777L155.034 72.4764L158.898 71.3968L159.66 66.6016L161.696 70.6256L165.865 69.4619L162.887 72.9812Z" fill="white"/>
<path d="M175.825 69.585L177.971 73.8053L173.636 72.1649L170.105 76.3291L171.31 71.2815L167.972 69.0802L171.836 68.0006L172.598 63.1914L174.634 67.2295L178.816 66.0657L175.825 69.585Z" fill="white"/>
<path d="M248.037 168.519C252.994 168.519 257.012 164.451 257.012 159.433C257.012 154.415 252.994 150.348 248.037 150.348C243.081 150.348 239.062 154.415 239.062 159.433C239.062 164.451 243.081 168.519 248.037 168.519Z" fill="#FF8F71"/>
</svg>
