<svg width="363" height="271" viewBox="0 0 363 271" fill="none" xmlns="http://www.w3.org/2000/svg">
<path d="M162.958 127.713C170.158 121.518 177.508 114.841 184.928 107.646C196.533 96.4024 206.802 85.3442 215.874 74.7674C213.423 73.4345 200.676 66.7576 187.447 71.0402C175.375 74.9402 170.57 85.48 166.826 93.6749C160.549 107.424 161.568 120.247 162.958 127.701V127.713Z" fill="#F3CDB0" stroke="black" stroke-width="4" stroke-miterlimit="10"/>
<path d="M168.519 77.0739C173.158 72.3964 177.631 70.2489 180.729 69.1505C190.379 65.7195 197.592 68.5951 214.813 65.7565C217.387 65.3369 219.452 64.905 220.704 64.6211C221.104 65.8923 221.475 67.8423 220.704 69.9033C219.19 73.9391 214.317 75.6175 211.027 76.6913C205.08 78.6536 201.708 77.9995 194.618 78.5795C190.805 78.8881 185.134 79.6286 178.21 81.6032" fill="#F3CDB0"/>
<path d="M168.519 77.0739C173.158 72.3964 177.631 70.2489 180.729 69.1505C190.379 65.7195 197.592 68.5951 214.813 65.7565C217.387 65.3369 219.452 64.905 220.704 64.6211C221.104 65.8923 221.475 67.8423 220.704 69.9033C219.19 73.9391 214.317 75.6175 211.027 76.6913C205.08 78.6536 201.708 77.9995 194.618 78.5795C190.805 78.8881 185.134 79.6286 178.21 81.6032" stroke="black" stroke-width="4" stroke-miterlimit="10"/>
<path d="M143.685 117.073C147.25 109.409 151.779 100.979 157.574 92.1673C161.195 86.6505 164.884 81.6275 168.518 77.0734C174.96 76.95 181.403 76.8265 187.859 76.7031C192.36 82.1088 196.848 87.5145 201.349 92.9201C199.353 96.8324 195.32 99.2637 191.672 98.9552C186.62 98.5232 181.829 92.8091 183.674 86.1322C180.591 86.5148 177.507 86.885 174.41 87.2676C175.47 89.5138 176.777 92.8708 177.356 97.0793C177.81 100.375 178.801 108.397 173.983 116.703C168.229 126.638 157.932 130.451 155.041 131.414" fill="#F3CDB0"/>
<path d="M143.685 117.073C147.25 109.409 151.779 100.979 157.574 92.1673C161.195 86.6505 164.884 81.6275 168.518 77.0734C174.96 76.95 181.403 76.8265 187.859 76.7031C192.36 82.1088 196.848 87.5145 201.349 92.9201C199.353 96.8324 195.32 99.2637 191.672 98.9552C186.62 98.5232 181.829 92.8091 183.674 86.1322C180.591 86.5148 177.507 86.885 174.41 87.2676C175.47 89.5138 176.777 92.8708 177.356 97.0793C177.81 100.375 178.801 108.397 173.983 116.703C168.229 126.638 157.932 130.451 155.041 131.414" stroke="black" stroke-width="4" stroke-miterlimit="10"/>
<path d="M141.58 115.184L163.041 134.424C148.311 148.765 133.582 163.106 118.853 177.435C128.654 181.52 137.078 184.285 143.259 186.111C159.117 190.813 172.704 193.072 185.341 195.17C191.15 196.133 195.982 196.836 199.313 197.293C201.722 201.835 210.505 216.904 229.529 223.47C251.954 231.208 279.444 223.988 297.711 204.982C304.442 207.462 311.986 210.943 319.598 215.929C345.602 232.936 355.995 256.558 360.001 267.998C298.413 267.246 236.825 266.493 175.237 265.74C172.567 258.063 169.91 250.399 167.239 242.723C155.387 239.859 141.69 235.515 127.263 228.764C91.9131 212.239 69.6952 189.518 57.4023 174.424C85.4569 154.677 113.511 134.93 141.58 115.184Z" fill="#AA5DE5" stroke="black" stroke-width="4" stroke-miterlimit="10"/>
<path d="M199.326 197.307C210.862 196.85 222.398 196.394 233.933 195.937C234.993 189.519 236.053 183.114 237.127 176.696C255.201 172.92 273.276 169.155 291.35 165.379C288.157 176.696 284.977 188.026 281.783 199.343C287.868 201.515 293.938 203.7 300.023 205.872C297.173 209.624 286.463 222.694 266.228 227.63C261.258 228.84 245.249 232.666 227.945 225.372C208.852 217.313 201.13 201.355 199.312 197.307H199.326Z" fill="#F3CDB0" stroke="black" stroke-width="4" stroke-miterlimit="10"/>
<path d="M265.374 52.158C251.457 54.2808 243.115 63.8827 232.97 75.5332C229.005 80.0873 187.502 128.973 209.568 163.196C216.671 174.205 227.436 179.191 231.18 180.734C253.316 189.867 282.114 182.98 305.006 163.196C307.14 164.751 310.788 167.01 315.812 168.207C324.595 170.293 336.929 168.972 344.624 160.691C350.984 153.841 355.278 141.018 348.23 133.971C341.816 127.553 327.293 127.233 316.721 136.477C321.25 130.873 328.683 119.791 328.421 105.585C327.871 75.5085 293.071 47.9248 265.402 52.158H265.374Z" fill="#F3CDB0" stroke="black" stroke-width="4" stroke-miterlimit="10"/>
<path d="M215.735 259.993C214.593 262.19 212.858 264.189 210.669 265.929H167.693C163.411 262.511 161.25 259.03 160.892 258.45C159.695 256.463 155.042 248.416 158.194 238.827C158.759 237.111 162.998 224.881 175.388 222.659C183.248 221.252 189.704 224.708 191.535 225.757C187.24 217.229 185.23 209.799 184.211 204.443C182.56 195.828 181.183 188.029 185.932 184.598C188.217 182.956 191.893 182.327 194.536 183.536C199.257 185.708 199.175 193.052 199.505 199.111C199.932 206.948 201.322 217.97 205.686 231.681C204.998 228.571 204.296 222.696 207.448 216.686C208.797 214.094 211.674 208.602 216.946 208.121C219.548 207.886 223.169 208.812 224.628 211.145C227.642 215.933 218.227 221.45 214.827 232.582C210.738 245.997 220.47 250.86 215.735 259.993Z" fill="#F3CDB0" stroke="black" stroke-width="4" stroke-miterlimit="10"/>
<path d="M170.226 121.801C181.651 131.724 193.063 141.634 204.489 151.557C203.126 144.473 202.093 133.39 205.975 120.851C207.627 115.531 209.816 111.051 214.386 103.498C220.044 94.1433 228.634 81.2586 241.174 66.4115C237.017 63.178 232.846 59.9445 228.689 56.7109C226.142 59.8581 223.595 63.0052 221.049 66.1523C221.255 66.9299 221.902 69.6821 220.278 72.5577C218.006 76.5564 213.257 77.3709 212.707 77.4573C209.279 81.5795 205.838 85.7016 202.41 89.8237C202.258 90.774 201.956 91.8354 201.35 92.9338C198.748 97.5743 192.829 98.7591 191.673 98.9689C184.528 106.584 177.37 114.199 170.226 121.813" fill="black"/>
<path d="M244.203 63.388C240.348 57.4393 237.526 49.9108 237.526 49.9108C234.471 41.753 231.552 33.9283 233.314 25.7581C235.82 14.194 247.562 2.69153 262.016 0.408316C283.38 -2.96097 299.651 15.5392 302.336 18.5876C306.906 23.7835 311.696 37.3964 321.277 64.6222C325.682 77.1366 324.264 73.9771 327.169 81.9746C333.543 99.4998 336.309 103.523 336.007 111.027C335.841 115.334 334.602 122.011 328.835 130.107C323.769 133.625 318.565 137.45 313.293 141.597C310.072 144.127 306.988 146.645 304.029 149.138C301.606 144.868 299.183 139.425 297.71 132.909C293.636 114.878 299.445 99.8577 302.762 92.9093C300.436 92.4773 257.721 84.2331 244.203 63.3756V63.388Z" fill="black"/>
<path d="M220.719 103.214C221.737 102.387 226.019 99.0797 231.497 99.5734C237.348 100.092 242.18 104.757 243.529 111.31" stroke="black" stroke-width="4" stroke-miterlimit="10"/>
<path d="M264.659 117.405C265.568 116.479 269.436 112.752 274.901 113.048C280.751 113.357 286.065 118.133 288.157 125.093" stroke="black" stroke-width="4" stroke-miterlimit="10"/>
<path d="M226.085 110.053C227.453 105.732 226.41 101.681 223.755 101.005C221.101 100.33 217.839 103.285 216.471 107.606C215.102 111.927 216.145 115.978 218.8 116.653C221.455 117.329 224.716 114.374 226.085 110.053Z" fill="black"/>
<path d="M271.008 123.37C272.37 119.069 271.281 115.023 268.575 114.335C265.869 113.646 262.571 116.574 261.209 120.876C259.846 125.177 260.936 129.222 263.642 129.911C266.348 130.6 269.646 127.671 271.008 123.37Z" fill="black"/>
<path d="M223.018 156.321C228.62 157.95 240.61 160.628 254.582 157.173C260.515 155.704 265.265 153.507 268.789 151.508" stroke="black" stroke-width="4" stroke-miterlimit="10"/>
<path d="M262.153 95.7227C265.347 98.5119 269.463 101.647 274.584 104.695C281.026 108.521 287.152 111.051 292.135 112.742" stroke="black" stroke-width="4" stroke-miterlimit="10"/>
<path d="M218.434 89.217C219.094 88.7356 224.904 84.6382 232.984 85.5391C239.839 86.3043 245.525 90.3524 247.149 95.721" stroke="black" stroke-width="4" stroke-miterlimit="10"/>
<path d="M106.229 107.262L131.902 108.398C125.308 103.992 118.714 99.5983 112.12 95.1923C114.819 89.8977 118.838 79.9009 116.746 68.0282C112.823 45.7021 88.8426 25.2272 59.5078 25.0174C31.288 24.8076 7.33563 43.4189 1.43013 67.2754C-4.33772 90.5765 7.48706 117.321 34.2614 127.651C59.9208 137.561 90.701 129.058 106.229 107.275V107.262Z" fill="#AA5DE5"/>
<path d="M72.5305 77.4822L84.4516 98.3891L60.2928 90.2559L40.6078 110.792L47.3392 85.8623L28.6729 75.0139L50.23 69.6946L54.4974 45.9492L65.8403 65.844L89.1457 60.0928L72.5305 77.4822Z" fill="white"/>
<path d="M284.414 153.68C289.614 153.68 293.83 149.901 293.83 145.239C293.83 140.576 289.614 136.797 284.414 136.797C279.214 136.797 274.998 140.576 274.998 145.239C274.998 149.901 279.214 153.68 284.414 153.68Z" fill="#FF8F71"/>
<path d="M206.582 148.211C207.532 148.655 209.032 149.198 210.877 149.149C215.061 149.026 220.292 145.841 220.292 140.707C220.292 136.042 216.08 132.266 210.877 132.266C209.004 132.266 207.669 132.759 207.669 132.759C207.008 133.055 206.554 133.426 206.293 133.673C205.935 135.709 205.687 138.165 205.742 140.954C205.797 143.731 206.155 146.187 206.596 148.199L206.582 148.211Z" fill="#FF8F71"/>
</svg>
