<svg width="349" height="276" viewBox="0 0 349 276" fill="none" xmlns="http://www.w3.org/2000/svg">
<path d="M86.575 149.462C91.5771 146.03 96.5941 142.597 101.596 139.165L88.8527 128.077C90.9071 127.987 94.7481 127.546 98.4104 125.305C102.177 123 107.462 117.702 105.244 113.817C103.472 110.721 97.3832 109.309 94.3164 111.045C91.4729 112.651 92.6192 116.174 90.2224 116.99C87.7213 117.845 82.9574 115.164 82.0344 111.446C81.0221 107.405 84.7736 103.066 87.498 103.131C89.7311 103.183 89.865 106.162 93.4082 107.483C96.5345 108.648 100.986 108.014 102.966 105.903C106.062 102.574 102.787 95.8773 98.4104 92.4449C92.8574 88.0799 84.2526 87.9115 77.9255 90.4631C71.0625 93.235 66.5665 99.3615 66.1199 106.291C64.1846 105.009 61.2219 102.859 58.1254 99.776C53.3764 95.0224 52.7065 91.8749 49.6546 91.4863C46.3943 91.0719 42.1812 93.9214 41.3921 97.0948C40.2756 101.576 46.037 106.421 50.6074 110.268C53.7634 112.91 56.7707 114.762 56.4729 115.19C56.0114 115.876 46.8409 109.296 40.1417 111.848C37.2386 112.949 34.7972 115.772 35.1396 118.182C35.7351 122.365 44.3696 124.541 50.6074 126.096C54.4036 127.054 57.6193 127.469 59.7035 127.676C68.6508 134.942 77.6129 142.196 86.5601 149.462H86.575Z" fill="#F3CDB0" stroke="black" stroke-width="4" stroke-miterlimit="10"/>
<path d="M206.268 126.491C201.49 125.26 194.374 124.043 186.245 125.299C175.72 126.931 169.229 131.827 163.036 135.596C154.907 140.531 142.313 146.541 123.436 150.245C115.471 145.958 107.506 141.671 99.5418 137.371C93.706 140.997 87.8553 144.637 82.0195 148.264C86.3219 152.318 91.3091 156.605 97.0407 160.931C104.201 166.345 111.169 170.775 117.526 174.389C129.301 172.692 141.077 171.008 152.838 169.312C151.126 172.096 149.087 175.011 146.645 177.951C136.507 190.178 124.046 197.47 114.786 201.706C123.629 204.983 133.5 208.117 144.367 210.812C171.656 217.56 196.324 219.283 215.826 219.127C224.654 210.345 234.227 199.685 243.591 187.057C253.059 174.272 260.324 162.136 265.892 151.411C275.673 149.753 297.87 144.78 318.235 128.446C334.85 115.131 342.576 100.404 346 92.4124C328.403 81.8561 310.807 71.2868 293.21 60.7305L280.928 76.973C290.411 84.2782 299.909 91.5705 309.392 98.8757C304.465 106.466 298.629 110.779 295.041 113.007C286.347 118.421 277.236 120.17 269.093 121.724C264.373 122.631 260.413 123.071 257.719 123.304C255.783 126.206 251.496 131.736 243.606 135.583C240.628 137.034 226.724 143.821 215.603 137.863C209.365 134.521 211.136 132.772 210.362 130.44L206.268 126.491Z" fill="#AA5DE5" stroke="black" stroke-width="4" stroke-miterlimit="10"/>
<path d="M196.204 125.847C198.601 135.484 203.901 139.318 206.283 140.742C219.205 148.436 244.022 142.802 264.09 123.321H252.716C258.552 116.301 264.388 109.294 270.209 102.273C257.242 102.96 244.275 103.633 231.323 104.32C227.527 111.716 223.731 119.099 219.949 126.495C212.044 126.287 216.241 126.702 208.336 126.495L196.204 125.847Z" fill="#F3CDB0" stroke="black" stroke-width="4" stroke-miterlimit="10"/>
<path d="M243.591 37.3958C237.234 39.9863 214.62 49.9986 205.361 72.2381C203.708 76.1886 192.766 102.469 209.008 115.007C221.111 124.346 241.924 120.797 254.072 115.007C260.31 112.028 264.582 108.324 267.217 105.63C269.659 106.472 277.087 108.738 285.484 106.29C291.528 104.529 301.502 99.3478 301.636 90.8509C301.711 86.3175 299.001 80.8127 293.21 78.3776C286.705 75.6317 278.115 77.5098 272.949 83.3255C273.693 80.722 277.132 67.614 268.17 54.4154C259.952 42.3177 246.851 38.3024 243.591 37.3828V37.3958Z" fill="#F3CDB0" stroke="black" stroke-width="4" stroke-miterlimit="10"/>
<path d="M224.118 42.0973C218.55 38.2633 214.948 35.2583 211.732 31.0488C209.142 27.6552 199.599 15.156 205.36 6.89227C210.318 -0.231625 225.011 -1.86362 234.941 2.13871C247.476 7.20315 243.442 17.1248 257.704 30.6472C273.186 45.3354 287.404 43.9365 292.748 56.3839C296.187 64.4015 293.433 72.73 290.694 78.3644C287.731 78.2219 282.759 78.4421 278.412 81.1362C276.417 82.3667 275.226 83.6749 273.41 85.6955C271.415 87.9234 268.75 91.2781 266.353 95.8892C265.862 90.3066 265.013 84.1671 263.629 77.5743C262.334 71.4348 260.756 65.8134 259.073 60.749C243.084 54.2338 231.606 47.2524 224.118 42.0973Z" fill="black"/>
<path d="M103.427 233.805C94.4798 234.737 81.8107 237.004 68.0698 242.911C46.0218 252.392 33.0103 266.16 26.8321 273.802L86.5597 273.997C97.9633 264.671 108.34 260.565 115.233 258.557C121.917 256.614 131.281 254.905 140.332 253.26C146.734 252.094 149.056 251.848 152.674 251.174C182.568 245.631 191.649 240.747 196.8 237.367C206.268 231.163 211.866 223.87 214.932 219.156C198.735 219.855 176.806 219.194 151.93 213.612C137.221 210.309 124.626 205.996 114.31 201.734C109.501 200.867 101.73 199.597 92.0977 198.561C59.0332 195.038 27.0554 191.631 10.9771 207.278C9.83082 208.392 -1.02195 219.156 2.81896 227.471C8.78874 240.385 47.1681 240.851 103.427 233.805C98.8268 237.03 92.3508 242.276 86.5597 250.047C83.2547 254.477 79.0118 260.176 80.1879 261.135C81.632 262.326 91.7107 256.588 130.611 225.101C103.263 222.07 75.9302 219.026 48.5823 215.995" fill="black"/>
<path d="M103.427 233.805C94.4798 234.737 81.8107 237.004 68.0698 242.911C46.0218 252.392 33.0103 266.16 26.8321 273.802L86.5597 273.997C97.9633 264.671 108.34 260.565 115.233 258.557C121.917 256.614 131.281 254.905 140.332 253.26C146.734 252.094 149.056 251.848 152.674 251.174C182.568 245.631 191.649 240.747 196.8 237.367C206.268 231.163 211.866 223.87 214.932 219.156C198.735 219.855 176.806 219.194 151.93 213.612C137.221 210.309 124.626 205.996 114.31 201.734C109.501 200.867 101.73 199.597 92.0977 198.561C59.0332 195.038 27.0554 191.631 10.9771 207.278C9.83082 208.392 -1.02195 219.156 2.81896 227.471C8.78874 240.385 47.1681 240.851 103.427 233.805ZM103.427 233.805C98.8268 237.03 92.3508 242.276 86.5597 250.047C83.2547 254.477 79.0118 260.176 80.1879 261.135C81.632 262.326 91.7107 256.588 130.611 225.101C103.263 222.07 75.9302 219.026 48.5823 215.995" stroke="white" stroke-width="4" stroke-miterlimit="10"/>
<path d="M108.415 199.415C110.752 197.187 113.089 194.96 115.441 192.719C122.379 195.594 129.703 198.327 137.445 200.84C168.827 211.059 198.006 214.829 222.659 215.593C219.533 220.074 216.422 224.569 213.295 229.051C200.715 228.014 186.513 226.007 171.164 222.354C145.871 216.357 124.805 207.679 108.429 199.402L108.415 199.415Z" fill="black"/>
<path d="M212.135 67.9375C211.048 69.4529 209.589 71.8751 208.726 75.0614C208.16 77.1468 207.029 81.2786 208.726 82.1853C210.676 83.2345 215.366 79.4782 216.914 78.2218C219.475 76.1623 221.142 74.0899 222.154 72.6781" stroke="black" stroke-width="4" stroke-miterlimit="10"/>
<path d="M237.827 74.9766C236.651 76.492 235.058 78.9141 234.12 82.1005C233.51 84.1858 232.274 88.3177 234.12 89.2244C236.234 90.2735 241.326 86.5173 243.008 85.2609C245.792 83.2014 247.608 81.129 248.695 79.7172" stroke="black" stroke-width="4" stroke-miterlimit="10"/>
<path d="M215.155 104.903C217.746 105.719 224.415 107.48 232.216 105.499C236.221 104.488 239.183 102.83 241.089 101.535" stroke="black" stroke-width="4" stroke-miterlimit="10"/>
<path d="M211.419 61.5C212.596 61.0467 215.082 60.2825 218.104 60.7617C224.312 61.7332 226.977 67.0308 227.2 67.4971" stroke="black" stroke-width="4" stroke-miterlimit="10"/>
<path d="M239.631 69.7891C240.807 69.3358 243.293 68.5715 246.315 69.0508C252.523 70.0222 255.188 75.3198 255.411 75.7861" stroke="black" stroke-width="4" stroke-miterlimit="10"/>
<path d="M113.417 93.2199C112.628 93.181 105.17 92.9479 100.108 98.2714C94.8379 103.815 96.8477 110.46 97.0412 111.043C99.3785 111.004 101.716 110.978 104.038 110.939C103.562 107.753 104.917 104.696 107.611 103.025C109.606 101.794 111.75 101.678 112.732 101.691C112.956 105.706 113.194 109.708 113.417 113.724C111.05 113.866 108.698 114.022 106.331 114.164C105.735 116.534 105.14 118.918 104.544 121.288C108.251 120.912 111.943 120.537 115.65 120.161C116.216 120.951 117.213 122.156 118.881 123.218C121.114 124.643 123.362 125.044 124.508 125.174L123.496 129.008C131.178 129.06 138.859 129.111 146.541 129.15C146.482 128.075 146.422 127.013 146.348 125.938C148.492 125.731 151.692 125.148 154.551 123.205C159.791 119.669 160.699 113.84 161.89 105.084C162.426 101.16 162.873 95.6161 162.396 88.8937C146.288 88.3497 130.195 87.8057 114.087 87.2617C113.864 89.2435 113.626 91.2252 113.402 93.2069L113.417 93.2199Z" fill="black"/>
<path d="M157.78 93.0131C154.966 91.1738 151.185 88.0652 149.681 83.4671C147.612 77.1592 151.587 73.3123 153.061 65.0485C153.359 63.4165 156.247 46.1767 147.687 40.9957C138.888 35.6722 124.924 47.3165 115.858 41.2029C112.642 39.0398 113.907 37.2654 108.637 30.1026C107.67 28.7944 101.908 20.984 96.5042 17.8624C84.2073 10.7645 54.8943 17.1371 45.0985 35.5815C38.5183 47.99 40.8259 65.748 53.5247 73.7138C64.7199 80.747 79.8007 77.5089 81.9296 77.0296C85.175 76.2913 84.4753 76.0194 102.31 68.1054C114.384 62.756 118.835 61.0592 124.656 61.7327C126.189 61.914 133.157 62.7171 135.732 66.5899C139.439 72.1724 133.484 83.2469 119.386 92.8059" fill="white"/>
<path d="M157.78 93.0131C154.966 91.1738 151.185 88.0652 149.681 83.4671C147.612 77.1592 151.587 73.3123 153.061 65.0485C153.359 63.4165 156.247 46.1767 147.687 40.9957C138.888 35.6722 124.924 47.3165 115.858 41.2029C112.642 39.0398 113.907 37.2654 108.637 30.1026C107.67 28.7944 101.908 20.984 96.5042 17.8624C84.2073 10.7645 54.8943 17.1371 45.0985 35.5815C38.5183 47.99 40.8259 65.748 53.5247 73.7138C64.7199 80.747 79.8007 77.5089 81.9296 77.0296C85.175 76.2913 84.4753 76.0194 102.31 68.1054C114.384 62.756 118.835 61.0592 124.656 61.7327C126.189 61.914 133.157 62.7171 135.732 66.5899C139.439 72.1724 133.484 83.2469 119.386 92.8059" stroke="black" stroke-width="4" stroke-miterlimit="10"/>
<path d="M253.446 103.377C258.19 103.377 262.036 100.031 262.036 95.9033C262.036 91.7757 258.19 88.4297 253.446 88.4297C248.702 88.4297 244.856 91.7757 244.856 95.9033C244.856 100.031 248.702 103.377 253.446 103.377Z" fill="#FF8F71"/>
</svg>
