<svg width="48" height="49" viewBox="0 0 48 49" fill="none" xmlns="http://www.w3.org/2000/svg">
<path d="M12.333 28.3093C9.2474 29.6705 7.33301 31.5673 7.33301 33.6654C7.33301 37.8075 14.7949 41.1654 23.9997 41.1654C33.2044 41.1654 40.6663 37.8075 40.6663 33.6654C40.6663 31.5673 38.7519 29.6705 35.6663 28.3093M33.9997 17.832C33.9997 24.6049 26.4997 27.832 23.9997 32.832C21.4997 27.832 13.9997 24.6049 13.9997 17.832C13.9997 12.3092 18.4768 7.83203 23.9997 7.83203C29.5225 7.83203 33.9997 12.3092 33.9997 17.832ZM25.6663 17.832C25.6663 18.7525 24.9201 19.4987 23.9997 19.4987C23.0792 19.4987 22.333 18.7525 22.333 17.832C22.333 16.9116 23.0792 16.1654 23.9997 16.1654C24.9201 16.1654 25.6663 16.9116 25.6663 17.832Z" stroke="#171C21" stroke-width="3" stroke-linecap="round" stroke-linejoin="round"/>
</svg>
