<svg width="25" height="25" viewBox="0 0 25 25" fill="none" xmlns="http://www.w3.org/2000/svg">
<path d="M17.3333 8.16518V3.9368C17.3333 2.93178 17.3333 2.42927 17.1216 2.12046C16.9367 1.85065 16.6502 1.66736 16.3277 1.61248C15.9586 1.54967 15.5023 1.76025 14.5898 2.18141L3.87131 7.12842C3.05749 7.50403 2.65057 7.69183 2.35254 7.9831C2.08907 8.2406 1.88795 8.55493 1.76457 8.90206C1.625 9.29471 1.625 9.74287 1.625 10.6392V16.6235M17.9375 16.0193H17.9496M1.625 12.0318L1.625 20.0068C1.625 21.3603 1.625 22.037 1.8884 22.554C2.12009 23.0087 2.4898 23.3784 2.94452 23.6101C3.46148 23.8735 4.13821 23.8735 5.49167 23.8735H19.5083C20.8618 23.8735 21.5385 23.8735 22.0555 23.6101C22.5102 23.3784 22.8799 23.0087 23.1116 22.554C23.375 22.037 23.375 21.3603 23.375 20.0068V12.0318C23.375 10.6784 23.375 10.0017 23.1116 9.4847C22.8799 9.02998 22.5102 8.66027 22.0555 8.42858C21.5385 8.16518 20.8618 8.16518 19.5083 8.16518L5.49167 8.16518C4.13821 8.16518 3.46148 8.16518 2.94452 8.42858C2.4898 8.66027 2.1201 9.02998 1.8884 9.4847C1.625 10.0017 1.625 10.6784 1.625 12.0318ZM18.5417 16.0193C18.5417 16.353 18.2712 16.6235 17.9375 16.6235C17.6038 16.6235 17.3333 16.353 17.3333 16.0193C17.3333 15.6857 17.6038 15.4152 17.9375 15.4152C18.2712 15.4152 18.5417 15.6857 18.5417 16.0193Z" stroke="black" stroke-width="2" stroke-linecap="round" stroke-linejoin="round"/>
</svg>
