<svg width="100" height="100" viewBox="0 0 100 100" fill="none" xmlns="http://www.w3.org/2000/svg">
<path fill-rule="evenodd" clip-rule="evenodd" d="M100 50C100 77.6142 77.6142 100 50 100C22.3858 100 0 77.6142 0 50C0 22.3858 22.3858 0 50 0C77.6142 0 100 22.3858 100 50ZM47.2427 62.0263C43.068 61.5871 39.3107 60.5516 36.0902 58.0142C36.0208 57.9599 35.9511 57.9058 35.8814 57.8517C35.5479 57.5931 35.2142 57.3343 34.9137 57.0383C33.5041 55.6829 33.3577 54.1161 34.48 52.5112C35.4288 51.1341 37.0282 50.7655 38.6981 51.5516C39.0229 51.705 39.3316 51.8902 39.6198 52.1046C45.6216 56.2576 53.868 56.3715 59.8969 52.2889C60.4748 51.8134 61.1449 51.4627 61.8649 51.2588C62.5316 51.0636 63.2446 51.0986 63.8889 51.3583C64.5332 51.618 65.0712 52.0872 65.4162 52.6902C66.2999 54.1377 66.2836 55.5474 65.1993 56.6697C63.5383 58.3637 61.5268 59.6738 59.3059 60.5082C57.2023 61.3323 54.8927 61.7444 52.6101 62.0209C52.6836 62.1013 52.7489 62.1729 52.8081 62.2379L52.8084 62.2382C53.0286 62.4801 53.1658 62.6307 53.3366 62.8016C56.4378 65.9281 59.5372 69.0618 62.6348 72.2028C63.6866 73.2763 63.9089 74.6046 63.3288 75.8516C62.6945 77.207 61.274 78.107 59.886 78.0094C59.0442 77.923 58.2658 77.5223 57.7065 76.8871C56.9276 76.0974 56.1438 75.3124 55.3601 74.5275C53.7926 72.9576 52.2252 71.3877 50.6963 69.7793C50.0294 69.0745 49.7041 69.21 49.1186 69.8173C46.7619 72.2534 44.3782 74.6643 41.9674 77.0498C40.8884 78.1179 39.6035 78.313 38.3511 77.7004C37.7095 77.398 37.1688 76.917 36.7937 76.315C36.4187 75.713 36.2253 75.0156 36.2366 74.3064C36.3085 73.429 36.7164 72.6133 37.3752 72.0293L46.5595 62.7636C46.6797 62.6402 46.796 62.5129 46.9329 62.363C47.0245 62.2627 47.1253 62.1524 47.2427 62.0263ZM40.2013 47.1824C42.721 49.7275 46.1446 51.1734 49.7258 51.2048C57.2186 51.232 63.3451 45.2301 63.383 37.8241C63.4038 36.0352 63.0706 34.2598 62.4027 32.6002C61.7347 30.9405 60.7452 29.4293 59.4911 28.1534C58.2369 26.8776 56.7429 25.8624 55.0949 25.1661C53.4469 24.4698 51.6775 24.1063 49.8885 24.0964C46.2916 24.0892 42.8386 25.5085 40.2866 28.0433C37.7346 30.578 36.2918 34.0213 36.2746 37.6181C36.2702 41.1995 37.6816 44.6374 40.2013 47.1824ZM55.9664 35.1019C56.2998 35.9064 56.4711 36.7689 56.4704 37.6398C56.4775 38.5106 56.3121 39.3741 55.9837 40.1806C55.6552 40.9871 55.1703 41.7206 54.5568 42.3386C53.9433 42.9566 53.2134 43.447 52.4094 43.7814C51.6053 44.1157 50.743 44.2875 49.8722 44.2868C49.0013 44.2961 48.1371 44.1333 47.3293 43.8078C46.5215 43.4822 45.7859 43.0004 45.1648 42.3898C44.5437 41.7793 44.0492 41.0521 43.7099 40.25C43.3705 39.4479 43.1929 38.5866 43.1872 37.7157C43.1764 36.8375 43.3406 35.966 43.6702 35.1519C43.9998 34.3378 44.4883 33.5976 45.107 32.9743C45.7257 32.351 46.4624 31.8572 47.2741 31.5216C48.0857 31.1861 48.956 31.0155 49.8342 31.0199C50.7051 31.0171 51.568 31.1862 52.3734 31.5177C53.1788 31.8491 53.9107 32.3364 54.5273 32.9515C55.1439 33.5665 55.6329 34.2973 55.9664 35.1019Z" fill="#AA5DE6"/>
</svg>
