<svg width="27" height="28" viewBox="0 0 27 28" fill="none" xmlns="http://www.w3.org/2000/svg">
<path d="M20.25 2.75L24.75 7.25M2.25 25.25L3.68595 19.9848C3.77963 19.6413 3.82648 19.4696 3.89839 19.3094C3.96223 19.1672 4.04069 19.032 4.13248 18.906C4.23587 18.7641 4.36175 18.6382 4.61352 18.3865L16.2386 6.7614C16.4614 6.53864 16.5727 6.42726 16.7012 6.38553C16.8142 6.34882 16.9358 6.34882 17.0488 6.38553C17.1773 6.42726 17.2886 6.53864 17.5114 6.7614L20.7386 9.9886C20.9614 10.2114 21.0727 10.3227 21.1145 10.4512C21.1512 10.5642 21.1512 10.6858 21.1145 10.7988C21.0727 10.9273 20.9614 11.0386 20.7386 11.2614L9.11352 22.8865C8.86175 23.1382 8.73587 23.2641 8.59397 23.3675C8.46798 23.4593 8.33279 23.5378 8.19058 23.6016C8.03041 23.6735 7.85866 23.7204 7.51516 23.814L2.25 25.25Z" stroke="black" stroke-width="2" stroke-linecap="round" stroke-linejoin="round"/>
</svg>
