<svg width="44" height="40" viewBox="0 0 44 40" fill="none" xmlns="http://www.w3.org/2000/svg">
<path d="M33.9997 27.6738C36.9115 29.1365 39.4079 31.4839 41.2302 34.4193C41.591 35.0005 41.7714 35.2912 41.8338 35.6937C41.9606 36.5115 41.4013 37.5171 40.6395 37.8407C40.2647 38 39.843 38 38.9997 38M29.9997 19.0645C32.9631 17.5918 34.9997 14.5337 34.9997 11C34.9997 7.46628 32.9631 4.40822 29.9997 2.93552M25.9997 11C25.9997 15.9706 21.9702 20 16.9997 20C12.0291 20 7.99967 15.9706 7.99967 11C7.99967 6.02944 12.0291 2 16.9997 2C21.9702 2 25.9997 6.02944 25.9997 11ZM3.11813 33.8767C6.30675 29.0891 11.3384 26 16.9997 26C22.6609 26 27.6926 29.0891 30.8812 33.8767C31.5797 34.9255 31.929 35.4499 31.8888 36.1198C31.8575 36.6414 31.5156 37.28 31.0988 37.5952C30.5635 38 29.8273 38 28.355 38H5.64439C4.17202 38 3.43583 38 2.90055 37.5952C2.48377 37.28 2.14185 36.6414 2.11054 36.1198C2.07033 35.4499 2.4196 34.9255 3.11813 33.8767Z" stroke="#171C21" stroke-width="4" stroke-linecap="round" stroke-linejoin="round"/>
</svg>
