<svg width="514" height="387" viewBox="0 0 514 387" fill="none" xmlns="http://www.w3.org/2000/svg">
<path d="M4 71.358L284.638 5.41406V222.7L4 316.768V71.358Z" fill="#AA5DE5" stroke="black" stroke-width="8" stroke-miterlimit="10"/>
<path d="M156.43 261.273V324.585" stroke="black" stroke-width="4" stroke-miterlimit="10"/>
<path d="M83.448 355.198L220.036 301.742" stroke="black" stroke-width="8" stroke-miterlimit="10"/>
<path d="M36.0164 104.354C36.0164 144.589 36.0164 184.805 36.0164 225.04C73.2498 213.66 110.464 202.26 147.697 190.88C147.502 152.367 147.306 113.834 147.091 75.3203L35.9968 104.374L36.0164 104.354Z" fill="black"/>
<path d="M329.939 118.562C323.454 144.825 322.301 167.387 322.77 184.17C323.668 216.489 324.567 249.283 346.837 265.254C360.648 275.15 377.546 274.932 389.071 273.289C394.463 283.858 399.835 294.426 405.226 305.014C426.871 294.268 448.496 283.501 470.141 272.755C465.882 263.691 461.643 254.646 457.384 245.582C462.737 232.025 468.109 218.468 473.462 204.931C425.621 176.155 377.78 147.378 329.959 118.582L329.939 118.562Z" fill="#F3CDB0" stroke="black" stroke-width="4" stroke-miterlimit="10"/>
<path d="M367.524 157.503C368.735 155.86 377.682 144.084 390.047 144.678C405.304 145.41 416.185 164.568 414.896 180.559C413.86 193.443 404.816 205.417 393.486 209.533C390.36 210.681 387.547 211.038 385.535 211.136" fill="#F3CDB0"/>
<path d="M367.524 157.503C368.735 155.86 377.682 144.084 390.047 144.678C405.304 145.41 416.185 164.568 414.896 180.559C413.86 193.443 404.816 205.417 393.486 209.533C390.36 210.681 387.547 211.038 385.535 211.136" stroke="black" stroke-width="4" stroke-miterlimit="10"/>
<path d="M317.756 383.7C322.407 375.231 329.725 362.882 340.094 349.193C381.811 294.103 430.515 279.193 440.094 276.357C452.284 272.733 458.535 270.96 465.393 272.753C504.26 282.857 510.912 375.172 511.5 383.7C446.838 384.862 382.418 382.558 317.756 383.7Z" fill="#AA5DE5" stroke="black" stroke-width="4" stroke-miterlimit="10"/>
<path d="M329.937 118.562C323.432 116.088 307.96 109.181 296.943 92.6155C292.45 85.8667 283.092 71.7755 286.511 56.0217C290.574 37.3587 310.988 23.6237 329.351 22.1988C352.246 20.4176 353.848 39.2191 400.966 64.8684C440.66 86.4802 452.127 86.0646 472.365 108.686C482.231 119.709 494.831 133.821 495.905 153.711C496.667 167.881 491.08 175.817 474.553 213.935C467.501 230.183 462.168 243.404 458.965 251.439C454.257 248.945 449.295 245.878 444.255 242.078C425.189 227.71 414.503 209.957 408.701 197.647C409.737 195.094 411.163 191.195 412.12 186.267C413.663 178.39 415.382 169.939 411.456 161.766C410.714 160.242 405.771 150.307 395.965 148.506C386.197 146.705 375.023 153.631 369.808 165.902C367.893 175.204 365.998 184.506 364.084 193.807C357.208 183.971 349.589 171.404 342.791 156.105C336.637 142.252 332.613 129.427 329.937 118.542V118.562Z" fill="black"/>
<path d="M318.119 162.953C321.147 163.864 328.883 166.674 334.197 174.432C336.248 177.42 337.381 180.349 338.045 182.685" stroke="black" stroke-width="4" stroke-miterlimit="10"/>
<path d="M342.328 186.339C342.464 179.618 339.828 174.113 336.441 174.043C333.054 173.973 330.198 179.364 330.063 186.085C329.927 192.806 332.563 198.311 335.95 198.381C339.337 198.451 342.193 193.059 342.328 186.339Z" fill="black"/>
<path d="M40.5188 220.26C43.449 211.255 48.782 198.292 58.5495 184.933C67.4183 172.801 76.8536 164.588 83.8862 159.383C72.9857 152.535 66.969 139.948 68.7271 127.717C70.4071 116.06 79.3931 103.057 91.7587 102.938C101.917 102.839 109.946 111.468 113.149 119.583C117.74 131.18 114.048 145.667 103.577 155.226C110.063 156.909 121.022 160.748 131.727 170.07C138.349 175.849 139.569 182.822 142.519 187.592C107.415 198.774 75.6229 209.078 40.5188 220.26Z" fill="#8ADEFF" stroke="black" stroke-width="4" stroke-miterlimit="10"/>
<path d="M160.24 75.2982L261.177 50.5V71.063L160.24 95.2674V75.2982Z" fill="white"/>
<path d="M172.821 115.591L175.829 121.568L169.715 119.252L164.733 125.11L166.453 117.986L161.725 114.878L167.175 113.374L168.25 106.586L171.121 112.266L177.021 110.623L172.821 115.591Z" fill="white"/>
<path d="M191.241 110.173L194.249 116.15L188.154 113.834L183.173 119.692L184.872 112.568L180.145 109.48L185.595 107.956L186.669 101.168L189.541 106.848L195.441 105.205L191.241 110.173Z" fill="white"/>
<path d="M209.682 105.38L212.691 111.357L206.596 109.022L201.615 114.9L203.314 107.775L198.587 104.668L204.037 103.144L205.131 96.3555L207.983 102.055L213.882 100.413L209.682 105.38Z" fill="white"/>
<path d="M228.102 99.962L231.13 105.939L225.016 103.604L220.034 109.482L221.734 102.357L217.026 99.2495L222.476 97.7256L223.551 90.957L226.422 96.6371L232.302 94.9944L228.102 99.962Z" fill="white"/>
<path d="M246.35 95.1654L249.378 101.122L243.263 98.8069L238.282 104.685L239.981 97.5601L235.273 94.4528L240.724 92.929L241.798 86.1406L244.67 91.8405L250.569 90.1978L246.35 95.1654Z" fill="white"/>
<path d="M348.202 234.813C355.193 234.813 360.861 229.072 360.861 221.989C360.861 214.906 355.193 209.164 348.202 209.164C341.211 209.164 335.543 214.906 335.543 221.989C335.543 229.072 341.211 234.813 348.202 234.813Z" fill="#FF8F71"/>
</svg>
