<svg width="44" height="44" viewBox="0 0 44 44" fill="none" xmlns="http://www.w3.org/2000/svg">
<path d="M34 2L42 10M2 42L4.5528 32.6397C4.71935 32.029 4.80263 31.7237 4.93046 31.439C5.04397 31.1862 5.18344 30.9458 5.34663 30.7218C5.53043 30.4696 5.75422 30.2458 6.20181 29.7982L26.8686 9.13137C27.2646 8.73535 27.4627 8.53735 27.691 8.46316C27.8918 8.3979 28.1082 8.3979 28.309 8.46316C28.5373 8.53735 28.7354 8.73535 29.1314 9.13137L34.8686 14.8686C35.2646 15.2646 35.4627 15.4627 35.5368 15.691C35.6021 15.8918 35.6021 16.1082 35.5368 16.309C35.4627 16.5373 35.2646 16.7354 34.8686 17.1314L14.2018 37.7982C13.7542 38.2458 13.5304 38.4696 13.2782 38.6534C13.0542 38.8166 12.8138 38.956 12.561 39.0695C12.2763 39.1974 11.971 39.2806 11.3603 39.4472L2 42Z" stroke="#AA5DE6" stroke-width="4" stroke-linecap="round" stroke-linejoin="round"/>
</svg>
