<svg width="28" height="28" viewBox="0 0 28 28" fill="none" xmlns="http://www.w3.org/2000/svg">
<path d="M13.1633 4.02736C13.4322 3.4826 13.5666 3.21022 13.7491 3.12319C13.9079 3.04748 14.0924 3.04748 14.2512 3.12319C14.4338 3.21022 14.5682 3.4826 14.8371 4.02736L17.3882 9.19566C17.4676 9.35648 17.5073 9.4369 17.5653 9.49933C17.6167 9.55461 17.6783 9.5994 17.7467 9.63122C17.824 9.66716 17.9127 9.68012 18.0902 9.70606L23.7967 10.5402C24.3976 10.628 24.698 10.6719 24.8371 10.8187C24.9581 10.9464 25.0149 11.1218 24.9919 11.2962C24.9655 11.4967 24.7479 11.7085 24.3129 12.1323L20.1852 16.1526C20.0565 16.278 19.9922 16.3406 19.9507 16.4152C19.9139 16.4812 19.8903 16.5537 19.8812 16.6288C19.871 16.7135 19.8861 16.802 19.9165 16.979L20.8904 22.6576C20.9932 23.2566 21.0445 23.556 20.948 23.7337C20.864 23.8884 20.7147 23.9968 20.5417 24.0289C20.3429 24.0657 20.074 23.9243 19.5361 23.6415L14.4346 20.9586C14.2757 20.875 14.1962 20.8332 14.1124 20.8168C14.0383 20.8023 13.9621 20.8023 13.8879 20.8168C13.8042 20.8332 13.7247 20.875 13.5658 20.9586L8.46424 23.6415C7.9264 23.9243 7.65748 24.0657 7.45863 24.0289C7.28562 23.9968 7.13634 23.8884 7.05236 23.7337C6.95583 23.556 7.00719 23.2566 7.10992 22.6576L8.08386 16.979C8.11423 16.802 8.12941 16.7135 8.11914 16.6288C8.11004 16.5537 8.08646 16.4812 8.0497 16.4152C8.00819 16.3406 7.94385 16.278 7.81518 16.1526L3.68748 12.1323C3.25244 11.7085 3.03491 11.4967 3.00844 11.2962C2.98541 11.1218 3.04231 10.9464 3.16329 10.8187C3.30234 10.6719 3.6028 10.628 4.20371 10.5402L9.91019 9.70606C10.0877 9.68012 10.1764 9.66716 10.2537 9.63122C10.3221 9.5994 10.3837 9.55461 10.435 9.49933C10.4931 9.4369 10.5327 9.35648 10.6121 9.19566L13.1633 4.02736Z" fill="#FFE656" stroke="#FFE656" stroke-width="4" stroke-linecap="round" stroke-linejoin="round"/>
</svg>
